<?xml version="1.0" encoding="UTF-8" standalone="no"?>
<!DOCTYPE svg PUBLIC "-//W3C//DTD SVG 1.1//EN"
 "http://www.w3.org/Graphics/SVG/1.1/DTD/svg11.dtd">
<!-- Generated by graphviz version 2.43.0 (0)
 -->
<!-- Title: MainWindow::on_buttonToggleClip_clicked Pages: 1 -->
<svg width="389pt" height="150pt"
 viewBox="0.00 0.00 389.00 150.00" xmlns="http://www.w3.org/2000/svg" xmlns:xlink="http://www.w3.org/1999/xlink">
<g id="graph0" class="graph" transform="scale(1 1) rotate(0) translate(4 146)">
<title>MainWindow::on_buttonToggleClip_clicked</title>
<!-- Node1 -->
<g id="Node000001" class="node">
<title>Node1</title>
<g id="a_Node000001"><a xlink:title=" ">
<polygon fill="#999999" stroke="#666666" points="165,-88.5 0,-88.5 0,-58.5 165,-58.5 165,-88.5"/>
<text text-anchor="start" x="8" y="-76.5" font-family="Helvetica,sans-Serif" font-size="10.00">MainWindow::on_buttonToggle</text>
<text text-anchor="middle" x="82.5" y="-65.5" font-family="Helvetica,sans-Serif" font-size="10.00">Clip_clicked</text>
</a>
</g>
</g>
<!-- Node2 -->
<g id="Node000002" class="node">
<title>Node2</title>
<g id="a_Node000002"><a xlink:href="classVRRenderThread.html#a0e5e7126b3e42c9d98fc14d1cd983fdf" target="_top" xlink:title=" ">
<polygon fill="white" stroke="#666666" points="381,-142 201,-142 201,-123 381,-123 381,-142"/>
<text text-anchor="middle" x="291" y="-130" font-family="Helvetica,sans-Serif" font-size="10.00">VRRenderThread::issueCommand</text>
</a>
</g>
</g>
<!-- Node1&#45;&gt;Node2 -->
<g id="edge1_Node000001_Node000002" class="edge">
<title>Node1&#45;&gt;Node2</title>
<g id="a_edge1_Node000001_Node000002"><a xlink:title=" ">
<path fill="none" stroke="#63b8ff" d="M122.25,-88.51C144.95,-96.94 174.33,-107.19 201,-114.5 209.2,-116.75 217.89,-118.85 226.5,-120.76"/>
<polygon fill="#63b8ff" stroke="#63b8ff" points="226.03,-124.24 236.54,-122.92 227.5,-117.39 226.03,-124.24"/>
</a>
</g>
</g>
<!-- Node3 -->
<g id="Node000003" class="node">
<title>Node3</title>
<g id="a_Node000003"><a xlink:href="classMainWindow.html#a15a4966f9e4285ab2895a35f94878175" target="_top" xlink:title=" ">
<polygon fill="white" stroke="#666666" points="366,-105 216,-105 216,-86 366,-86 366,-105"/>
<text text-anchor="middle" x="291" y="-93" font-family="Helvetica,sans-Serif" font-size="10.00">MainWindow::selectedParts</text>
</a>
</g>
</g>
<!-- Node1&#45;&gt;Node3 -->
<g id="edge2_Node000001_Node000003" class="edge">
<title>Node1&#45;&gt;Node3</title>
<g id="a_edge2_Node000001_Node000003"><a xlink:title=" ">
<path fill="none" stroke="#63b8ff" d="M165.11,-82.19C178.41,-83.61 192.21,-85.08 205.57,-86.5"/>
<polygon fill="#63b8ff" stroke="#63b8ff" points="205.37,-90 215.69,-87.58 206.11,-83.04 205.37,-90"/>
</a>
</g>
</g>
<!-- Node4 -->
<g id="Node000004" class="node">
<title>Node4</title>
<g id="a_Node000004"><a xlink:href="classMainWindow.html#a86443ea744fda3e9bad328c2fd1c3d6b" target="_top" xlink:title=" ">
<polygon fill="white" stroke="#666666" points="366,-67.5 216,-67.5 216,-37.5 366,-37.5 366,-67.5"/>
<text text-anchor="start" x="224" y="-55.5" font-family="Helvetica,sans-Serif" font-size="10.00">MainWindow::statusUpdate</text>
<text text-anchor="middle" x="291" y="-44.5" font-family="Helvetica,sans-Serif" font-size="10.00">Message</text>
</a>
</g>
</g>
<!-- Node1&#45;&gt;Node4 -->
<g id="edge3_Node000001_Node000004" class="edge">
<title>Node1&#45;&gt;Node4</title>
<g id="a_edge3_Node000001_Node000004"><a xlink:title=" ">
<path fill="none" stroke="#63b8ff" d="M165.11,-65.2C178.41,-63.85 192.21,-62.45 205.57,-61.09"/>
<polygon fill="#63b8ff" stroke="#63b8ff" points="206.09,-64.55 215.69,-60.06 205.38,-57.59 206.09,-64.55"/>
</a>
</g>
</g>
<!-- Node5 -->
<g id="Node000005" class="node">
<title>Node5</title>
<g id="a_Node000005"><a xlink:href="classMainWindow.html#aa2a5945f9c4bf90022f0a7ad3db34c49" target="_top" xlink:title=" ">
<polygon fill="white" stroke="#666666" points="367.5,-19 214.5,-19 214.5,0 367.5,0 367.5,-19"/>
<text text-anchor="middle" x="291" y="-7" font-family="Helvetica,sans-Serif" font-size="10.00">MainWindow::updateRender</text>
</a>
</g>
</g>
<!-- Node1&#45;&gt;Node5 -->
<g id="edge4_Node000001_Node000005" class="edge">
<title>Node1&#45;&gt;Node5</title>
<g id="a_edge4_Node000001_Node000005"><a xlink:title=" ">
<path fill="none" stroke="#63b8ff" d="M118.49,-58.46C141.6,-48.93 172.73,-36.88 201,-28.5 209.99,-25.84 219.6,-23.38 229.06,-21.19"/>
<polygon fill="#63b8ff" stroke="#63b8ff" points="229.83,-24.61 238.83,-19 228.3,-17.77 229.83,-24.61"/>
</a>
</g>
</g>
</g>
</svg>
