<?xml version="1.0" encoding="UTF-8" standalone="no"?>
<!DOCTYPE svg PUBLIC "-//W3C//DTD SVG 1.1//EN"
 "http://www.w3.org/Graphics/SVG/1.1/DTD/svg11.dtd">
<!-- Generated by graphviz version 2.43.0 (0)
 -->
<!-- Title: ModelPartList::index Pages: 1 -->
<!--zoomable 466 -->

<svg id="main" version="1.1" xmlns="http://www.w3.org/2000/svg" xmlns:xlink="http://www.w3.org/1999/xlink" xml:space="preserve" onload="init(evt)">
<style type="text/css"><![CDATA[
.node, .edge {opacity: 0.7;}
.node.selected, .edge.selected {opacity: 1;}
.edge:hover path { stroke: red; }
.edge:hover polygon { stroke: red; fill: red; }
]]></style>

<defs>
  <circle id="rim" cx="0" cy="0" r="7"/>
  <circle id="rim2" cx="0" cy="0" r="3.5"/>
  <g id="zoomPlus">
    <use xlink:href="#rim" fill="#404040"><set attributeName="fill" to="#808080" begin="zoomplus.mouseover" end="zoomplus.mouseout"/></use>
    <path d="M-4,0h8M0,-4v8" fill="none" stroke="white" stroke-width="1.5" pointer-events="none"/>
  </g>
  <g id="zoomMin">
    <use xlink:href="#rim" fill="#404040"><set attributeName="fill" to="#808080" begin="zoomminus.mouseover" end="zoomminus.mouseout"/></use>
    <path d="M-4,0h8" fill="none" stroke="white" stroke-width="1.5" pointer-events="none"/>
  </g>
  <g id="arrowUp" transform="translate(30 24)">
    <use xlink:href="#rim"/>
    <path pointer-events="none" fill="none" stroke="white" stroke-width="1.5" d="M0,-3.0v7 M-2.5,-0.5L0,-3.0L2.5,-0.5"/>
  </g>
  <g id="arrowRight" transform="rotate(90) translate(36 -43)">
    <use xlink:href="#rim"/>
    <path pointer-events="none" fill="none" stroke="white" stroke-width="1.5" d="M0,-3.0v7 M-2.5,-0.5L0,-3.0L2.5,-0.5"/>
  </g>
  <g id="arrowDown" transform="rotate(180) translate(-30 -48)">
    <use xlink:href="#rim"/>
    <path pointer-events="none" fill="none" stroke="white" stroke-width="1.5" d="M0,-3.0v7 M-2.5,-0.5L0,-3.0L2.5,-0.5"/>
  </g>
  <g id="arrowLeft" transform="rotate(270) translate(-36 17)">
    <use xlink:href="#rim"/>
    <path pointer-events="none" fill="none" stroke="white" stroke-width="1.5" d="M0,-3.0v7 M-2.5,-0.5L0,-3.0L2.5,-0.5"/>
  </g>
  <g id="resetDef">
    <use xlink:href="#rim2" fill="#404040"><set attributeName="fill" to="#808080" begin="reset.mouseover" end="reset.mouseout"/></use>
  </g>
</defs>
<script type="application/ecmascript">
var viewWidth = 1063;
var viewHeight = 466;
var sectionId = 'dynsection-14';
</script>
<script type="application/ecmascript" xlink:href="svg.min.js"/>
<svg id="graph" class="graph">
<g id="viewport">
<title>ModelPartList::index</title>
<!-- Node1 -->
<g id="Node000001" class="node">
<title>Node1</title>
<g id="a_Node000001"><a xlink:title=" ">
<polygon fill="#999999" stroke="#666666" points="1055,-190 939,-190 939,-171 1055,-171 1055,-190"/>
<text text-anchor="middle" x="997" y="-178" font-family="Helvetica,sans-Serif" font-size="10.00">ModelPartList::index</text>
</a>
</g>
</g>
<!-- Node2 -->
<g id="Node000002" class="node">
<title>Node2</title>
<g id="a_Node000002"><a xlink:href="classMainWindow.html#a46cb35b1c663ea1240545f3e626f3854" target="_top" xlink:title=" ">
<polygon fill="white" stroke="#666666" points="552.5,-408.5 401.5,-408.5 401.5,-378.5 552.5,-378.5 552.5,-408.5"/>
<text text-anchor="start" x="409.5" y="-396.5" font-family="Helvetica,sans-Serif" font-size="10.00">MainWindow::applyExplode</text>
<text text-anchor="middle" x="477" y="-385.5" font-family="Helvetica,sans-Serif" font-size="10.00">FromTree</text>
</a>
</g>
</g>
<!-- Node1&#45;&gt;Node2 -->
<g id="edge1_Node000001_Node000002" class="edge">
<title>Node1&#45;&gt;Node2</title>
<g id="a_edge1_Node000001_Node000002"><a xlink:title=" ">
<path fill="none" stroke="#63b8ff" d="M989.6,-199.95C977.93,-232.08 949.98,-295.72 903,-326.5 796.31,-396.4 642.87,-402.86 552.51,-399.41"/>
<polygon fill="#63b8ff" stroke="#63b8ff" points="992.95,-200.96 992.93,-190.36 986.34,-198.66 992.95,-200.96"/>
</a>
</g>
</g>
<!-- Node3 -->
<g id="Node000003" class="node">
<title>Node3</title>
<g id="a_Node000003"><a xlink:href="classMainWindow.html#a6db062f407bd66add549a10a7dc24a0f" target="_top" xlink:title=" ">
<polygon fill="white" stroke="#666666" points="358.5,-365.5 207.5,-365.5 207.5,-335.5 358.5,-335.5 358.5,-365.5"/>
<text text-anchor="start" x="215.5" y="-353.5" font-family="Helvetica,sans-Serif" font-size="10.00">MainWindow::applyExplode</text>
<text text-anchor="middle" x="283" y="-342.5" font-family="Helvetica,sans-Serif" font-size="10.00">ToAll</text>
</a>
</g>
</g>
<!-- Node1&#45;&gt;Node3 -->
<g id="edge7_Node000001_Node000003" class="edge">
<title>Node1&#45;&gt;Node3</title>
<g id="a_edge7_Node000001_Node000003"><a xlink:title=" ">
<path fill="none" stroke="#63b8ff" d="M991.75,-200.09C982.49,-237.95 956.88,-321.3 903,-365.5 847.39,-411.11 817.42,-393.88 747,-408.5 594.67,-440.12 545.66,-484.49 398,-435.5 356.29,-421.66 317.47,-385.97 297.68,-365.51"/>
<polygon fill="#63b8ff" stroke="#63b8ff" points="995.17,-200.83 994.02,-190.29 988.35,-199.24 995.17,-200.83"/>
</a>
</g>
</g>
<!-- Node7 -->
<g id="Node000007" class="node">
<title>Node7</title>
<g id="a_Node000007"><a xlink:href="classModelPartList.html#a59ef0e03a214d3440d1ce86e5c64ba32" target="_top" xlink:title=" ">
<polygon fill="white" stroke="#666666" points="898,-56 788,-56 788,-37 898,-37 898,-56"/>
<text text-anchor="middle" x="843" y="-44" font-family="Helvetica,sans-Serif" font-size="10.00">ModelPartList::data</text>
</a>
</g>
</g>
<!-- Node1&#45;&gt;Node7 -->
<g id="edge8_Node000001_Node000007" class="edge">
<title>Node1&#45;&gt;Node7</title>
<g id="a_edge8_Node000001_Node000007"><a xlink:title=" ">
<path fill="none" stroke="#63b8ff" d="M984.78,-162.43C969.11,-138.49 938.56,-96.3 903,-70.5 894.77,-64.53 884.83,-59.75 875.48,-56.07"/>
<polygon fill="#63b8ff" stroke="#63b8ff" points="981.87,-164.38 990.21,-170.91 987.77,-160.61 981.87,-164.38"/>
</a>
</g>
</g>
<!-- Node10 -->
<g id="Node000010" class="node">
<title>Node10</title>
<g id="a_Node000010"><a xlink:href="classModelPartList.html#aded47caa71080090631c021c21bf4e6d" target="_top" xlink:title=" ">
<polygon fill="white" stroke="#666666" points="899,-19 787,-19 787,0 899,0 899,-19"/>
<text text-anchor="middle" x="843" y="-7" font-family="Helvetica,sans-Serif" font-size="10.00">ModelPartList::flags</text>
</a>
</g>
</g>
<!-- Node1&#45;&gt;Node10 -->
<g id="edge12_Node000001_Node000010" class="edge">
<title>Node1&#45;&gt;Node10</title>
<g id="a_edge12_Node000001_Node000010"><a xlink:title=" ">
<path fill="none" stroke="#63b8ff" d="M989.53,-161.32C977.61,-128.9 949.1,-63.3 903,-27.5 898.6,-24.08 893.56,-21.31 888.31,-19.07"/>
<polygon fill="#63b8ff" stroke="#63b8ff" points="986.3,-162.69 992.94,-170.95 992.9,-160.36 986.3,-162.69"/>
</a>
</g>
</g>
<!-- Node11 -->
<g id="Node000011" class="node">
<title>Node11</title>
<g id="a_Node000011"><a xlink:href="classMainWindow.html#ac0f0034dd8ee8a9cb96cf81366fca941" target="_top" xlink:title=" ">
<polygon fill="white" stroke="#666666" points="552.5,-208.5 401.5,-208.5 401.5,-178.5 552.5,-178.5 552.5,-208.5"/>
<text text-anchor="start" x="409.5" y="-196.5" font-family="Helvetica,sans-Serif" font-size="10.00">MainWindow::on_actionEdit</text>
<text text-anchor="middle" x="477" y="-185.5" font-family="Helvetica,sans-Serif" font-size="10.00">_Part_triggered</text>
</a>
</g>
</g>
<!-- Node1&#45;&gt;Node11 -->
<g id="edge13_Node000001_Node000011" class="edge">
<title>Node1&#45;&gt;Node11</title>
<g id="a_edge13_Node000001_Node000011"><a xlink:title=" ">
<path fill="none" stroke="#63b8ff" d="M928.28,-178.16C847.97,-175.92 710.12,-173.79 592,-180.5 579.27,-181.22 565.78,-182.4 552.71,-183.75"/>
<polygon fill="#63b8ff" stroke="#63b8ff" points="928.64,-181.67 938.74,-178.46 928.84,-174.67 928.64,-181.67"/>
</a>
</g>
</g>
<!-- Node12 -->
<g id="Node000012" class="node">
<title>Node12</title>
<g id="a_Node000012"><a xlink:href="classModelPartList.html#a95162d13f90586be9b645f02cc4694f4" target="_top" xlink:title=" ">
<polygon fill="white" stroke="#666666" points="903,-209 783,-209 783,-190 903,-190 903,-209"/>
<text text-anchor="middle" x="843" y="-197" font-family="Helvetica,sans-Serif" font-size="10.00">ModelPartList::parent</text>
</a>
</g>
</g>
<!-- Node1&#45;&gt;Node12 -->
<g id="edge14_Node000001_Node000012" class="edge">
<title>Node1&#45;&gt;Node12</title>
<g id="a_edge14_Node000001_Node000012"><a xlink:title=" ">
<path fill="none" stroke="#63b8ff" d="M928.81,-182.19C910.34,-184.33 891.17,-187.09 875.74,-189.93"/>
<polygon fill="#63b8ff" stroke="#63b8ff" points="929.41,-185.64 938.97,-181.07 928.65,-178.69 929.41,-185.64"/>
</a>
</g>
</g>
<!-- Node14 -->
<g id="Node000014" class="node">
<title>Node14</title>
<g id="a_Node000014"><a xlink:href="classModelPartList.html#a331e367f122a0d84daa1e0298aa037e4" target="_top" xlink:title=" ">
<polygon fill="white" stroke="#666666" points="357.5,-288 208.5,-288 208.5,-269 357.5,-269 357.5,-288"/>
<text text-anchor="middle" x="283" y="-276" font-family="Helvetica,sans-Serif" font-size="10.00">ModelPartList::removeItem</text>
</a>
</g>
</g>
<!-- Node1&#45;&gt;Node14 -->
<g id="edge33_Node000001_Node000014" class="edge">
<title>Node1&#45;&gt;Node14</title>
<g id="a_edge33_Node000001_Node000014"><a xlink:title=" ">
<path fill="none" stroke="#63b8ff" d="M969.21,-194.89C924.58,-218.1 831.55,-263.23 747,-283.5 596.02,-319.69 552.67,-311.96 398,-298.5 374.68,-296.47 348.97,-292.15 327.89,-288.04"/>
<polygon fill="#63b8ff" stroke="#63b8ff" points="971,-197.9 978.23,-190.16 967.75,-191.71 971,-197.9"/>
</a>
</g>
</g>
<!-- Node16 -->
<g id="Node000016" class="node">
<title>Node16</title>
<g id="a_Node000016"><a xlink:href="classMainWindow.html#ad0f3f72f92f2fe5aa922ad43c13fe3b9" target="_top" xlink:title=" ">
<polygon fill="white" stroke="#666666" points="362,-247.5 204,-247.5 204,-217.5 362,-217.5 362,-247.5"/>
<text text-anchor="start" x="212" y="-235.5" font-family="Helvetica,sans-Serif" font-size="10.00">MainWindow::refreshExplode</text>
<text text-anchor="middle" x="283" y="-224.5" font-family="Helvetica,sans-Serif" font-size="10.00">Directions</text>
</a>
</g>
</g>
<!-- Node1&#45;&gt;Node16 -->
<g id="edge31_Node000001_Node000016" class="edge">
<title>Node1&#45;&gt;Node16</title>
<g id="a_edge31_Node000001_Node000016"><a xlink:title=" ">
<path fill="none" stroke="#63b8ff" d="M952.34,-168.26C936.84,-164.18 919.21,-159.82 903,-156.5 792.46,-133.85 500.87,-57.13 398,-103.5 371.16,-115.6 318.12,-185.47 295.1,-217.03"/>
<polygon fill="#63b8ff" stroke="#63b8ff" points="951.61,-171.69 962.18,-170.89 953.42,-164.93 951.61,-171.69"/>
</a>
</g>
</g>
<!-- Node17 -->
<g id="Node000017" class="node">
<title>Node17</title>
<g id="a_Node000017"><a xlink:href="classMainWindow.html#a0246192046d6d7c2844424ca1ff7e134" target="_top" xlink:title=" ">
<polygon fill="white" stroke="#666666" points="556,-142.5 398,-142.5 398,-112.5 556,-112.5 556,-142.5"/>
<text text-anchor="start" x="406" y="-130.5" font-family="Helvetica,sans-Serif" font-size="10.00">MainWindow::refreshExplode</text>
<text text-anchor="middle" x="477" y="-119.5" font-family="Helvetica,sans-Serif" font-size="10.00">DirectionsFromTree</text>
</a>
</g>
</g>
<!-- Node1&#45;&gt;Node17 -->
<g id="edge32_Node000001_Node000017" class="edge">
<title>Node1&#45;&gt;Node17</title>
<g id="a_edge32_Node000001_Node000017"><a xlink:title=" ">
<path fill="none" stroke="#63b8ff" d="M928.43,-173.59C832.62,-163.78 657.68,-145.88 556.32,-135.51"/>
<polygon fill="#63b8ff" stroke="#63b8ff" points="928.28,-177.09 938.59,-174.63 928.99,-170.13 928.28,-177.09"/>
</a>
</g>
</g>
<!-- Node2&#45;&gt;Node2 -->
<g id="edge2_Node000002_Node000002" class="edge">
<title>Node2&#45;&gt;Node2</title>
<g id="a_edge2_Node000002_Node000002"><a xlink:title=" ">
<path fill="none" stroke="#63b8ff" d="M510.61,-419.1C506.01,-423.47 494.81,-426.5 477,-426.5 447,-426.5 435.75,-417.91 443.25,-408.78"/>
<polygon fill="#63b8ff" stroke="#63b8ff" points="514.11,-418.82 510.75,-408.78 507.11,-418.73 514.11,-418.82"/>
</a>
</g>
</g>
<!-- Node2&#45;&gt;Node3 -->
<g id="edge3_Node000002_Node000003" class="edge">
<title>Node2&#45;&gt;Node3</title>
<g id="a_edge3_Node000002_Node000003"><a xlink:title=" ">
<path fill="none" stroke="#63b8ff" d="M399.07,-376.27C383.2,-372.72 366.61,-369 351.11,-365.53"/>
<polygon fill="#63b8ff" stroke="#63b8ff" points="398.32,-379.69 408.85,-378.46 399.85,-372.86 398.32,-379.69"/>
</a>
</g>
</g>
<!-- Node4 -->
<g id="Node000004" class="node">
<title>Node4</title>
<g id="a_Node000004"><a xlink:href="classMainWindow.html#ac8d2ec00c54dd53fc814c23cb396d526" target="_top" xlink:title=" ">
<polygon fill="white" stroke="#666666" points="166,-295.5 2,-295.5 2,-265.5 166,-265.5 166,-295.5"/>
<text text-anchor="start" x="10" y="-283.5" font-family="Helvetica,sans-Serif" font-size="10.00">MainWindow::on_actionDelete</text>
<text text-anchor="middle" x="84" y="-272.5" font-family="Helvetica,sans-Serif" font-size="10.00">_Part_triggered</text>
</a>
</g>
</g>
<!-- Node3&#45;&gt;Node4 -->
<g id="edge4_Node000003_Node000004" class="edge">
<title>Node3&#45;&gt;Node4</title>
<g id="a_edge4_Node000003_Node000004"><a xlink:title=" ">
<path fill="none" stroke="#63b8ff" d="M230.11,-332.06C198.12,-320.7 157.61,-306.3 127.53,-295.61"/>
<polygon fill="#63b8ff" stroke="#63b8ff" points="229.14,-335.43 239.74,-335.48 231.49,-328.84 229.14,-335.43"/>
</a>
</g>
</g>
<!-- Node5 -->
<g id="Node000005" class="node">
<title>Node5</title>
<g id="a_Node000005"><a xlink:href="classMainWindow.html#a73b0020c4cde6b548e415d29234eeda6" target="_top" xlink:title=" ">
<polygon fill="white" stroke="#666666" points="166,-247.5 2,-247.5 2,-217.5 166,-217.5 166,-247.5"/>
<text text-anchor="start" x="10" y="-235.5" font-family="Helvetica,sans-Serif" font-size="10.00">MainWindow::on_actionImport</text>
<text text-anchor="middle" x="84" y="-224.5" font-family="Helvetica,sans-Serif" font-size="10.00">_Mesh_triggered</text>
</a>
</g>
</g>
<!-- Node3&#45;&gt;Node5 -->
<g id="edge5_Node000003_Node000005" class="edge">
<title>Node3&#45;&gt;Node5</title>
<g id="a_edge5_Node000003_Node000005"><a xlink:title=" ">
<path fill="none" stroke="#63b8ff" d="M248.47,-329.77C234.2,-320.33 217.72,-308.58 204,-296.5 186.05,-280.7 188.27,-269.2 168,-256.5 162.53,-253.08 156.56,-250.12 150.41,-247.58"/>
<polygon fill="#63b8ff" stroke="#63b8ff" points="246.74,-332.82 257.03,-335.33 250.55,-326.95 246.74,-332.82"/>
</a>
</g>
</g>
<!-- Node6 -->
<g id="Node000006" class="node">
<title>Node6</title>
<g id="a_Node000006"><a xlink:href="classMainWindow.html#a2d56d0e63146cbcc6337b4379e83651a" target="_top" xlink:title=" ">
<polygon fill="white" stroke="#666666" points="168,-365.5 0,-365.5 0,-335.5 168,-335.5 168,-365.5"/>
<text text-anchor="start" x="8" y="-353.5" font-family="Helvetica,sans-Serif" font-size="10.00">MainWindow::on_sliderExplode</text>
<text text-anchor="middle" x="84" y="-342.5" font-family="Helvetica,sans-Serif" font-size="10.00">_valueChanged</text>
</a>
</g>
</g>
<!-- Node3&#45;&gt;Node6 -->
<g id="edge6_Node000003_Node000006" class="edge">
<title>Node3&#45;&gt;Node6</title>
<g id="a_edge6_Node000003_Node000006"><a xlink:title=" ">
<path fill="none" stroke="#63b8ff" d="M196.99,-350.5C187.47,-350.5 177.77,-350.5 168.27,-350.5"/>
<polygon fill="#63b8ff" stroke="#63b8ff" points="197.24,-354 207.24,-350.5 197.24,-347 197.24,-354"/>
</a>
</g>
</g>
<!-- Node8 -->
<g id="Node000008" class="node">
<title>Node8</title>
<g id="a_Node000008"><a xlink:href="classModelPartList.html#ac687a2942c6e8b8b23df36c32a0deaeb" target="_top" xlink:title=" ">
<polygon fill="white" stroke="#666666" points="744,-56 595,-56 595,-37 744,-37 744,-56"/>
<text text-anchor="middle" x="669.5" y="-44" font-family="Helvetica,sans-Serif" font-size="10.00">ModelPartList::appendChild</text>
</a>
</g>
</g>
<!-- Node7&#45;&gt;Node8 -->
<g id="edge9_Node000007_Node000008" class="edge">
<title>Node7&#45;&gt;Node8</title>
<g id="a_edge9_Node000007_Node000008"><a xlink:title=" ">
<path fill="none" stroke="#63b8ff" d="M777.48,-46.5C766.61,-46.5 755.25,-46.5 744.16,-46.5"/>
<polygon fill="#63b8ff" stroke="#63b8ff" points="777.74,-50 787.74,-46.5 777.74,-43 777.74,-50"/>
</a>
</g>
</g>
<!-- Node9 -->
<g id="Node000009" class="node">
<title>Node9</title>
<g id="a_Node000009"><a xlink:href="classModelPartList.html#ab78590b83bc1a7a05636efd7f29a7862" target="_top" xlink:title=" ">
<polygon fill="white" stroke="#666666" points="747,-19 592,-19 592,0 747,0 747,-19"/>
<text text-anchor="middle" x="669.5" y="-7" font-family="Helvetica,sans-Serif" font-size="10.00">ModelPartList::ModelPartList</text>
</a>
</g>
</g>
<!-- Node7&#45;&gt;Node9 -->
<g id="edge11_Node000007_Node000009" class="edge">
<title>Node7&#45;&gt;Node9</title>
<g id="a_edge11_Node000007_Node000009"><a xlink:title=" ">
<path fill="none" stroke="#63b8ff" d="M787.99,-34.85C764.43,-29.77 737.15,-23.88 714.81,-19.06"/>
<polygon fill="#63b8ff" stroke="#63b8ff" points="787.32,-38.28 797.83,-36.97 788.8,-31.44 787.32,-38.28"/>
</a>
</g>
</g>
<!-- Node8&#45;&gt;Node5 -->
<g id="edge10_Node000008_Node000005" class="edge">
<title>Node8&#45;&gt;Node5</title>
<g id="a_edge10_Node000008_Node000005"><a xlink:title=" ">
<path fill="none" stroke="#63b8ff" d="M584.5,-45.62C530.3,-47.08 458.82,-52.81 398,-70.5 280.79,-104.59 156.18,-183.93 106.88,-217.29"/>
<polygon fill="#63b8ff" stroke="#63b8ff" points="584.84,-49.12 594.76,-45.39 584.68,-42.12 584.84,-49.12"/>
</a>
</g>
</g>
<!-- Node12&#45;&gt;Node1 -->
<g id="edge17_Node000012_Node000001" class="edge">
<title>Node12&#45;&gt;Node1</title>
<g id="a_edge17_Node000012_Node000001"><a xlink:title=" ">
<path fill="none" stroke="#63b8ff" d="M913.27,-197.57C931.19,-195.45 949.61,-192.77 964.51,-190.03"/>
<polygon fill="#63b8ff" stroke="#63b8ff" points="912.65,-194.12 903.1,-198.71 913.43,-201.07 912.65,-194.12"/>
</a>
</g>
</g>
<!-- Node12&#45;&gt;Node8 -->
<g id="edge15_Node000012_Node000008" class="edge">
<title>Node12&#45;&gt;Node8</title>
<g id="a_edge15_Node000012_Node000008"><a xlink:title=" ">
<path fill="none" stroke="#63b8ff" d="M823.51,-183C787.66,-151.02 709.73,-81.5 681.22,-56.07"/>
<polygon fill="#63b8ff" stroke="#63b8ff" points="821.48,-185.88 831.27,-189.93 826.14,-180.66 821.48,-185.88"/>
</a>
</g>
</g>
<!-- Node13 -->
<g id="Node000013" class="node">
<title>Node13</title>
<g id="a_Node000013"><a xlink:href="classModelPartList.html#ae0af4bc07e14140f65e1db531257c94d" target="_top" xlink:title=" ">
<polygon fill="white" stroke="#666666" points="746,-246 593,-246 593,-227 746,-227 746,-246"/>
<text text-anchor="middle" x="669.5" y="-234" font-family="Helvetica,sans-Serif" font-size="10.00">ModelPartList::columnCount</text>
</a>
</g>
</g>
<!-- Node12&#45;&gt;Node13 -->
<g id="edge16_Node000012_Node000013" class="edge">
<title>Node12&#45;&gt;Node13</title>
<g id="a_edge16_Node000012_Node000013"><a xlink:title=" ">
<path fill="none" stroke="#63b8ff" d="M787.99,-211.15C764.43,-216.23 737.15,-222.12 714.81,-226.94"/>
<polygon fill="#63b8ff" stroke="#63b8ff" points="788.8,-214.56 797.83,-209.03 787.32,-207.72 788.8,-214.56"/>
</a>
</g>
</g>
<!-- Node12&#45;&gt;Node14 -->
<g id="edge18_Node000012_Node000014" class="edge">
<title>Node12&#45;&gt;Node14</title>
<g id="a_edge18_Node000012_Node000014"><a xlink:title=" ">
<path fill="none" stroke="#63b8ff" d="M821.8,-215.03C803.42,-228.19 774.95,-246.21 747,-254.5 614.08,-293.92 450.42,-291.16 357.56,-285.13"/>
<polygon fill="#63b8ff" stroke="#63b8ff" points="823.99,-217.76 829.97,-209.02 819.84,-212.12 823.99,-217.76"/>
</a>
</g>
</g>
<!-- Node15 -->
<g id="Node000015" class="node">
<title>Node15</title>
<g id="a_Node000015"><a xlink:href="classModelPartList.html#a9e220715b6f1ba9d238a997454323634" target="_top" xlink:title=" ">
<polygon fill="white" stroke="#666666" points="737,-209 602,-209 602,-190 737,-190 737,-209"/>
<text text-anchor="middle" x="669.5" y="-197" font-family="Helvetica,sans-Serif" font-size="10.00">ModelPartList::rowCount</text>
</a>
</g>
</g>
<!-- Node12&#45;&gt;Node15 -->
<g id="edge21_Node000012_Node000015" class="edge">
<title>Node12&#45;&gt;Node15</title>
<g id="a_edge21_Node000012_Node000015"><a xlink:title=" ">
<path fill="none" stroke="#63b8ff" d="M772.81,-199.5C761.09,-199.5 748.94,-199.5 737.28,-199.5"/>
<polygon fill="#63b8ff" stroke="#63b8ff" points="772.98,-203 782.98,-199.5 772.98,-196 772.98,-203"/>
</a>
</g>
</g>
<!-- Node14&#45;&gt;Node4 -->
<g id="edge19_Node000014_Node000004" class="edge">
<title>Node14&#45;&gt;Node4</title>
<g id="a_edge19_Node000014_Node000004"><a xlink:title=" ">
<path fill="none" stroke="#63b8ff" d="M198.25,-279.35C187.62,-279.46 176.74,-279.57 166.15,-279.68"/>
<polygon fill="#63b8ff" stroke="#63b8ff" points="198.4,-282.85 208.36,-279.25 198.33,-275.85 198.4,-282.85"/>
</a>
</g>
</g>
<!-- Node14&#45;&gt;Node5 -->
<g id="edge20_Node000014_Node000005" class="edge">
<title>Node14&#45;&gt;Node5</title>
<g id="a_edge20_Node000014_Node000005"><a xlink:title=" ">
<path fill="none" stroke="#63b8ff" d="M231.21,-266.64C206.27,-260.82 175.97,-253.74 149.42,-247.54"/>
<polygon fill="#63b8ff" stroke="#63b8ff" points="230.65,-270.1 241.18,-268.97 232.24,-263.29 230.65,-270.1"/>
</a>
</g>
</g>
<!-- Node15&#45;&gt;Node2 -->
<g id="edge22_Node000015_Node000002" class="edge">
<title>Node15&#45;&gt;Node2</title>
<g id="a_edge22_Node000015_Node000002"><a xlink:title=" ">
<path fill="none" stroke="#63b8ff" d="M594.98,-214.8C593.95,-215.66 592.95,-216.55 592,-217.5 544.22,-264.85 600.73,-314.26 556,-364.5 551,-370.11 544.82,-374.64 538.14,-378.29"/>
<polygon fill="#63b8ff" stroke="#63b8ff" points="597.15,-217.56 603.48,-209.07 593.23,-211.75 597.15,-217.56"/>
</a>
</g>
</g>
<!-- Node15&#45;&gt;Node3 -->
<g id="edge23_Node000015_Node000003" class="edge">
<title>Node15&#45;&gt;Node3</title>
<g id="a_edge23_Node000015_Node000003"><a xlink:title=" ">
<path fill="none" stroke="#63b8ff" d="M609.08,-211.76C603.24,-213.48 597.46,-215.39 592,-217.5 574.93,-224.1 572.48,-229.53 556,-237.5 475.44,-276.46 377.91,-314.96 324.26,-335.42"/>
<polygon fill="#63b8ff" stroke="#63b8ff" points="610.21,-215.08 618.92,-209.05 608.35,-208.33 610.21,-215.08"/>
</a>
</g>
</g>
<!-- Node15&#45;&gt;Node11 -->
<g id="edge24_Node000015_Node000011" class="edge">
<title>Node15&#45;&gt;Node11</title>
<g id="a_edge24_Node000015_Node000011"><a xlink:title=" ">
<path fill="none" stroke="#63b8ff" d="M591.69,-197.08C578.84,-196.68 565.52,-196.26 552.73,-195.85"/>
<polygon fill="#63b8ff" stroke="#63b8ff" points="591.77,-200.58 601.87,-197.4 591.99,-193.59 591.77,-200.58"/>
</a>
</g>
</g>
<!-- Node15&#45;&gt;Node16 -->
<g id="edge25_Node000015_Node000016" class="edge">
<title>Node15&#45;&gt;Node16</title>
<g id="a_edge25_Node000015_Node000016"><a xlink:title=" ">
<path fill="none" stroke="#63b8ff" d="M606.31,-210.63C589.98,-213.23 572.37,-215.74 556,-217.5 490.87,-224.49 416.6,-228.3 362.14,-230.34"/>
<polygon fill="#63b8ff" stroke="#63b8ff" points="606.97,-214.07 616.28,-209.01 605.85,-207.16 606.97,-214.07"/>
</a>
</g>
</g>
<!-- Node15&#45;&gt;Node17 -->
<g id="edge28_Node000015_Node000017" class="edge">
<title>Node15&#45;&gt;Node17</title>
<g id="a_edge28_Node000015_Node000017"><a xlink:title=" ">
<path fill="none" stroke="#63b8ff" d="M633.62,-186.32C600.98,-173.98 552.25,-155.56 518.03,-142.63"/>
<polygon fill="#63b8ff" stroke="#63b8ff" points="632.61,-189.68 643.2,-189.94 635.09,-183.13 632.61,-189.68"/>
</a>
</g>
</g>
<!-- Node16&#45;&gt;Node4 -->
<g id="edge26_Node000016_Node000004" class="edge">
<title>Node16&#45;&gt;Node4</title>
<g id="a_edge26_Node000016_Node000004"><a xlink:title=" ">
<path fill="none" stroke="#63b8ff" d="M210.42,-249.94C189.49,-255.04 166.82,-260.57 146.57,-265.5"/>
<polygon fill="#63b8ff" stroke="#63b8ff" points="211.32,-253.32 220.21,-247.56 209.66,-246.52 211.32,-253.32"/>
</a>
</g>
</g>
<!-- Node16&#45;&gt;Node5 -->
<g id="edge27_Node000016_Node000005" class="edge">
<title>Node16&#45;&gt;Node5</title>
<g id="a_edge27_Node000016_Node000005"><a xlink:title=" ">
<path fill="none" stroke="#63b8ff" d="M193.64,-232.5C184.53,-232.5 175.31,-232.5 166.28,-232.5"/>
<polygon fill="#63b8ff" stroke="#63b8ff" points="193.86,-236 203.86,-232.5 193.86,-229 193.86,-236"/>
</a>
</g>
</g>
<!-- Node17&#45;&gt;Node16 -->
<g id="edge29_Node000017_Node000016" class="edge">
<title>Node17&#45;&gt;Node16</title>
<g id="a_edge29_Node000017_Node000016"><a xlink:title=" ">
<path fill="none" stroke="#63b8ff" d="M438.73,-147.46C425.81,-154.41 411.25,-162.27 398,-169.5 368.22,-185.74 334.2,-204.58 311.13,-217.4"/>
<polygon fill="#63b8ff" stroke="#63b8ff" points="440.65,-150.41 447.8,-142.59 437.33,-144.24 440.65,-150.41"/>
</a>
</g>
</g>
<!-- Node17&#45;&gt;Node17 -->
<g id="edge30_Node000017_Node000017" class="edge">
<title>Node17&#45;&gt;Node17</title>
<g id="a_edge30_Node000017_Node000017"><a xlink:title=" ">
<path fill="none" stroke="#63b8ff" d="M510.61,-153.1C506.01,-157.47 494.81,-160.5 477,-160.5 447,-160.5 435.75,-151.91 443.25,-142.78"/>
<polygon fill="#63b8ff" stroke="#63b8ff" points="514.11,-152.82 510.75,-142.78 507.11,-152.73 514.11,-152.82"/>
</a>
</g>
</g>
</g>
</svg>

<g id="navigator" transform="translate(0 0)" fill="#404254">
  <rect fill="#f2f5e9" fill-opacity="0.5" stroke="#606060" stroke-width=".5" x="0" y="0" width="60" height="60"/>
  <use id="zoomplus" xlink:href="#zoomPlus" x="17" y="9" onmousedown="handleZoom(evt,'in')"/>
  <use id="zoomminus" xlink:href="#zoomMin" x="42" y="9" onmousedown="handleZoom(evt,'out')"/>
  <use id="reset" xlink:href="#resetDef" x="30" y="36" onmousedown="handleReset()"/>
   <use id="arrowup" xlink:href="#arrowUp" x="0" y="0" onmousedown="handlePan(0,-1)"/>
  <use id="arrowright" xlink:href="#arrowRight" x="0" y="0" onmousedown="handlePan(1,0)"/>
  <use id="arrowdown" xlink:href="#arrowDown" x="0" y="0" onmousedown="handlePan(0,1)"/>
  <use id="arrowleft" xlink:href="#arrowLeft" x="0" y="0" onmousedown="handlePan(-1,0)"/>
</g>
<svg viewBox="0 0 15 15" width="100%" height="30px" preserveAspectRatio="xMaxYMin meet">
 <g id="arrow_out" transform="scale(0.3 0.3)">
  <a xlink:href="classModelPartList_a225589f4c5c4117bc8a23016618b2c96_icgraph_org.svg" target="_base">
   <rect id="button" ry="5" rx="5" y="6" x="6" height="38" width="38"
        fill="#f2f5e9" fill-opacity="0.5" stroke="#606060" stroke-width="1.0"/>
   <path id="arrow"
     d="M 11.500037,31.436501 C 11.940474,20.09759 22.043105,11.32322 32.158766,21.979434 L 37.068811,17.246167 C 37.068811,17.246167 37.088388,32 37.088388,32 L 22.160133,31.978069 C 22.160133,31.978069 26.997745,27.140456 26.997745,27.140456 C 18.528582,18.264221 13.291696,25.230495 11.500037,31.436501 z"
     style="fill:#404040;"/>
  </a>
 </g>
</svg>

<style type='text/css'>
<![CDATA[
[data-mouse-over-selected='false'] { opacity: 0.7; }
[data-mouse-over-selected='true']  { opacity: 1.0; }
]]>
</style>
<script type="application/ecmascript"><![CDATA[
document.addEventListener('DOMContentLoaded', (event) => {
  highlightEdges();
  highlightAdjacentNodes();
});
]]></script>
</svg>
