<?xml version="1.0" encoding="UTF-8" standalone="no"?>
<!DOCTYPE svg PUBLIC "-//W3C//DTD SVG 1.1//EN"
 "http://www.w3.org/Graphics/SVG/1.1/DTD/svg11.dtd">
<!-- Generated by graphviz version 2.43.0 (0)
 -->
<!-- Title: MainWindow::on_buttonDiffuseColour_clicked Pages: 1 -->
<svg width="392pt" height="113pt"
 viewBox="0.00 0.00 392.00 112.50" xmlns="http://www.w3.org/2000/svg" xmlns:xlink="http://www.w3.org/1999/xlink">
<g id="graph0" class="graph" transform="scale(1 1) rotate(0) translate(4 108.5)">
<title>MainWindow::on_buttonDiffuseColour_clicked</title>
<!-- Node1 -->
<g id="Node000001" class="node">
<title>Node1</title>
<g id="a_Node000001"><a xlink:title=" ">
<polygon fill="#999999" stroke="#666666" points="168,-73 0,-73 0,-43 168,-43 168,-73"/>
<text text-anchor="start" x="8" y="-61" font-family="Helvetica,sans-Serif" font-size="10.00">MainWindow::on_buttonDiffuse</text>
<text text-anchor="middle" x="84" y="-50" font-family="Helvetica,sans-Serif" font-size="10.00">Colour_clicked</text>
</a>
</g>
</g>
<!-- Node2 -->
<g id="Node000002" class="node">
<title>Node2</title>
<g id="a_Node000002"><a xlink:href="classVRRenderThread.html#a0e5e7126b3e42c9d98fc14d1cd983fdf" target="_top" xlink:title=" ">
<polygon fill="white" stroke="#666666" points="384,-104.5 204,-104.5 204,-85.5 384,-85.5 384,-104.5"/>
<text text-anchor="middle" x="294" y="-92.5" font-family="Helvetica,sans-Serif" font-size="10.00">VRRenderThread::issueCommand</text>
</a>
</g>
</g>
<!-- Node1&#45;&gt;Node2 -->
<g id="edge1_Node000001_Node000002" class="edge">
<title>Node1&#45;&gt;Node2</title>
<g id="a_edge1_Node000001_Node000002"><a xlink:title=" ">
<path fill="none" stroke="#63b8ff" d="M168.1,-72.78C188.53,-76.42 210.08,-80.25 229.42,-83.69"/>
<polygon fill="#63b8ff" stroke="#63b8ff" points="228.86,-87.15 239.32,-85.45 230.09,-80.25 228.86,-87.15"/>
</a>
</g>
</g>
<!-- Node3 -->
<g id="Node000003" class="node">
<title>Node3</title>
<g id="a_Node000003"><a xlink:href="classMainWindow.html#a15a4966f9e4285ab2895a35f94878175" target="_top" xlink:title=" ">
<polygon fill="white" stroke="#666666" points="369,-67.5 219,-67.5 219,-48.5 369,-48.5 369,-67.5"/>
<text text-anchor="middle" x="294" y="-55.5" font-family="Helvetica,sans-Serif" font-size="10.00">MainWindow::selectedParts</text>
</a>
</g>
</g>
<!-- Node1&#45;&gt;Node3 -->
<g id="edge2_Node000001_Node000003" class="edge">
<title>Node1&#45;&gt;Node3</title>
<g id="a_edge2_Node000001_Node000003"><a xlink:title=" ">
<path fill="none" stroke="#63b8ff" d="M168.1,-58C181.45,-58 195.27,-58 208.65,-58"/>
<polygon fill="#63b8ff" stroke="#63b8ff" points="208.77,-61.5 218.77,-58 208.77,-54.5 208.77,-61.5"/>
</a>
</g>
</g>
<!-- Node4 -->
<g id="Node000004" class="node">
<title>Node4</title>
<g id="a_Node000004"><a xlink:href="classMainWindow.html#a86443ea744fda3e9bad328c2fd1c3d6b" target="_top" xlink:title=" ">
<polygon fill="white" stroke="#666666" points="369,-30 219,-30 219,0 369,0 369,-30"/>
<text text-anchor="start" x="227" y="-18" font-family="Helvetica,sans-Serif" font-size="10.00">MainWindow::statusUpdate</text>
<text text-anchor="middle" x="294" y="-7" font-family="Helvetica,sans-Serif" font-size="10.00">Message</text>
</a>
</g>
</g>
<!-- Node1&#45;&gt;Node4 -->
<g id="edge3_Node000001_Node000004" class="edge">
<title>Node1&#45;&gt;Node4</title>
<g id="a_edge3_Node000001_Node000004"><a xlink:title=" ">
<path fill="none" stroke="#63b8ff" d="M157.75,-42.96C174.69,-39.46 192.85,-35.7 210.19,-32.12"/>
<polygon fill="#63b8ff" stroke="#63b8ff" points="211.21,-35.48 220.29,-30.03 209.79,-28.63 211.21,-35.48"/>
</a>
</g>
</g>
</g>
</svg>
