<?xml version="1.0" encoding="UTF-8" standalone="no"?>
<!DOCTYPE svg PUBLIC "-//W3C//DTD SVG 1.1//EN"
 "http://www.w3.org/Graphics/SVG/1.1/DTD/svg11.dtd">
<!-- Generated by graphviz version 2.43.0 (0)
 -->
<!-- Title: MainWindow::refreshExplodeDirectionsFromTree Pages: 1 -->
<svg width="675pt" height="137pt"
 viewBox="0.00 0.00 675.00 136.50" xmlns="http://www.w3.org/2000/svg" xmlns:xlink="http://www.w3.org/1999/xlink">
<g id="graph0" class="graph" transform="scale(1 1) rotate(0) translate(4 132.5)">
<title>MainWindow::refreshExplodeDirectionsFromTree</title>
<!-- Node1 -->
<g id="Node000001" class="node">
<title>Node1</title>
<g id="a_Node000001"><a xlink:title=" ">
<polygon fill="#999999" stroke="#666666" points="158,-69.5 0,-69.5 0,-39.5 158,-39.5 158,-69.5"/>
<text text-anchor="start" x="8" y="-57.5" font-family="Helvetica,sans-Serif" font-size="10.00">MainWindow::refreshExplode</text>
<text text-anchor="middle" x="79" y="-46.5" font-family="Helvetica,sans-Serif" font-size="10.00">DirectionsFromTree</text>
</a>
</g>
</g>
<!-- Node1&#45;&gt;Node1 -->
<g id="edge10_Node000001_Node000001" class="edge">
<title>Node1&#45;&gt;Node1</title>
<g id="a_edge10_Node000001_Node000001"><a xlink:title=" ">
<path fill="none" stroke="#63b8ff" d="M45.6,-69.78C38.18,-78.91 49.31,-87.5 79,-87.5 96.63,-87.5 107.71,-84.47 112.26,-80.1"/>
<polygon fill="#63b8ff" stroke="#63b8ff" points="115.76,-79.82 112.4,-69.78 108.76,-79.73 115.76,-79.82"/>
</a>
</g>
</g>
<!-- Node2 -->
<g id="Node000002" class="node">
<title>Node2</title>
<g id="a_Node000002"><a xlink:href="classModelPart.html#a738fcaa52819208a662192a51cba66d7" target="_top" xlink:title=" ">
<polygon fill="white" stroke="#666666" points="347,-128.5 194,-128.5 194,-98.5 347,-98.5 347,-128.5"/>
<text text-anchor="start" x="202" y="-116.5" font-family="Helvetica,sans-Serif" font-size="10.00">ModelPart::computeExplode</text>
<text text-anchor="middle" x="270.5" y="-105.5" font-family="Helvetica,sans-Serif" font-size="10.00">Direction</text>
</a>
</g>
</g>
<!-- Node1&#45;&gt;Node2 -->
<g id="edge1_Node000001_Node000002" class="edge">
<title>Node1&#45;&gt;Node2</title>
<g id="a_edge1_Node000001_Node000002"><a xlink:title=" ">
<path fill="none" stroke="#63b8ff" d="M128.31,-69.54C153.7,-77.45 185.01,-87.19 211.68,-95.5"/>
<polygon fill="#63b8ff" stroke="#63b8ff" points="210.69,-98.86 221.28,-98.49 212.77,-92.17 210.69,-98.86"/>
</a>
</g>
</g>
<!-- Node4 -->
<g id="Node000004" class="node">
<title>Node4</title>
<g id="a_Node000004"><a xlink:href="classModelPartList.html#a225589f4c5c4117bc8a23016618b2c96" target="_top" xlink:title=" ">
<polygon fill="white" stroke="#666666" points="328.5,-64 212.5,-64 212.5,-45 328.5,-45 328.5,-64"/>
<text text-anchor="middle" x="270.5" y="-52" font-family="Helvetica,sans-Serif" font-size="10.00">ModelPartList::index</text>
</a>
</g>
</g>
<!-- Node1&#45;&gt;Node4 -->
<g id="edge3_Node000001_Node000004" class="edge">
<title>Node1&#45;&gt;Node4</title>
<g id="a_edge3_Node000001_Node000004"><a xlink:title=" ">
<path fill="none" stroke="#63b8ff" d="M158.17,-54.5C172.77,-54.5 187.92,-54.5 202.16,-54.5"/>
<polygon fill="#63b8ff" stroke="#63b8ff" points="202.35,-58 212.35,-54.5 202.35,-51 202.35,-58"/>
</a>
</g>
</g>
<!-- Node8 -->
<g id="Node000008" class="node">
<title>Node8</title>
<g id="a_Node000008"><a xlink:href="classModelPartList.html#a9e220715b6f1ba9d238a997454323634" target="_top" xlink:title=" ">
<polygon fill="white" stroke="#666666" points="338,-27 203,-27 203,-8 338,-8 338,-27"/>
<text text-anchor="middle" x="270.5" y="-15" font-family="Helvetica,sans-Serif" font-size="10.00">ModelPartList::rowCount</text>
</a>
</g>
</g>
<!-- Node1&#45;&gt;Node8 -->
<g id="edge11_Node000001_Node000008" class="edge">
<title>Node1&#45;&gt;Node8</title>
<g id="a_edge11_Node000001_Node000008"><a xlink:title=" ">
<path fill="none" stroke="#63b8ff" d="M157.08,-39.45C174.9,-35.97 193.58,-32.32 210.49,-29.02"/>
<polygon fill="#63b8ff" stroke="#63b8ff" points="211.62,-32.37 220.76,-27.02 210.28,-25.5 211.62,-32.37"/>
</a>
</g>
</g>
<!-- Node3 -->
<g id="Node000003" class="node">
<title>Node3</title>
<g id="a_Node000003"><a xlink:href="classModelPart.html#a05bc0dd06a3658d9a2c46fa717dec910" target="_top" xlink:title=" ">
<polygon fill="white" stroke="#666666" points="649,-93 560,-93 560,-74 649,-74 649,-93"/>
<text text-anchor="middle" x="604.5" y="-81" font-family="Helvetica,sans-Serif" font-size="10.00">ModelPart::row</text>
</a>
</g>
</g>
<!-- Node2&#45;&gt;Node3 -->
<g id="edge2_Node000002_Node000003" class="edge">
<title>Node2&#45;&gt;Node3</title>
<g id="a_edge2_Node000002_Node000003"><a xlink:title=" ">
<path fill="none" stroke="#63b8ff" d="M347.24,-112.74C393.29,-111.58 453.19,-108.85 506,-102.5 520.89,-100.71 536.91,-97.94 551.57,-95.07"/>
<polygon fill="#63b8ff" stroke="#63b8ff" points="552.37,-98.48 561.48,-93.08 550.99,-91.62 552.37,-98.48"/>
</a>
</g>
</g>
<!-- Node5 -->
<g id="Node000005" class="node">
<title>Node5</title>
<g id="a_Node000005"><a xlink:href="classModelPart.html#af32381b69415f0aa6bdfd84435f842cc" target="_top" xlink:title=" ">
<polygon fill="white" stroke="#666666" points="492,-93 397,-93 397,-74 492,-74 492,-93"/>
<text text-anchor="middle" x="444.5" y="-81" font-family="Helvetica,sans-Serif" font-size="10.00">ModelPart::child</text>
</a>
</g>
</g>
<!-- Node4&#45;&gt;Node5 -->
<g id="edge4_Node000004_Node000005" class="edge">
<title>Node4&#45;&gt;Node5</title>
<g id="a_edge4_Node000004_Node000005"><a xlink:title=" ">
<path fill="none" stroke="#63b8ff" d="M328.3,-64.08C347.12,-67.25 368.07,-70.78 386.89,-73.95"/>
<polygon fill="#63b8ff" stroke="#63b8ff" points="386.36,-77.41 396.8,-75.63 387.52,-70.51 386.36,-77.41"/>
</a>
</g>
</g>
<!-- Node6 -->
<g id="Node000006" class="node">
<title>Node6</title>
<g id="a_Node000006"><a xlink:href="classModelPartList.html#a95162d13f90586be9b645f02cc4694f4" target="_top" xlink:title=" ">
<polygon fill="white" stroke="#666666" points="504.5,-56 384.5,-56 384.5,-37 504.5,-37 504.5,-56"/>
<text text-anchor="middle" x="444.5" y="-44" font-family="Helvetica,sans-Serif" font-size="10.00">ModelPartList::parent</text>
</a>
</g>
</g>
<!-- Node4&#45;&gt;Node6 -->
<g id="edge6_Node000004_Node000006" class="edge">
<title>Node4&#45;&gt;Node6</title>
<g id="a_edge6_Node000004_Node000006"><a xlink:title=" ">
<path fill="none" stroke="#63b8ff" d="M328.77,-45.43C343.3,-44.39 359.07,-43.58 374.13,-43.09"/>
<polygon fill="#63b8ff" stroke="#63b8ff" points="374.52,-46.58 384.42,-42.8 374.32,-39.58 374.52,-46.58"/>
</a>
</g>
</g>
<!-- Node5&#45;&gt;Node3 -->
<g id="edge5_Node000005_Node000003" class="edge">
<title>Node5&#45;&gt;Node3</title>
<g id="a_edge5_Node000005_Node000003"><a xlink:title=" ">
<path fill="none" stroke="#63b8ff" d="M492.05,-83.5C510.18,-83.5 531.06,-83.5 549.82,-83.5"/>
<polygon fill="#63b8ff" stroke="#63b8ff" points="549.99,-87 559.99,-83.5 549.99,-80 549.99,-87"/>
</a>
</g>
</g>
<!-- Node6&#45;&gt;Node3 -->
<g id="edge9_Node000006_Node000003" class="edge">
<title>Node6&#45;&gt;Node3</title>
<g id="a_edge9_Node000006_Node000003"><a xlink:title=" ">
<path fill="none" stroke="#63b8ff" d="M486.19,-56.03C506.47,-60.78 531.21,-66.57 552.72,-71.61"/>
<polygon fill="#63b8ff" stroke="#63b8ff" points="552.14,-75.07 562.67,-73.94 553.74,-68.25 552.14,-75.07"/>
</a>
</g>
</g>
<!-- Node6&#45;&gt;Node4 -->
<g id="edge7_Node000006_Node000004" class="edge">
<title>Node6&#45;&gt;Node4</title>
<g id="a_edge7_Node000006_Node000004"><a xlink:title=" ">
<path fill="none" stroke="#63b8ff" d="M384.42,-55.7C369.79,-56.72 354,-57.5 339.01,-57.97"/>
<polygon fill="#63b8ff" stroke="#63b8ff" points="338.68,-54.48 328.77,-58.24 338.86,-61.47 338.68,-54.48"/>
</a>
</g>
</g>
<!-- Node7 -->
<g id="Node000007" class="node">
<title>Node7</title>
<g id="a_Node000007"><a xlink:href="classModelPart.html#a9be3859d2a298e88d850a2480b7639f7" target="_top" xlink:title=" ">
<polygon fill="white" stroke="#666666" points="667,-56 542,-56 542,-37 667,-37 667,-56"/>
<text text-anchor="middle" x="604.5" y="-44" font-family="Helvetica,sans-Serif" font-size="10.00">ModelPart::parentItem</text>
</a>
</g>
</g>
<!-- Node6&#45;&gt;Node7 -->
<g id="edge8_Node000006_Node000007" class="edge">
<title>Node6&#45;&gt;Node7</title>
<g id="a_edge8_Node000006_Node000007"><a xlink:title=" ">
<path fill="none" stroke="#63b8ff" d="M504.78,-46.5C513.56,-46.5 522.69,-46.5 531.69,-46.5"/>
<polygon fill="#63b8ff" stroke="#63b8ff" points="531.77,-50 541.77,-46.5 531.77,-43 531.77,-50"/>
</a>
</g>
</g>
<!-- Node8&#45;&gt;Node6 -->
<g id="edge13_Node000008_Node000006" class="edge">
<title>Node8&#45;&gt;Node6</title>
<g id="a_edge13_Node000008_Node000006"><a xlink:title=" ">
<path fill="none" stroke="#63b8ff" d="M328.3,-27.08C343.94,-29.71 361.04,-32.6 377.16,-35.32"/>
<polygon fill="#63b8ff" stroke="#63b8ff" points="376.61,-38.77 387.06,-36.98 377.78,-31.87 376.61,-38.77"/>
</a>
</g>
</g>
<!-- Node9 -->
<g id="Node000009" class="node">
<title>Node9</title>
<g id="a_Node000009"><a xlink:href="classModelPart.html#aea4bb035b2b3827c0abf677fb9dc68ce" target="_top" xlink:title=" ">
<polygon fill="white" stroke="#666666" points="506,-19 383,-19 383,0 506,0 506,-19"/>
<text text-anchor="middle" x="444.5" y="-7" font-family="Helvetica,sans-Serif" font-size="10.00">ModelPart::childCount</text>
</a>
</g>
</g>
<!-- Node8&#45;&gt;Node9 -->
<g id="edge12_Node000008_Node000009" class="edge">
<title>Node8&#45;&gt;Node9</title>
<g id="a_edge12_Node000008_Node000009"><a xlink:title=" ">
<path fill="none" stroke="#63b8ff" d="M338.49,-14.38C349.69,-13.86 361.33,-13.32 372.62,-12.8"/>
<polygon fill="#63b8ff" stroke="#63b8ff" points="373.03,-16.28 382.86,-12.32 372.71,-9.29 373.03,-16.28"/>
</a>
</g>
</g>
</g>
</svg>
