<?xml version="1.0" encoding="UTF-8" standalone="no"?>
<!DOCTYPE svg PUBLIC "-//W3C//DTD SVG 1.1//EN"
 "http://www.w3.org/Graphics/SVG/1.1/DTD/svg11.dtd">
<!-- Generated by graphviz version 2.43.0 (0)
 -->
<!-- Title: ModelPart::childCount Pages: 1 -->
<!--zoomable 486 -->

<svg id="main" version="1.1" xmlns="http://www.w3.org/2000/svg" xmlns:xlink="http://www.w3.org/1999/xlink" xml:space="preserve" onload="init(evt)">
<style type="text/css"><![CDATA[
.node, .edge {opacity: 0.7;}
.node.selected, .edge.selected {opacity: 1;}
.edge:hover path { stroke: red; }
.edge:hover polygon { stroke: red; fill: red; }
]]></style>

<defs>
  <circle id="rim" cx="0" cy="0" r="7"/>
  <circle id="rim2" cx="0" cy="0" r="3.5"/>
  <g id="zoomPlus">
    <use xlink:href="#rim" fill="#404040"><set attributeName="fill" to="#808080" begin="zoomplus.mouseover" end="zoomplus.mouseout"/></use>
    <path d="M-4,0h8M0,-4v8" fill="none" stroke="white" stroke-width="1.5" pointer-events="none"/>
  </g>
  <g id="zoomMin">
    <use xlink:href="#rim" fill="#404040"><set attributeName="fill" to="#808080" begin="zoomminus.mouseover" end="zoomminus.mouseout"/></use>
    <path d="M-4,0h8" fill="none" stroke="white" stroke-width="1.5" pointer-events="none"/>
  </g>
  <g id="arrowUp" transform="translate(30 24)">
    <use xlink:href="#rim"/>
    <path pointer-events="none" fill="none" stroke="white" stroke-width="1.5" d="M0,-3.0v7 M-2.5,-0.5L0,-3.0L2.5,-0.5"/>
  </g>
  <g id="arrowRight" transform="rotate(90) translate(36 -43)">
    <use xlink:href="#rim"/>
    <path pointer-events="none" fill="none" stroke="white" stroke-width="1.5" d="M0,-3.0v7 M-2.5,-0.5L0,-3.0L2.5,-0.5"/>
  </g>
  <g id="arrowDown" transform="rotate(180) translate(-30 -48)">
    <use xlink:href="#rim"/>
    <path pointer-events="none" fill="none" stroke="white" stroke-width="1.5" d="M0,-3.0v7 M-2.5,-0.5L0,-3.0L2.5,-0.5"/>
  </g>
  <g id="arrowLeft" transform="rotate(270) translate(-36 17)">
    <use xlink:href="#rim"/>
    <path pointer-events="none" fill="none" stroke="white" stroke-width="1.5" d="M0,-3.0v7 M-2.5,-0.5L0,-3.0L2.5,-0.5"/>
  </g>
  <g id="resetDef">
    <use xlink:href="#rim2" fill="#404040"><set attributeName="fill" to="#808080" begin="reset.mouseover" end="reset.mouseout"/></use>
  </g>
</defs>
<script type="application/ecmascript">
var viewWidth = 1587;
var viewHeight = 486;
var sectionId = 'dynsection-7';
</script>
<script type="application/ecmascript" xlink:href="svg.min.js"/>
<svg id="graph" class="graph">
<g id="viewport">
<title>ModelPart::childCount</title>
<!-- Node1 -->
<g id="Node000001" class="node">
<title>Node1</title>
<g id="a_Node000001"><a xlink:title=" ">
<polygon fill="#999999" stroke="#666666" points="1579,-134.5 1456,-134.5 1456,-115.5 1579,-115.5 1579,-134.5"/>
<text text-anchor="middle" x="1517.5" y="-122.5" font-family="Helvetica,sans-Serif" font-size="10.00">ModelPart::childCount</text>
</a>
</g>
</g>
<!-- Node2 -->
<g id="Node000002" class="node">
<title>Node2</title>
<g id="a_Node000002"><a xlink:href="classModelPartList.html#ac687a2942c6e8b8b23df36c32a0deaeb" target="_top" xlink:title=" ">
<polygon fill="white" stroke="#666666" points="977,-452.5 828,-452.5 828,-433.5 977,-433.5 977,-452.5"/>
<text text-anchor="middle" x="902.5" y="-440.5" font-family="Helvetica,sans-Serif" font-size="10.00">ModelPartList::appendChild</text>
</a>
</g>
</g>
<!-- Node1&#45;&gt;Node2 -->
<g id="edge1_Node000001_Node000002" class="edge">
<title>Node1&#45;&gt;Node2</title>
<g id="a_edge1_Node000001_Node000002"><a xlink:title=" ">
<path fill="none" stroke="#63b8ff" d="M1511.78,-144.41C1501.21,-184.52 1472.39,-277.83 1420,-338 1350.61,-417.7 1320.5,-435.62 1219,-465 1119.05,-493.93 994.2,-467.98 936.07,-452.54"/>
<polygon fill="#63b8ff" stroke="#63b8ff" points="1515.2,-145.13 1514.28,-134.57 1508.42,-143.4 1515.2,-145.13"/>
</a>
</g>
</g>
<!-- Node5 -->
<g id="Node000005" class="node">
<title>Node5</title>
<g id="a_Node000005"><a xlink:href="classModelPartList.html#ab1d1158c9fcdb4b7d1854ec618ff18d4" target="_top" xlink:title=" ">
<polygon fill="white" stroke="#666666" points="1402.5,-153.5 1272.5,-153.5 1272.5,-134.5 1402.5,-134.5 1402.5,-153.5"/>
<text text-anchor="middle" x="1337.5" y="-141.5" font-family="Helvetica,sans-Serif" font-size="10.00">ModelPartList::findByID</text>
</a>
</g>
</g>
<!-- Node1&#45;&gt;Node5 -->
<g id="edge4_Node000001_Node000005" class="edge">
<title>Node1&#45;&gt;Node5</title>
<g id="a_edge4_Node000001_Node000005"><a xlink:title=" ">
<path fill="none" stroke="#63b8ff" d="M1445.55,-132.57C1431.38,-134.09 1416.56,-135.67 1402.63,-137.15"/>
<polygon fill="#63b8ff" stroke="#63b8ff" points="1446.17,-136.03 1455.74,-131.49 1445.43,-129.07 1446.17,-136.03"/>
</a>
</g>
</g>
<!-- Node12 -->
<g id="Node000012" class="node">
<title>Node12</title>
<g id="a_Node000012"><a xlink:href="classMainWindow.html#a597961838262c9f16a02e6b37d184d5e" target="_top" xlink:title=" ">
<polygon fill="white" stroke="#666666" points="1207,-59 1049,-59 1049,-29 1207,-29 1207,-59"/>
<text text-anchor="start" x="1057" y="-47" font-family="Helvetica,sans-Serif" font-size="10.00">MainWindow::on_actionEnter</text>
<text text-anchor="middle" x="1128" y="-36" font-family="Helvetica,sans-Serif" font-size="10.00">_VR_triggered</text>
</a>
</g>
</g>
<!-- Node1&#45;&gt;Node12 -->
<g id="edge25_Node000001_Node000012" class="edge">
<title>Node1&#45;&gt;Node12</title>
<g id="a_edge25_Node000001_Node000012"><a xlink:title=" ">
<path fill="none" stroke="#63b8ff" d="M1445.74,-119.1C1392.63,-113.62 1318.45,-103.72 1255,-87 1238.4,-82.63 1235.18,-78.75 1219,-73 1205.7,-68.27 1191.17,-63.45 1177.75,-59.13"/>
<polygon fill="#63b8ff" stroke="#63b8ff" points="1445.44,-122.58 1455.74,-120.1 1446.14,-115.62 1445.44,-122.58"/>
</a>
</g>
</g>
<!-- Node20 -->
<g id="Node000020" class="node">
<title>Node20</title>
<g id="a_Node000020"><a xlink:href="classMainWindow.html#a666ed04c2b87d813bd698a2a7199bb2b" target="_top" xlink:title=" ">
<polygon fill="white" stroke="#666666" points="1420,-78 1255,-78 1255,-48 1420,-48 1420,-78"/>
<text text-anchor="start" x="1263" y="-66" font-family="Helvetica,sans-Serif" font-size="10.00">MainWindow::on_actionEnable</text>
<text text-anchor="middle" x="1337.5" y="-55" font-family="Helvetica,sans-Serif" font-size="10.00">_Passthrough_triggered</text>
</a>
</g>
</g>
<!-- Node1&#45;&gt;Node20 -->
<g id="edge24_Node000001_Node000020" class="edge">
<title>Node1&#45;&gt;Node20</title>
<g id="a_edge24_Node000001_Node000020"><a xlink:title=" ">
<path fill="none" stroke="#63b8ff" d="M1479.52,-112.12C1451.1,-102.22 1411.8,-88.53 1381.9,-78.12"/>
<polygon fill="#63b8ff" stroke="#63b8ff" points="1478.48,-115.46 1489.08,-115.45 1480.79,-108.85 1478.48,-115.46"/>
</a>
</g>
</g>
<!-- Node21 -->
<g id="Node000021" class="node">
<title>Node21</title>
<g id="a_Node000021"><a xlink:href="classMainWindow.html#a0441e8dc0d171ff074c1b0d6e27433f0" target="_top" xlink:title=" ">
<polygon fill="white" stroke="#666666" points="1416,-30 1259,-30 1259,0 1416,0 1416,-30"/>
<text text-anchor="start" x="1267" y="-18" font-family="Helvetica,sans-Serif" font-size="10.00">MainWindow::on_buttonSync</text>
<text text-anchor="middle" x="1337.5" y="-7" font-family="Helvetica,sans-Serif" font-size="10.00">VR_clicked</text>
</a>
</g>
</g>
<!-- Node1&#45;&gt;Node21 -->
<g id="edge26_Node000001_Node000021" class="edge">
<title>Node1&#45;&gt;Node21</title>
<g id="a_edge26_Node000001_Node000021"><a xlink:title=" ">
<path fill="none" stroke="#63b8ff" d="M1501.81,-107.99C1484.22,-88.63 1452.96,-57.31 1420,-39 1413.94,-35.63 1407.36,-32.69 1400.65,-30.14"/>
<polygon fill="#63b8ff" stroke="#63b8ff" points="1499.22,-110.34 1508.48,-115.49 1504.45,-105.69 1499.22,-110.34"/>
</a>
</g>
</g>
<!-- Node22 -->
<g id="Node000022" class="node">
<title>Node22</title>
<g id="a_Node000022"><a xlink:href="classModelPartList.html#a9e220715b6f1ba9d238a997454323634" target="_top" xlink:title=" ">
<polygon fill="white" stroke="#666666" points="1405,-328.5 1270,-328.5 1270,-309.5 1405,-309.5 1405,-328.5"/>
<text text-anchor="middle" x="1337.5" y="-316.5" font-family="Helvetica,sans-Serif" font-size="10.00">ModelPartList::rowCount</text>
</a>
</g>
</g>
<!-- Node1&#45;&gt;Node22 -->
<g id="edge27_Node000001_Node000022" class="edge">
<title>Node1&#45;&gt;Node22</title>
<g id="a_edge27_Node000001_Node000022"><a xlink:title=" ">
<path fill="none" stroke="#63b8ff" d="M1500.76,-142.16C1464.45,-181.73 1375.75,-278.4 1347.38,-309.32"/>
<polygon fill="#63b8ff" stroke="#63b8ff" points="1503.49,-144.36 1507.67,-134.62 1498.33,-139.62 1503.49,-144.36"/>
</a>
</g>
</g>
<!-- Node3 -->
<g id="Node000003" class="node">
<title>Node3</title>
<g id="a_Node000003"><a xlink:href="classMainWindow.html#af809c2679376142b241371e36aedc279" target="_top" xlink:title=" ">
<polygon fill="white" stroke="#666666" points="751,-452.5 617,-452.5 617,-433.5 751,-433.5 751,-452.5"/>
<text text-anchor="middle" x="684" y="-440.5" font-family="Helvetica,sans-Serif" font-size="10.00">MainWindow::dropEvent</text>
</a>
</g>
</g>
<!-- Node2&#45;&gt;Node3 -->
<g id="edge2_Node000002_Node000003" class="edge">
<title>Node2&#45;&gt;Node3</title>
<g id="a_edge2_Node000002_Node000003"><a xlink:title=" ">
<path fill="none" stroke="#63b8ff" d="M817.86,-443C795.74,-443 772.18,-443 751.13,-443"/>
<polygon fill="#63b8ff" stroke="#63b8ff" points="817.9,-446.5 827.9,-443 817.9,-439.5 817.9,-446.5"/>
</a>
</g>
</g>
<!-- Node4 -->
<g id="Node000004" class="node">
<title>Node4</title>
<g id="a_Node000004"><a xlink:href="classMainWindow.html#a73b0020c4cde6b548e415d29234eeda6" target="_top" xlink:title=" ">
<polygon fill="white" stroke="#666666" points="766,-415 602,-415 602,-385 766,-385 766,-415"/>
<text text-anchor="start" x="610" y="-403" font-family="Helvetica,sans-Serif" font-size="10.00">MainWindow::on_actionImport</text>
<text text-anchor="middle" x="684" y="-392" font-family="Helvetica,sans-Serif" font-size="10.00">_Mesh_triggered</text>
</a>
</g>
</g>
<!-- Node2&#45;&gt;Node4 -->
<g id="edge3_Node000002_Node000004" class="edge">
<title>Node2&#45;&gt;Node4</title>
<g id="a_edge3_Node000002_Node000004"><a xlink:title=" ">
<path fill="none" stroke="#63b8ff" d="M842.39,-431.55C829.72,-429.07 816.41,-426.46 804,-424 789.53,-421.13 774.07,-418.04 759.26,-415.05"/>
<polygon fill="#63b8ff" stroke="#63b8ff" points="841.9,-435.02 852.39,-433.49 843.24,-428.15 841.9,-435.02"/>
</a>
</g>
</g>
<!-- Node6 -->
<g id="Node000006" class="node">
<title>Node6</title>
<g id="a_Node000006"><a xlink:href="classVRRenderThread.html#afb8797810162611a3b8cb465625c69b9" target="_top" xlink:title=" ">
<polygon fill="white" stroke="#666666" points="1219,-172.5 1037,-172.5 1037,-153.5 1219,-153.5 1219,-172.5"/>
<text text-anchor="middle" x="1128" y="-160.5" font-family="Helvetica,sans-Serif" font-size="10.00">VRRenderThread::applyCommand</text>
</a>
</g>
</g>
<!-- Node5&#45;&gt;Node6 -->
<g id="edge5_Node000005_Node000006" class="edge">
<title>Node5&#45;&gt;Node6</title>
<g id="a_edge5_Node000005_Node000006"><a xlink:title=" ">
<path fill="none" stroke="#63b8ff" d="M1262.26,-150.8C1248.32,-152.07 1233.59,-153.42 1219.22,-154.74"/>
<polygon fill="#63b8ff" stroke="#63b8ff" points="1262.63,-154.28 1272.27,-149.88 1261.99,-147.31 1262.63,-154.28"/>
</a>
</g>
</g>
<!-- Node9 -->
<g id="Node000009" class="node">
<title>Node9</title>
<g id="a_Node000009"><a xlink:href="classVRMenuCallback.html#a912b2d3f14fb4b2a9e4f9b23ae6fbcb9" target="_top" xlink:title=" ">
<polygon fill="white" stroke="#666666" points="353,-107.5 179,-107.5 179,-88.5 353,-88.5 353,-107.5"/>
<text text-anchor="middle" x="266" y="-95.5" font-family="Helvetica,sans-Serif" font-size="10.00">VRMenuCallback::executeAction</text>
</a>
</g>
</g>
<!-- Node5&#45;&gt;Node9 -->
<g id="edge8_Node000005_Node000009" class="edge">
<title>Node5&#45;&gt;Node9</title>
<g id="a_edge8_Node000005_Node000009"><a xlink:title=" ">
<path fill="none" stroke="#63b8ff" d="M1283.1,-132.39C1201.65,-115.72 1041.29,-87 903.5,-87 903.5,-87 903.5,-87 683,-87 568.85,-87 437.14,-91.19 353.03,-94.4"/>
<polygon fill="#63b8ff" stroke="#63b8ff" points="1282.61,-135.86 1293.11,-134.46 1284.03,-129.01 1282.61,-135.86"/>
</a>
</g>
</g>
<!-- Node11 -->
<g id="Node000011" class="node">
<title>Node11</title>
<g id="a_Node000011"><a xlink:href="classVRMenuCallback.html#a099efec49d88c7d83447af3b8cb6c916" target="_top" xlink:title=" ">
<polygon fill="white" stroke="#666666" points="564,-161 389,-161 389,-131 564,-131 564,-161"/>
<text text-anchor="start" x="397" y="-149" font-family="Helvetica,sans-Serif" font-size="10.00">VRMenuCallback::executeGlobal</text>
<text text-anchor="middle" x="476.5" y="-138" font-family="Helvetica,sans-Serif" font-size="10.00">MenuHit</text>
</a>
</g>
</g>
<!-- Node5&#45;&gt;Node11 -->
<g id="edge10_Node000005_Node000011" class="edge">
<title>Node5&#45;&gt;Node11</title>
<g id="a_edge10_Node000005_Node000011"><a xlink:title=" ">
<path fill="none" stroke="#63b8ff" d="M1262.4,-143.6C1129.63,-142.97 842.37,-142.02 600,-144 588.41,-144.09 576.2,-144.24 564.16,-144.41"/>
<polygon fill="#63b8ff" stroke="#63b8ff" points="1262.45,-147.1 1272.46,-143.65 1262.48,-140.1 1262.45,-147.1"/>
</a>
</g>
</g>
<!-- Node5&#45;&gt;Node12 -->
<g id="edge12_Node000005_Node000012" class="edge">
<title>Node5&#45;&gt;Node12</title>
<g id="a_edge12_Node000005_Node000012"><a xlink:title=" ">
<path fill="none" stroke="#63b8ff" d="M1276.08,-130.96C1268.64,-128.01 1261.41,-124.4 1255,-120 1233.31,-105.1 1240.5,-88.17 1219,-73 1211.09,-67.42 1202.04,-62.87 1192.8,-59.17"/>
<polygon fill="#63b8ff" stroke="#63b8ff" points="1274.97,-134.28 1285.56,-134.36 1277.33,-127.7 1274.97,-134.28"/>
</a>
</g>
</g>
<!-- Node13 -->
<g id="Node000013" class="node">
<title>Node13</title>
<g id="a_Node000013"><a xlink:href="structVRGlobalMenu.html#a87a36bddda395b9f09ba2416b958117a" target="_top" xlink:title=" ">
<polygon fill="white" stroke="#666666" points="1205.5,-214.5 1050.5,-214.5 1050.5,-195.5 1205.5,-195.5 1205.5,-214.5"/>
<text text-anchor="middle" x="1128" y="-202.5" font-family="Helvetica,sans-Serif" font-size="10.00">VRGlobalMenu::selectedPart</text>
</a>
</g>
</g>
<!-- Node5&#45;&gt;Node13 -->
<g id="edge13_Node000005_Node000013" class="edge">
<title>Node5&#45;&gt;Node13</title>
<g id="a_edge13_Node000005_Node000013"><a xlink:title=" ">
<path fill="none" stroke="#63b8ff" d="M1297.49,-156.76C1274.69,-164.1 1245.3,-173.36 1219,-181 1201.76,-186.01 1182.55,-191.19 1166.32,-195.44"/>
<polygon fill="#63b8ff" stroke="#63b8ff" points="1298.71,-160.04 1307.15,-153.64 1296.56,-153.38 1298.71,-160.04"/>
</a>
</g>
</g>
<!-- Node7 -->
<g id="Node000007" class="node">
<title>Node7</title>
<g id="a_Node000007"><a xlink:href="classVRRenderThread.html#a1133c0b2f773137412e417450c00c7e8" target="_top" xlink:title=" ">
<polygon fill="white" stroke="#666666" points="1001,-172.5 804,-172.5 804,-153.5 1001,-153.5 1001,-172.5"/>
<text text-anchor="middle" x="902.5" y="-160.5" font-family="Helvetica,sans-Serif" font-size="10.00">VRRenderThread::processCommands</text>
</a>
</g>
</g>
<!-- Node6&#45;&gt;Node7 -->
<g id="edge6_Node000006_Node000007" class="edge">
<title>Node6&#45;&gt;Node7</title>
<g id="a_edge6_Node000006_Node000007"><a xlink:title=" ">
<path fill="none" stroke="#63b8ff" d="M1026.48,-163C1018.02,-163 1009.48,-163 1001.04,-163"/>
<polygon fill="#63b8ff" stroke="#63b8ff" points="1026.74,-166.5 1036.74,-163 1026.74,-159.5 1026.74,-166.5"/>
</a>
</g>
</g>
<!-- Node8 -->
<g id="Node000008" class="node">
<title>Node8</title>
<g id="a_Node000008"><a xlink:href="classVRRenderThread.html#af5bbbaf8625fc42278476a43bf018661" target="_top" xlink:title=" ">
<polygon fill="white" stroke="#666666" points="744,-172.5 624,-172.5 624,-153.5 744,-153.5 744,-172.5"/>
<text text-anchor="middle" x="684" y="-160.5" font-family="Helvetica,sans-Serif" font-size="10.00">VRRenderThread::run</text>
</a>
</g>
</g>
<!-- Node7&#45;&gt;Node8 -->
<g id="edge7_Node000007_Node000008" class="edge">
<title>Node7&#45;&gt;Node8</title>
<g id="a_edge7_Node000007_Node000008"><a xlink:title=" ">
<path fill="none" stroke="#63b8ff" d="M793.69,-163C776.67,-163 759.63,-163 744.26,-163"/>
<polygon fill="#63b8ff" stroke="#63b8ff" points="793.7,-166.5 803.7,-163 793.7,-159.5 793.7,-166.5"/>
</a>
</g>
</g>
<!-- Node10 -->
<g id="Node000010" class="node">
<title>Node10</title>
<g id="a_Node000010"><a xlink:href="classVRMenuCallback.html#aa8d4b0b3d16a598f35da79fd6d156332" target="_top" xlink:title=" ">
<polygon fill="white" stroke="#666666" points="143,-155.5 0,-155.5 0,-136.5 143,-136.5 143,-155.5"/>
<text text-anchor="middle" x="71.5" y="-143.5" font-family="Helvetica,sans-Serif" font-size="10.00">VRMenuCallback::Execute</text>
</a>
</g>
</g>
<!-- Node9&#45;&gt;Node10 -->
<g id="edge9_Node000009_Node000010" class="edge">
<title>Node9&#45;&gt;Node10</title>
<g id="a_edge9_Node000009_Node000010"><a xlink:title=" ">
<path fill="none" stroke="#63b8ff" d="M216.7,-110.04C183.98,-118.2 141.33,-128.84 110.93,-136.42"/>
<polygon fill="#63b8ff" stroke="#63b8ff" points="217.65,-113.41 226.51,-107.6 215.96,-106.62 217.65,-113.41"/>
</a>
</g>
</g>
<!-- Node11&#45;&gt;Node10 -->
<g id="edge11_Node000011_Node000010" class="edge">
<title>Node11&#45;&gt;Node10</title>
<g id="a_edge11_Node000011_Node000010"><a xlink:title=" ">
<path fill="none" stroke="#63b8ff" d="M378.49,-146C305.96,-146 208.46,-146 143.19,-146"/>
<polygon fill="#63b8ff" stroke="#63b8ff" points="378.55,-149.5 388.55,-146 378.55,-142.5 378.55,-149.5"/>
</a>
</g>
</g>
<!-- Node14 -->
<g id="Node000014" class="node">
<title>Node14</title>
<g id="a_Node000014"><a xlink:href="structVRGlobalMenu.html#a4fff26d20af7444685a276448da15c4e" target="_top" xlink:title=" ">
<polygon fill="white" stroke="#666666" points="980,-317 825,-317 825,-287 980,-287 980,-317"/>
<text text-anchor="start" x="833" y="-305" font-family="Helvetica,sans-Serif" font-size="10.00">VRGlobalMenu::selectedPart</text>
<text text-anchor="middle" x="902.5" y="-294" font-family="Helvetica,sans-Serif" font-size="10.00">ClipEnabled</text>
</a>
</g>
</g>
<!-- Node13&#45;&gt;Node14 -->
<g id="edge14_Node000013_Node000014" class="edge">
<title>Node13&#45;&gt;Node14</title>
<g id="a_edge14_Node000013_Node000014"><a xlink:title=" ">
<path fill="none" stroke="#63b8ff" d="M1058.24,-218.03C1050.74,-220.97 1043.48,-224.58 1037,-229 1014.68,-244.23 1023.47,-262.98 1001,-278 994.62,-282.26 987.56,-285.77 980.23,-288.65"/>
<polygon fill="#63b8ff" stroke="#63b8ff" points="1059.58,-221.27 1067.84,-214.64 1057.25,-214.66 1059.58,-221.27"/>
</a>
</g>
</g>
<!-- Node18 -->
<g id="Node000018" class="node">
<title>Node18</title>
<g id="a_Node000018"><a xlink:href="structVRGlobalMenu.html#a54cd870962eed90aa664d67cc55435c3" target="_top" xlink:title=" ">
<polygon fill="white" stroke="#666666" points="980,-269 825,-269 825,-239 980,-239 980,-269"/>
<text text-anchor="start" x="833" y="-257" font-family="Helvetica,sans-Serif" font-size="10.00">VRGlobalMenu::selectedPart</text>
<text text-anchor="middle" x="902.5" y="-246" font-family="Helvetica,sans-Serif" font-size="10.00">ShrinkEnabled</text>
</a>
</g>
</g>
<!-- Node13&#45;&gt;Node18 -->
<g id="edge20_Node000013_Node000018" class="edge">
<title>Node13&#45;&gt;Node18</title>
<g id="a_edge20_Node000013_Node000018"><a xlink:title=" ">
<path fill="none" stroke="#63b8ff" d="M1073.66,-216.69C1043.28,-223.36 1004.87,-231.77 972.24,-238.93"/>
<polygon fill="#63b8ff" stroke="#63b8ff" points="1074.62,-220.07 1083.64,-214.51 1073.12,-213.23 1074.62,-220.07"/>
</a>
</g>
</g>
<!-- Node19 -->
<g id="Node000019" class="node">
<title>Node19</title>
<g id="a_Node000019"><a xlink:href="structVRGlobalMenu.html#a1fcaa1825ae4896ba0a9dca27cf35b03" target="_top" xlink:title=" ">
<polygon fill="white" stroke="#666666" points="980,-221 825,-221 825,-191 980,-191 980,-221"/>
<text text-anchor="start" x="833" y="-209" font-family="Helvetica,sans-Serif" font-size="10.00">VRGlobalMenu::selectedPart</text>
<text text-anchor="middle" x="902.5" y="-198" font-family="Helvetica,sans-Serif" font-size="10.00">Visible</text>
</a>
</g>
</g>
<!-- Node13&#45;&gt;Node19 -->
<g id="edge22_Node000013_Node000019" class="edge">
<title>Node13&#45;&gt;Node19</title>
<g id="a_edge22_Node000013_Node000019"><a xlink:title=" ">
<path fill="none" stroke="#63b8ff" d="M1040.14,-205.39C1020.3,-205.48 999.37,-205.57 980,-205.66"/>
<polygon fill="#63b8ff" stroke="#63b8ff" points="1040.41,-208.89 1050.4,-205.34 1040.38,-201.89 1040.41,-208.89"/>
</a>
</g>
</g>
<!-- Node15 -->
<g id="Node000015" class="node">
<title>Node15</title>
<g id="a_Node000015"><a xlink:href="structVRGlobalMenu.html#a6a28b32cd1505a84cf1106be64e48cb1" target="_top" xlink:title=" ">
<polygon fill="white" stroke="#666666" points="766,-215.5 602,-215.5 602,-196.5 766,-196.5 766,-215.5"/>
<text text-anchor="middle" x="684" y="-203.5" font-family="Helvetica,sans-Serif" font-size="10.00">VRGlobalMenu::rebuildTexture</text>
</a>
</g>
</g>
<!-- Node14&#45;&gt;Node15 -->
<g id="edge15_Node000014_Node000015" class="edge">
<title>Node14&#45;&gt;Node15</title>
<g id="a_edge15_Node000014_Node000015"><a xlink:title=" ">
<path fill="none" stroke="#63b8ff" d="M819.8,-283.86C814.4,-282.06 809.08,-280.11 804,-278 762.73,-260.9 718.96,-230.92 697.86,-215.6"/>
<polygon fill="#63b8ff" stroke="#63b8ff" points="819.02,-287.28 829.61,-286.95 821.12,-280.61 819.02,-287.28"/>
</a>
</g>
</g>
<!-- Node15&#45;&gt;Node11 -->
<g id="edge16_Node000015_Node000011" class="edge">
<title>Node15&#45;&gt;Node11</title>
<g id="a_edge16_Node000015_Node000011"><a xlink:title=" ">
<path fill="none" stroke="#63b8ff" d="M640.82,-193.68C608.46,-184.24 563.63,-171.15 529.12,-161.07"/>
<polygon fill="#63b8ff" stroke="#63b8ff" points="639.86,-197.05 650.44,-196.49 641.82,-190.33 639.86,-197.05"/>
</a>
</g>
</g>
<!-- Node16 -->
<g id="Node000016" class="node">
<title>Node16</title>
<g id="a_Node000016"><a xlink:href="structVRGlobalMenu.html#a1f243a37508a4ed14866ae7c34c01c80" target="_top" xlink:title=" ">
<polygon fill="white" stroke="#666666" points="536.5,-206.5 416.5,-206.5 416.5,-187.5 536.5,-187.5 536.5,-206.5"/>
<text text-anchor="middle" x="476.5" y="-194.5" font-family="Helvetica,sans-Serif" font-size="10.00">VRGlobalMenu::show</text>
</a>
</g>
</g>
<!-- Node15&#45;&gt;Node16 -->
<g id="edge17_Node000015_Node000016" class="edge">
<title>Node15&#45;&gt;Node16</title>
<g id="a_edge17_Node000015_Node000016"><a xlink:title=" ">
<path fill="none" stroke="#63b8ff" d="M591.75,-202C573.04,-201.18 553.81,-200.34 536.59,-199.59"/>
<polygon fill="#63b8ff" stroke="#63b8ff" points="591.64,-205.5 601.78,-202.44 591.94,-198.51 591.64,-205.5"/>
</a>
</g>
</g>
<!-- Node17 -->
<g id="Node000017" class="node">
<title>Node17</title>
<g id="a_Node000017"><a xlink:href="structVRGlobalMenu.html#a0e780f3d9acbdbbb40ad857857c80a70" target="_top" xlink:title=" ">
<polygon fill="white" stroke="#666666" points="328.5,-199.5 203.5,-199.5 203.5,-180.5 328.5,-180.5 328.5,-199.5"/>
<text text-anchor="middle" x="266" y="-187.5" font-family="Helvetica,sans-Serif" font-size="10.00">VRGlobalMenu::toggle</text>
</a>
</g>
</g>
<!-- Node16&#45;&gt;Node17 -->
<g id="edge18_Node000016_Node000017" class="edge">
<title>Node16&#45;&gt;Node17</title>
<g id="a_edge18_Node000016_Node000017"><a xlink:title=" ">
<path fill="none" stroke="#63b8ff" d="M406.13,-194.67C381.03,-193.83 352.89,-192.88 328.52,-192.07"/>
<polygon fill="#63b8ff" stroke="#63b8ff" points="406.2,-198.18 416.31,-195.01 406.43,-191.18 406.2,-198.18"/>
</a>
</g>
</g>
<!-- Node17&#45;&gt;Node10 -->
<g id="edge19_Node000017_Node000010" class="edge">
<title>Node17&#45;&gt;Node10</title>
<g id="a_edge19_Node000017_Node000010"><a xlink:title=" ">
<path fill="none" stroke="#63b8ff" d="M213.44,-178.22C182.37,-171.11 143.31,-162.18 114.19,-155.53"/>
<polygon fill="#63b8ff" stroke="#63b8ff" points="212.7,-181.64 223.23,-180.45 214.26,-174.81 212.7,-181.64"/>
</a>
</g>
</g>
<!-- Node18&#45;&gt;Node15 -->
<g id="edge21_Node000018_Node000015" class="edge">
<title>Node18&#45;&gt;Node15</title>
<g id="a_edge21_Node000018_Node000015"><a xlink:title=" ">
<path fill="none" stroke="#63b8ff" d="M823.74,-236.76C791.55,-229.62 755.45,-221.62 728.14,-215.56"/>
<polygon fill="#63b8ff" stroke="#63b8ff" points="823.07,-240.2 833.59,-238.94 824.59,-233.36 823.07,-240.2"/>
</a>
</g>
</g>
<!-- Node19&#45;&gt;Node15 -->
<g id="edge23_Node000019_Node000015" class="edge">
<title>Node19&#45;&gt;Node15</title>
<g id="a_edge23_Node000019_Node000015"><a xlink:title=" ">
<path fill="none" stroke="#63b8ff" d="M814.51,-206C798.6,-206 782.04,-206 766.3,-206"/>
<polygon fill="#63b8ff" stroke="#63b8ff" points="814.87,-209.5 824.87,-206 814.87,-202.5 814.87,-209.5"/>
</a>
</g>
</g>
<!-- Node23 -->
<g id="Node000023" class="node">
<title>Node23</title>
<g id="a_Node000023"><a xlink:href="classMainWindow.html#a46cb35b1c663ea1240545f3e626f3854" target="_top" xlink:title=" ">
<polygon fill="white" stroke="#666666" points="1203.5,-301 1052.5,-301 1052.5,-271 1203.5,-271 1203.5,-301"/>
<text text-anchor="start" x="1060.5" y="-289" font-family="Helvetica,sans-Serif" font-size="10.00">MainWindow::applyExplode</text>
<text text-anchor="middle" x="1128" y="-278" font-family="Helvetica,sans-Serif" font-size="10.00">FromTree</text>
</a>
</g>
</g>
<!-- Node22&#45;&gt;Node23 -->
<g id="edge28_Node000022_Node000023" class="edge">
<title>Node22&#45;&gt;Node23</title>
<g id="a_edge28_Node000022_Node000023"><a xlink:title=" ">
<path fill="none" stroke="#63b8ff" d="M1266.7,-307.9C1246.48,-304.68 1224.34,-301.16 1203.83,-297.9"/>
<polygon fill="#63b8ff" stroke="#63b8ff" points="1266.34,-311.39 1276.76,-309.5 1267.43,-304.47 1266.34,-311.39"/>
</a>
</g>
</g>
<!-- Node24 -->
<g id="Node000024" class="node">
<title>Node24</title>
<g id="a_Node000024"><a xlink:href="classMainWindow.html#a6db062f407bd66add549a10a7dc24a0f" target="_top" xlink:title=" ">
<polygon fill="white" stroke="#666666" points="978,-366 827,-366 827,-336 978,-336 978,-366"/>
<text text-anchor="start" x="835" y="-354" font-family="Helvetica,sans-Serif" font-size="10.00">MainWindow::applyExplode</text>
<text text-anchor="middle" x="902.5" y="-343" font-family="Helvetica,sans-Serif" font-size="10.00">ToAll</text>
</a>
</g>
</g>
<!-- Node22&#45;&gt;Node24 -->
<g id="edge35_Node000022_Node000024" class="edge">
<title>Node22&#45;&gt;Node24</title>
<g id="a_edge35_Node000022_Node000024"><a xlink:title=" ">
<path fill="none" stroke="#63b8ff" d="M1312.51,-304.12C1259.15,-273.1 1128.16,-208.69 1037,-262 1008.83,-278.48 1026.89,-306.13 1001,-326 994.21,-331.21 986.44,-335.35 978.33,-338.62"/>
<polygon fill="#63b8ff" stroke="#63b8ff" points="1310.87,-307.21 1321.26,-309.31 1314.44,-301.19 1310.87,-307.21"/>
</a>
</g>
</g>
<!-- Node27 -->
<g id="Node000027" class="node">
<title>Node27</title>
<g id="a_Node000027"><a xlink:href="classMainWindow.html#ac0f0034dd8ee8a9cb96cf81366fca941" target="_top" xlink:title=" ">
<polygon fill="white" stroke="#666666" points="1203.5,-367 1052.5,-367 1052.5,-337 1203.5,-337 1203.5,-367"/>
<text text-anchor="start" x="1060.5" y="-355" font-family="Helvetica,sans-Serif" font-size="10.00">MainWindow::on_actionEdit</text>
<text text-anchor="middle" x="1128" y="-344" font-family="Helvetica,sans-Serif" font-size="10.00">_Part_triggered</text>
</a>
</g>
</g>
<!-- Node22&#45;&gt;Node27 -->
<g id="edge36_Node000022_Node000027" class="edge">
<title>Node22&#45;&gt;Node27</title>
<g id="a_edge36_Node000022_Node000027"><a xlink:title=" ">
<path fill="none" stroke="#63b8ff" d="M1266.7,-330.1C1246.48,-333.32 1224.34,-336.84 1203.83,-340.1"/>
<polygon fill="#63b8ff" stroke="#63b8ff" points="1267.43,-333.53 1276.76,-328.5 1266.34,-326.61 1267.43,-333.53"/>
</a>
</g>
</g>
<!-- Node28 -->
<g id="Node000028" class="node">
<title>Node28</title>
<g id="a_Node000028"><a xlink:href="classMainWindow.html#ad0f3f72f92f2fe5aa922ad43c13fe3b9" target="_top" xlink:title=" ">
<polygon fill="white" stroke="#666666" points="981.5,-415 823.5,-415 823.5,-385 981.5,-385 981.5,-415"/>
<text text-anchor="start" x="831.5" y="-403" font-family="Helvetica,sans-Serif" font-size="10.00">MainWindow::refreshExplode</text>
<text text-anchor="middle" x="902.5" y="-392" font-family="Helvetica,sans-Serif" font-size="10.00">Directions</text>
</a>
</g>
</g>
<!-- Node22&#45;&gt;Node28 -->
<g id="edge37_Node000022_Node000028" class="edge">
<title>Node22&#45;&gt;Node28</title>
<g id="a_edge37_Node000022_Node000028"><a xlink:title=" ">
<path fill="none" stroke="#63b8ff" d="M1326.01,-337.14C1308.26,-365.8 1269.25,-420.51 1219,-442 1144.63,-473.81 1115.93,-459.7 1037,-442 1019.73,-438.13 1017.65,-431 1001,-425 990.89,-421.35 980.01,-418.02 969.32,-415.05"/>
<polygon fill="#63b8ff" stroke="#63b8ff" points="1329.05,-338.88 1331.21,-328.51 1323.05,-335.27 1329.05,-338.88"/>
</a>
</g>
</g>
<!-- Node29 -->
<g id="Node000029" class="node">
<title>Node29</title>
<g id="a_Node000029"><a xlink:href="classMainWindow.html#a0246192046d6d7c2844424ca1ff7e134" target="_top" xlink:title=" ">
<polygon fill="white" stroke="#666666" points="1207,-415 1049,-415 1049,-385 1207,-385 1207,-415"/>
<text text-anchor="start" x="1057" y="-403" font-family="Helvetica,sans-Serif" font-size="10.00">MainWindow::refreshExplode</text>
<text text-anchor="middle" x="1128" y="-392" font-family="Helvetica,sans-Serif" font-size="10.00">DirectionsFromTree</text>
</a>
</g>
</g>
<!-- Node22&#45;&gt;Node29 -->
<g id="edge41_Node000022_Node000029" class="edge">
<title>Node22&#45;&gt;Node29</title>
<g id="a_edge41_Node000022_Node000029"><a xlink:title=" ">
<path fill="none" stroke="#63b8ff" d="M1310.5,-333.4C1287.1,-345.92 1251.5,-363.91 1219,-376 1210.36,-379.21 1201.11,-382.19 1191.94,-384.87"/>
<polygon fill="#63b8ff" stroke="#63b8ff" points="1312.31,-336.4 1319.44,-328.56 1308.98,-330.25 1312.31,-336.4"/>
</a>
</g>
</g>
<!-- Node23&#45;&gt;Node23 -->
<g id="edge29_Node000023_Node000023" class="edge">
<title>Node23&#45;&gt;Node23</title>
<g id="a_edge29_Node000023_Node000023"><a xlink:title=" ">
<path fill="none" stroke="#63b8ff" d="M1164.41,-311.6C1159.43,-315.97 1147.3,-319 1128,-319 1095.5,-319 1083.31,-310.41 1091.44,-301.28"/>
<polygon fill="#63b8ff" stroke="#63b8ff" points="1167.91,-311.33 1164.56,-301.28 1160.91,-311.22 1167.91,-311.33"/>
</a>
</g>
</g>
<!-- Node23&#45;&gt;Node24 -->
<g id="edge30_Node000023_Node000024" class="edge">
<title>Node23&#45;&gt;Node24</title>
<g id="a_edge30_Node000023_Node000024"><a xlink:title=" ">
<path fill="none" stroke="#63b8ff" d="M1072.17,-304.15C1050.14,-311.24 1024.45,-319.28 1001,-326 989.16,-329.4 976.44,-332.82 964.24,-335.99"/>
<polygon fill="#63b8ff" stroke="#63b8ff" points="1073.26,-307.47 1081.7,-301.06 1071.11,-300.81 1073.26,-307.47"/>
</a>
</g>
</g>
<!-- Node24&#45;&gt;Node3 -->
<g id="edge31_Node000024_Node000003" class="edge">
<title>Node24&#45;&gt;Node3</title>
<g id="a_edge31_Node000024_Node000003"><a xlink:title=" ">
<path fill="none" stroke="#63b8ff" d="M817.53,-368.41C812.8,-370.64 808.25,-373.16 804,-376 781.83,-390.82 790.36,-409.47 768,-424 762.05,-427.87 755.41,-430.95 748.56,-433.41"/>
<polygon fill="#63b8ff" stroke="#63b8ff" points="818.98,-371.6 826.81,-364.46 816.24,-365.16 818.98,-371.6"/>
</a>
</g>
</g>
<!-- Node24&#45;&gt;Node4 -->
<g id="edge33_Node000024_Node000004" class="edge">
<title>Node24&#45;&gt;Node4</title>
<g id="a_edge33_Node000024_Node000004"><a xlink:title=" ">
<path fill="none" stroke="#63b8ff" d="M825.25,-368.26C801.12,-373.72 774.67,-379.71 751.3,-384.99"/>
<polygon fill="#63b8ff" stroke="#63b8ff" points="826.09,-371.66 835.07,-366.03 824.55,-364.83 826.09,-371.66"/>
</a>
</g>
</g>
<!-- Node25 -->
<g id="Node000025" class="node">
<title>Node25</title>
<g id="a_Node000025"><a xlink:href="classMainWindow.html#ac8d2ec00c54dd53fc814c23cb396d526" target="_top" xlink:title=" ">
<polygon fill="white" stroke="#666666" points="766,-367 602,-367 602,-337 766,-337 766,-367"/>
<text text-anchor="start" x="610" y="-355" font-family="Helvetica,sans-Serif" font-size="10.00">MainWindow::on_actionDelete</text>
<text text-anchor="middle" x="684" y="-344" font-family="Helvetica,sans-Serif" font-size="10.00">_Part_triggered</text>
</a>
</g>
</g>
<!-- Node24&#45;&gt;Node25 -->
<g id="edge32_Node000024_Node000025" class="edge">
<title>Node24&#45;&gt;Node25</title>
<g id="a_edge32_Node000024_Node000025"><a xlink:title=" ">
<path fill="none" stroke="#63b8ff" d="M816.77,-351.39C800.17,-351.47 782.8,-351.55 766.31,-351.62"/>
<polygon fill="#63b8ff" stroke="#63b8ff" points="817.01,-354.89 826.99,-351.34 816.98,-347.89 817.01,-354.89"/>
</a>
</g>
</g>
<!-- Node26 -->
<g id="Node000026" class="node">
<title>Node26</title>
<g id="a_Node000026"><a xlink:href="classMainWindow.html#a2d56d0e63146cbcc6337b4379e83651a" target="_top" xlink:title=" ">
<polygon fill="white" stroke="#666666" points="768,-319 600,-319 600,-289 768,-289 768,-319"/>
<text text-anchor="start" x="608" y="-307" font-family="Helvetica,sans-Serif" font-size="10.00">MainWindow::on_sliderExplode</text>
<text text-anchor="middle" x="684" y="-296" font-family="Helvetica,sans-Serif" font-size="10.00">_valueChanged</text>
</a>
</g>
</g>
<!-- Node24&#45;&gt;Node26 -->
<g id="edge34_Node000024_Node000026" class="edge">
<title>Node24&#45;&gt;Node26</title>
<g id="a_edge34_Node000024_Node000026"><a xlink:title=" ">
<path fill="none" stroke="#63b8ff" d="M822.59,-333.87C800.18,-329.01 775.97,-323.75 754.18,-319.02"/>
<polygon fill="#63b8ff" stroke="#63b8ff" points="821.89,-337.3 832.4,-336 823.37,-330.46 821.89,-337.3"/>
</a>
</g>
</g>
<!-- Node28&#45;&gt;Node3 -->
<g id="edge38_Node000028_Node000003" class="edge">
<title>Node28&#45;&gt;Node3</title>
<g id="a_edge38_Node000028_Node000003"><a xlink:title=" ">
<path fill="none" stroke="#63b8ff" d="M815.9,-417C787.68,-422.61 757.32,-428.64 732.94,-433.48"/>
<polygon fill="#63b8ff" stroke="#63b8ff" points="816.65,-420.42 825.78,-415.04 815.29,-413.55 816.65,-420.42"/>
</a>
</g>
</g>
<!-- Node28&#45;&gt;Node4 -->
<g id="edge40_Node000028_Node000004" class="edge">
<title>Node28&#45;&gt;Node4</title>
<g id="a_edge40_Node000028_Node000004"><a xlink:title=" ">
<path fill="none" stroke="#63b8ff" d="M813.24,-400C797.72,-400 781.64,-400 766.33,-400"/>
<polygon fill="#63b8ff" stroke="#63b8ff" points="813.34,-403.5 823.34,-400 813.34,-396.5 813.34,-403.5"/>
</a>
</g>
</g>
<!-- Node28&#45;&gt;Node25 -->
<g id="edge39_Node000028_Node000025" class="edge">
<title>Node28&#45;&gt;Node25</title>
<g id="a_edge39_Node000028_Node000025"><a xlink:title=" ">
<path fill="none" stroke="#63b8ff" d="M823.77,-382.77C800.51,-377.61 775.22,-372 752.67,-367"/>
<polygon fill="#63b8ff" stroke="#63b8ff" points="823.07,-386.2 833.59,-384.94 824.59,-379.36 823.07,-386.2"/>
</a>
</g>
</g>
<!-- Node29&#45;&gt;Node28 -->
<g id="edge42_Node000029_Node000028" class="edge">
<title>Node29&#45;&gt;Node28</title>
<g id="a_edge42_Node000029_Node000028"><a xlink:title=" ">
<path fill="none" stroke="#63b8ff" d="M1038.76,-400C1019.89,-400 1000.08,-400 981.63,-400"/>
<polygon fill="#63b8ff" stroke="#63b8ff" points="1038.83,-403.5 1048.83,-400 1038.83,-396.5 1038.83,-403.5"/>
</a>
</g>
</g>
<!-- Node29&#45;&gt;Node29 -->
<g id="edge43_Node000029_Node000029" class="edge">
<title>Node29&#45;&gt;Node29</title>
<g id="a_edge43_Node000029_Node000029"><a xlink:title=" ">
<path fill="none" stroke="#63b8ff" d="M1164.41,-425.6C1159.43,-429.97 1147.3,-433 1128,-433 1095.5,-433 1083.31,-424.41 1091.44,-415.28"/>
<polygon fill="#63b8ff" stroke="#63b8ff" points="1167.91,-425.33 1164.56,-415.28 1160.91,-425.22 1167.91,-425.33"/>
</a>
</g>
</g>
</g>
</svg>

<g id="navigator" transform="translate(0 0)" fill="#404254">
  <rect fill="#f2f5e9" fill-opacity="0.5" stroke="#606060" stroke-width=".5" x="0" y="0" width="60" height="60"/>
  <use id="zoomplus" xlink:href="#zoomPlus" x="17" y="9" onmousedown="handleZoom(evt,'in')"/>
  <use id="zoomminus" xlink:href="#zoomMin" x="42" y="9" onmousedown="handleZoom(evt,'out')"/>
  <use id="reset" xlink:href="#resetDef" x="30" y="36" onmousedown="handleReset()"/>
   <use id="arrowup" xlink:href="#arrowUp" x="0" y="0" onmousedown="handlePan(0,-1)"/>
  <use id="arrowright" xlink:href="#arrowRight" x="0" y="0" onmousedown="handlePan(1,0)"/>
  <use id="arrowdown" xlink:href="#arrowDown" x="0" y="0" onmousedown="handlePan(0,1)"/>
  <use id="arrowleft" xlink:href="#arrowLeft" x="0" y="0" onmousedown="handlePan(-1,0)"/>
</g>
<svg viewBox="0 0 15 15" width="100%" height="30px" preserveAspectRatio="xMaxYMin meet">
 <g id="arrow_out" transform="scale(0.3 0.3)">
  <a xlink:href="classModelPart_aea4bb035b2b3827c0abf677fb9dc68ce_icgraph_org.svg" target="_base">
   <rect id="button" ry="5" rx="5" y="6" x="6" height="38" width="38"
        fill="#f2f5e9" fill-opacity="0.5" stroke="#606060" stroke-width="1.0"/>
   <path id="arrow"
     d="M 11.500037,31.436501 C 11.940474,20.09759 22.043105,11.32322 32.158766,21.979434 L 37.068811,17.246167 C 37.068811,17.246167 37.088388,32 37.088388,32 L 22.160133,31.978069 C 22.160133,31.978069 26.997745,27.140456 26.997745,27.140456 C 18.528582,18.264221 13.291696,25.230495 11.500037,31.436501 z"
     style="fill:#404040;"/>
  </a>
 </g>
</svg>

<style type='text/css'>
<![CDATA[
[data-mouse-over-selected='false'] { opacity: 0.7; }
[data-mouse-over-selected='true']  { opacity: 1.0; }
]]>
</style>
<script type="application/ecmascript"><![CDATA[
document.addEventListener('DOMContentLoaded', (event) => {
  highlightEdges();
  highlightAdjacentNodes();
});
]]></script>
</svg>
