<?xml version="1.0" encoding="UTF-8" standalone="no"?>
<!DOCTYPE svg PUBLIC "-//W3C//DTD SVG 1.1//EN"
 "http://www.w3.org/Graphics/SVG/1.1/DTD/svg11.dtd">
<!-- Generated by graphviz version 2.43.0 (0)
 -->
<!-- Title: VRRenderThread::run Pages: 1 -->
<svg width="1057pt" height="138pt"
 viewBox="0.00 0.00 1057.00 138.00" xmlns="http://www.w3.org/2000/svg" xmlns:xlink="http://www.w3.org/1999/xlink">
<g id="graph0" class="graph" transform="scale(1 1) rotate(0) translate(4 134)">
<title>VRRenderThread::run</title>
<!-- Node1 -->
<g id="Node000001" class="node">
<title>Node1</title>
<g id="a_Node000001"><a xlink:title=" ">
<polygon fill="#999999" stroke="#666666" points="120,-37 0,-37 0,-18 120,-18 120,-37"/>
<text text-anchor="middle" x="60" y="-25" font-family="Helvetica,sans-Serif" font-size="10.00">VRRenderThread::run</text>
</a>
</g>
</g>
<!-- Node2 -->
<g id="Node000002" class="node">
<title>Node2</title>
<g id="a_Node000002"><a xlink:href="classVRRenderThread.html#a1133c0b2f773137412e417450c00c7e8" target="_top" xlink:title=" ">
<polygon fill="white" stroke="#666666" points="353,-56 156,-56 156,-37 353,-37 353,-56"/>
<text text-anchor="middle" x="254.5" y="-44" font-family="Helvetica,sans-Serif" font-size="10.00">VRRenderThread::processCommands</text>
</a>
</g>
</g>
<!-- Node1&#45;&gt;Node2 -->
<g id="edge1_Node000001_Node000002" class="edge">
<title>Node1&#45;&gt;Node2</title>
<g id="a_edge1_Node000001_Node000002"><a xlink:title=" ">
<path fill="none" stroke="#63b8ff" d="M120.06,-33.33C128.67,-34.18 137.74,-35.07 146.94,-35.98"/>
<polygon fill="#63b8ff" stroke="#63b8ff" points="146.66,-39.47 156.95,-36.97 147.35,-32.51 146.66,-39.47"/>
</a>
</g>
</g>
<!-- Node10 -->
<g id="Node000010" class="node">
<title>Node10</title>
<g id="a_Node000010"><a xlink:href="structPerActorScaler.html#ab7c73ff6f7b5fa114e231b3496c69011" target="_top" xlink:title=" ">
<polygon fill="white" stroke="#666666" points="318.5,-19 190.5,-19 190.5,0 318.5,0 318.5,-19"/>
<text text-anchor="middle" x="254.5" y="-7" font-family="Helvetica,sans-Serif" font-size="10.00">PerActorScaler::update</text>
</a>
</g>
</g>
<!-- Node1&#45;&gt;Node10 -->
<g id="edge11_Node000001_Node000010" class="edge">
<title>Node1&#45;&gt;Node10</title>
<g id="a_edge11_Node000001_Node000010"><a xlink:title=" ">
<path fill="none" stroke="#63b8ff" d="M120.06,-21.98C138.98,-20.21 160.16,-18.23 179.98,-16.37"/>
<polygon fill="#63b8ff" stroke="#63b8ff" points="180.57,-19.83 190.2,-15.42 179.92,-12.87 180.57,-19.83"/>
</a>
</g>
</g>
<!-- Node3 -->
<g id="Node000003" class="node">
<title>Node3</title>
<g id="a_Node000003"><a xlink:href="classVRRenderThread.html#afb8797810162611a3b8cb465625c69b9" target="_top" xlink:title=" ">
<polygon fill="white" stroke="#666666" points="571,-56 389,-56 389,-37 571,-37 571,-56"/>
<text text-anchor="middle" x="480" y="-44" font-family="Helvetica,sans-Serif" font-size="10.00">VRRenderThread::applyCommand</text>
</a>
</g>
</g>
<!-- Node2&#45;&gt;Node3 -->
<g id="edge2_Node000002_Node000003" class="edge">
<title>Node2&#45;&gt;Node3</title>
<g id="a_edge2_Node000002_Node000003"><a xlink:title=" ">
<path fill="none" stroke="#63b8ff" d="M353.21,-46.5C361.64,-46.5 370.18,-46.5 378.64,-46.5"/>
<polygon fill="#63b8ff" stroke="#63b8ff" points="378.89,-50 388.89,-46.5 378.89,-43 378.89,-50"/>
</a>
</g>
</g>
<!-- Node4 -->
<g id="Node000004" class="node">
<title>Node4</title>
<g id="a_Node000004"><a xlink:href="classModelPartList.html#ab1d1158c9fcdb4b7d1854ec618ff18d4" target="_top" xlink:title=" ">
<polygon fill="white" stroke="#666666" points="751,-74 621,-74 621,-55 751,-55 751,-74"/>
<text text-anchor="middle" x="686" y="-62" font-family="Helvetica,sans-Serif" font-size="10.00">ModelPartList::findByID</text>
</a>
</g>
</g>
<!-- Node3&#45;&gt;Node4 -->
<g id="edge3_Node000003_Node000004" class="edge">
<title>Node3&#45;&gt;Node4</title>
<g id="a_edge3_Node000003_Node000004"><a xlink:title=" ">
<path fill="none" stroke="#63b8ff" d="M571.07,-54.45C584.29,-55.61 597.79,-56.8 610.65,-57.94"/>
<polygon fill="#63b8ff" stroke="#63b8ff" points="610.54,-61.44 620.81,-58.84 611.15,-54.47 610.54,-61.44"/>
</a>
</g>
</g>
<!-- Node9 -->
<g id="Node000009" class="node">
<title>Node9</title>
<g id="a_Node000009"><a xlink:href="classModelPart.html#a25d5e07dd22949e235847d8725ca80d2" target="_top" xlink:title=" ">
<polygon fill="white" stroke="#666666" points="765,-37 607,-37 607,-18 765,-18 765,-37"/>
<text text-anchor="middle" x="686" y="-25" font-family="Helvetica,sans-Serif" font-size="10.00">ModelPart::rebuildVRPipeline</text>
</a>
</g>
</g>
<!-- Node3&#45;&gt;Node9 -->
<g id="edge9_Node000003_Node000009" class="edge">
<title>Node3&#45;&gt;Node9</title>
<g id="a_edge9_Node000003_Node000009"><a xlink:title=" ">
<path fill="none" stroke="#63b8ff" d="M571.07,-38.11C579.66,-37.31 588.37,-36.5 596.94,-35.7"/>
<polygon fill="#63b8ff" stroke="#63b8ff" points="597.3,-39.18 606.93,-34.77 596.65,-32.21 597.3,-39.18"/>
</a>
</g>
</g>
<!-- Node5 -->
<g id="Node000005" class="node">
<title>Node5</title>
<g id="a_Node000005"><a xlink:href="classModelPart.html#af32381b69415f0aa6bdfd84435f842cc" target="_top" xlink:title=" ">
<polygon fill="white" stroke="#666666" points="910,-130 815,-130 815,-111 910,-111 910,-130"/>
<text text-anchor="middle" x="862.5" y="-118" font-family="Helvetica,sans-Serif" font-size="10.00">ModelPart::child</text>
</a>
</g>
</g>
<!-- Node4&#45;&gt;Node5 -->
<g id="edge4_Node000004_Node000005" class="edge">
<title>Node4&#45;&gt;Node5</title>
<g id="a_edge4_Node000004_Node000005"><a xlink:title=" ">
<path fill="none" stroke="#63b8ff" d="M715.03,-74.13C738.05,-81.96 771.55,-93.21 801,-102.5 806.76,-104.32 812.84,-106.18 818.84,-108"/>
<polygon fill="#63b8ff" stroke="#63b8ff" points="818.2,-111.46 828.79,-110.98 820.21,-104.75 818.2,-111.46"/>
</a>
</g>
</g>
<!-- Node7 -->
<g id="Node000007" class="node">
<title>Node7</title>
<g id="a_Node000007"><a xlink:href="classModelPart.html#aea4bb035b2b3827c0abf677fb9dc68ce" target="_top" xlink:title=" ">
<polygon fill="white" stroke="#666666" points="924,-93 801,-93 801,-74 924,-74 924,-93"/>
<text text-anchor="middle" x="862.5" y="-81" font-family="Helvetica,sans-Serif" font-size="10.00">ModelPart::childCount</text>
</a>
</g>
</g>
<!-- Node4&#45;&gt;Node7 -->
<g id="edge6_Node000004_Node000007" class="edge">
<title>Node4&#45;&gt;Node7</title>
<g id="a_edge6_Node000004_Node000007"><a xlink:title=" ">
<path fill="none" stroke="#63b8ff" d="M751.48,-71.52C764.2,-72.91 777.61,-74.37 790.53,-75.77"/>
<polygon fill="#63b8ff" stroke="#63b8ff" points="790.44,-79.28 800.76,-76.89 791.19,-72.32 790.44,-79.28"/>
</a>
</g>
</g>
<!-- Node8 -->
<g id="Node000008" class="node">
<title>Node8</title>
<g id="a_Node000008"><a xlink:href="classModelPart.html#a508412880d7025d525ae018d9e1bbffc" target="_top" xlink:title=" ">
<polygon fill="white" stroke="#666666" points="911.5,-56 813.5,-56 813.5,-37 911.5,-37 911.5,-56"/>
<text text-anchor="middle" x="862.5" y="-44" font-family="Helvetica,sans-Serif" font-size="10.00">ModelPart::getID</text>
</a>
</g>
</g>
<!-- Node4&#45;&gt;Node8 -->
<g id="edge7_Node000004_Node000008" class="edge">
<title>Node4&#45;&gt;Node8</title>
<g id="a_edge7_Node000004_Node000008"><a xlink:title=" ">
<path fill="none" stroke="#63b8ff" d="M751.48,-57.85C768.45,-56.1 786.65,-54.22 803.26,-52.51"/>
<polygon fill="#63b8ff" stroke="#63b8ff" points="803.79,-55.97 813.38,-51.46 803.07,-49.01 803.79,-55.97"/>
</a>
</g>
</g>
<!-- Node6 -->
<g id="Node000006" class="node">
<title>Node6</title>
<g id="a_Node000006"><a xlink:href="classModelPart.html#a05bc0dd06a3658d9a2c46fa717dec910" target="_top" xlink:title=" ">
<polygon fill="white" stroke="#666666" points="1049,-56 960,-56 960,-37 1049,-37 1049,-56"/>
<text text-anchor="middle" x="1004.5" y="-44" font-family="Helvetica,sans-Serif" font-size="10.00">ModelPart::row</text>
</a>
</g>
</g>
<!-- Node5&#45;&gt;Node6 -->
<g id="edge5_Node000005_Node000006" class="edge">
<title>Node5&#45;&gt;Node6</title>
<g id="a_edge5_Node000005_Node000006"><a xlink:title=" ">
<path fill="none" stroke="#63b8ff" d="M902.29,-111C909.66,-108.63 917.2,-105.8 924,-102.5 946.3,-91.69 969.17,-74.86 984.62,-62.47"/>
<polygon fill="#63b8ff" stroke="#63b8ff" points="986.87,-65.15 992.39,-56.11 982.44,-59.74 986.87,-65.15"/>
</a>
</g>
</g>
<!-- Node8&#45;&gt;Node6 -->
<g id="edge8_Node000008_Node000006" class="edge">
<title>Node8&#45;&gt;Node6</title>
<g id="a_edge8_Node000008_Node000006"><a xlink:title=" ">
<path fill="none" stroke="#63b8ff" d="M911.68,-46.5C923.92,-46.5 937.14,-46.5 949.64,-46.5"/>
<polygon fill="#63b8ff" stroke="#63b8ff" points="949.93,-50 959.93,-46.5 949.93,-43 949.93,-50"/>
</a>
</g>
</g>
<!-- Node9&#45;&gt;Node6 -->
<g id="edge10_Node000009_Node000006" class="edge">
<title>Node9&#45;&gt;Node6</title>
<g id="a_edge10_Node000009_Node000006"><a xlink:title=" ">
<path fill="none" stroke="#63b8ff" d="M765.17,-23.56C811.5,-22.28 871.26,-22.49 924,-28.5 935.41,-29.8 947.58,-32.08 958.87,-34.6"/>
<polygon fill="#63b8ff" stroke="#63b8ff" points="958.42,-38.09 968.95,-36.95 960.01,-31.27 958.42,-38.09"/>
</a>
</g>
</g>
<!-- Node11 -->
<g id="Node000011" class="node">
<title>Node11</title>
<g id="a_Node000011"><a xlink:href="structPerActorScaler.html#a35177626dc317d99d4b5c0eea3bd8611" target="_top" xlink:title=" ">
<polygon fill="white" stroke="#666666" points="553,-19 407,-19 407,0 553,0 553,-19"/>
<text text-anchor="middle" x="480" y="-7" font-family="Helvetica,sans-Serif" font-size="10.00">PerActorScaler::isPartActor</text>
</a>
</g>
</g>
<!-- Node10&#45;&gt;Node11 -->
<g id="edge12_Node000010_Node000011" class="edge">
<title>Node10&#45;&gt;Node11</title>
<g id="a_edge12_Node000010_Node000011"><a xlink:title=" ">
<path fill="none" stroke="#63b8ff" d="M318.65,-9.5C342.92,-9.5 371,-9.5 396.8,-9.5"/>
<polygon fill="#63b8ff" stroke="#63b8ff" points="396.95,-13 406.95,-9.5 396.95,-6 396.95,-13"/>
</a>
</g>
</g>
</g>
</svg>
