<?xml version="1.0" encoding="UTF-8" standalone="no"?>
<!DOCTYPE svg PUBLIC "-//W3C//DTD SVG 1.1//EN"
 "http://www.w3.org/Graphics/SVG/1.1/DTD/svg11.dtd">
<!-- Generated by graphviz version 2.43.0 (0)
 -->
<!-- Title: MainWindow::on_actionEdit_Part_triggered Pages: 1 -->
<!--zoomable 615 -->

<svg id="main" version="1.1" xmlns="http://www.w3.org/2000/svg" xmlns:xlink="http://www.w3.org/1999/xlink" xml:space="preserve" onload="init(evt)">
<style type="text/css"><![CDATA[
.node, .edge {opacity: 0.7;}
.node.selected, .edge.selected {opacity: 1;}
.edge:hover path { stroke: red; }
.edge:hover polygon { stroke: red; fill: red; }
]]></style>

<defs>
  <circle id="rim" cx="0" cy="0" r="7"/>
  <circle id="rim2" cx="0" cy="0" r="3.5"/>
  <g id="zoomPlus">
    <use xlink:href="#rim" fill="#404040"><set attributeName="fill" to="#808080" begin="zoomplus.mouseover" end="zoomplus.mouseout"/></use>
    <path d="M-4,0h8M0,-4v8" fill="none" stroke="white" stroke-width="1.5" pointer-events="none"/>
  </g>
  <g id="zoomMin">
    <use xlink:href="#rim" fill="#404040"><set attributeName="fill" to="#808080" begin="zoomminus.mouseover" end="zoomminus.mouseout"/></use>
    <path d="M-4,0h8" fill="none" stroke="white" stroke-width="1.5" pointer-events="none"/>
  </g>
  <g id="arrowUp" transform="translate(30 24)">
    <use xlink:href="#rim"/>
    <path pointer-events="none" fill="none" stroke="white" stroke-width="1.5" d="M0,-3.0v7 M-2.5,-0.5L0,-3.0L2.5,-0.5"/>
  </g>
  <g id="arrowRight" transform="rotate(90) translate(36 -43)">
    <use xlink:href="#rim"/>
    <path pointer-events="none" fill="none" stroke="white" stroke-width="1.5" d="M0,-3.0v7 M-2.5,-0.5L0,-3.0L2.5,-0.5"/>
  </g>
  <g id="arrowDown" transform="rotate(180) translate(-30 -48)">
    <use xlink:href="#rim"/>
    <path pointer-events="none" fill="none" stroke="white" stroke-width="1.5" d="M0,-3.0v7 M-2.5,-0.5L0,-3.0L2.5,-0.5"/>
  </g>
  <g id="arrowLeft" transform="rotate(270) translate(-36 17)">
    <use xlink:href="#rim"/>
    <path pointer-events="none" fill="none" stroke="white" stroke-width="1.5" d="M0,-3.0v7 M-2.5,-0.5L0,-3.0L2.5,-0.5"/>
  </g>
  <g id="resetDef">
    <use xlink:href="#rim2" fill="#404040"><set attributeName="fill" to="#808080" begin="reset.mouseover" end="reset.mouseout"/></use>
  </g>
</defs>
<script type="application/ecmascript">
var viewWidth = 874;
var viewHeight = 615;
var sectionId = 'dynsection-14';
</script>
<script type="application/ecmascript" xlink:href="svg.min.js"/>
<svg id="graph" class="graph">
<g id="viewport">
<title>MainWindow::on_actionEdit_Part_triggered</title>
<!-- Node1 -->
<g id="Node000001" class="node">
<title>Node1</title>
<g id="a_Node000001"><a xlink:title=" ">
<polygon fill="#999999" stroke="#666666" points="151,-339.13 0,-339.13 0,-309.13 151,-309.13 151,-339.13"/>
<text text-anchor="start" x="8" y="-327.13" font-family="Helvetica,sans-Serif" font-size="10.00">MainWindow::on_actionEdit</text>
<text text-anchor="middle" x="75.5" y="-316.13" font-family="Helvetica,sans-Serif" font-size="10.00">_Part_triggered</text>
</a>
</g>
</g>
<!-- Node2 -->
<g id="Node000002" class="node">
<title>Node2</title>
<g id="a_Node000002"><a xlink:href="classModelPart.html#a178655da543bd0dae2d0ed1e2ea38a56" target="_top" xlink:title=" ">
<polygon fill="white" stroke="#666666" points="529,-513.63 436,-513.63 436,-494.63 529,-494.63 529,-513.63"/>
<text text-anchor="middle" x="482.5" y="-501.63" font-family="Helvetica,sans-Serif" font-size="10.00">ModelPart::data</text>
</a>
</g>
</g>
<!-- Node1&#45;&gt;Node2 -->
<g id="edge1_Node000001_Node000002" class="edge">
<title>Node1&#45;&gt;Node2</title>
<g id="a_edge1_Node000001_Node000002"><a xlink:title=" ">
<path fill="none" stroke="#63b8ff" d="M81.55,-339.17C93.65,-372.54 127.8,-452.5 187,-486.13 261.15,-528.25 363.41,-523.2 425.85,-514.52"/>
<polygon fill="#63b8ff" stroke="#63b8ff" points="426.52,-517.96 435.9,-513.04 425.5,-511.03 426.52,-517.96"/>
</a>
</g>
</g>
<!-- Node4 -->
<g id="Node000004" class="node">
<title>Node4</title>
<g id="a_Node000004"><a xlink:href="classModelPart.html#a393860ebae3b634f2e46c828f702326c" target="_top" xlink:title=" ">
<polygon fill="white" stroke="#666666" points="555,-438.63 410,-438.63 410,-419.63 555,-419.63 555,-438.63"/>
<text text-anchor="middle" x="482.5" y="-426.63" font-family="Helvetica,sans-Serif" font-size="10.00">ModelPart::getClipEnabled</text>
</a>
</g>
</g>
<!-- Node1&#45;&gt;Node4 -->
<g id="edge3_Node000001_Node000004" class="edge">
<title>Node1&#45;&gt;Node4</title>
<g id="a_edge3_Node000001_Node000004"><a xlink:title=" ">
<path fill="none" stroke="#63b8ff" d="M90.08,-339.28C109.35,-359.59 146.77,-394.85 187,-410.13 255.26,-436.05 338.78,-439 399.42,-436.52"/>
<polygon fill="#63b8ff" stroke="#63b8ff" points="399.88,-440 409.71,-436.04 399.56,-433.01 399.88,-440"/>
</a>
</g>
</g>
<!-- Node5 -->
<g id="Node000005" class="node">
<title>Node5</title>
<g id="a_Node000005"><a xlink:href="classModelPart.html#ac78f4dc9ce97458b7eb22bc474bf54eb" target="_top" xlink:title=" ">
<polygon fill="white" stroke="#666666" points="542,-551.63 423,-551.63 423,-532.63 542,-532.63 542,-551.63"/>
<text text-anchor="middle" x="482.5" y="-539.63" font-family="Helvetica,sans-Serif" font-size="10.00">ModelPart::getColour</text>
</a>
</g>
</g>
<!-- Node1&#45;&gt;Node5 -->
<g id="edge4_Node000001_Node000005" class="edge">
<title>Node1&#45;&gt;Node5</title>
<g id="a_edge4_Node000001_Node000005"><a xlink:title=" ">
<path fill="none" stroke="#63b8ff" d="M80.03,-339.26C89.7,-376.89 120.43,-474.67 187,-517.13 256.05,-561.17 353.48,-560.01 417.06,-552.9"/>
<polygon fill="#63b8ff" stroke="#63b8ff" points="417.84,-556.33 427.35,-551.66 417.01,-549.38 417.84,-556.33"/>
</a>
</g>
</g>
<!-- Node6 -->
<g id="Node000006" class="node">
<title>Node6</title>
<g id="a_Node000006"><a xlink:href="classModelPart.html#a508412880d7025d525ae018d9e1bbffc" target="_top" xlink:title=" ">
<polygon fill="white" stroke="#666666" points="718,-510.63 620,-510.63 620,-491.63 718,-491.63 718,-510.63"/>
<text text-anchor="middle" x="669" y="-498.63" font-family="Helvetica,sans-Serif" font-size="10.00">ModelPart::getID</text>
</a>
</g>
</g>
<!-- Node1&#45;&gt;Node6 -->
<g id="edge5_Node000001_Node000006" class="edge">
<title>Node1&#45;&gt;Node6</title>
<g id="a_edge5_Node000001_Node000006"><a xlink:title=" ">
<path fill="none" stroke="#63b8ff" d="M78.65,-339.4C85.5,-381.6 111,-499.97 187,-550.13 325.79,-641.73 400.11,-603.16 561,-561.13 593.67,-552.59 626.91,-531.62 647.49,-516.89"/>
<polygon fill="#63b8ff" stroke="#63b8ff" points="649.76,-519.56 655.75,-510.81 645.62,-513.92 649.76,-519.56"/>
</a>
</g>
</g>
<!-- Node7 -->
<g id="Node000007" class="node">
<title>Node7</title>
<g id="a_Node000007"><a xlink:href="classModelPart.html#a3e83ff5e16369fecf12deaf91d9a6bfe" target="_top" xlink:title=" ">
<polygon fill="white" stroke="#666666" points="561,-398.63 404,-398.63 404,-379.63 561,-379.63 561,-398.63"/>
<text text-anchor="middle" x="482.5" y="-386.63" font-family="Helvetica,sans-Serif" font-size="10.00">ModelPart::getShrinkEnabled</text>
</a>
</g>
</g>
<!-- Node1&#45;&gt;Node7 -->
<g id="edge7_Node000001_Node000007" class="edge">
<title>Node1&#45;&gt;Node7</title>
<g id="a_edge7_Node000001_Node000007"><a xlink:title=" ">
<path fill="none" stroke="#63b8ff" d="M151.16,-331.46C210.27,-337.85 294.79,-348.25 368,-362.13 384.2,-365.2 387.97,-367.26 404,-371.13 412.3,-373.13 421.11,-375.21 429.7,-377.22"/>
<polygon fill="#63b8ff" stroke="#63b8ff" points="429.11,-380.68 439.64,-379.54 430.7,-373.86 429.11,-380.68"/>
</a>
</g>
</g>
<!-- Node8 -->
<g id="Node000008" class="node">
<title>Node8</title>
<g id="a_Node000008"><a xlink:href="classModelPart.html#a54fd5c6a6ff47dacfa30980eb3a5c647" target="_top" xlink:title=" ">
<polygon fill="white" stroke="#666666" points="542.5,-361.63 422.5,-361.63 422.5,-342.63 542.5,-342.63 542.5,-361.63"/>
<text text-anchor="middle" x="482.5" y="-349.63" font-family="Helvetica,sans-Serif" font-size="10.00">ModelPart::getVisible</text>
</a>
</g>
</g>
<!-- Node1&#45;&gt;Node8 -->
<g id="edge8_Node000001_Node000008" class="edge">
<title>Node1&#45;&gt;Node8</title>
<g id="a_edge8_Node000001_Node000008"><a xlink:title=" ">
<path fill="none" stroke="#63b8ff" d="M110.75,-309.02C166.79,-286.61 280.57,-250.92 368,-287.13 388.91,-295.79 384.97,-310.89 404,-323.13 414,-329.56 425.63,-334.87 436.8,-339.1"/>
<polygon fill="#63b8ff" stroke="#63b8ff" points="435.84,-342.47 446.44,-342.55 438.2,-335.88 435.84,-342.47"/>
</a>
</g>
</g>
<!-- Node9 -->
<g id="Node000009" class="node">
<title>Node9</title>
<g id="a_Node000009"><a xlink:href="classModelPartList.html#a225589f4c5c4117bc8a23016618b2c96" target="_top" xlink:title=" ">
<polygon fill="white" stroke="#666666" points="335.5,-238.63 219.5,-238.63 219.5,-219.63 335.5,-219.63 335.5,-238.63"/>
<text text-anchor="middle" x="277.5" y="-226.63" font-family="Helvetica,sans-Serif" font-size="10.00">ModelPartList::index</text>
</a>
</g>
</g>
<!-- Node1&#45;&gt;Node9 -->
<g id="edge9_Node000001_Node000009" class="edge">
<title>Node1&#45;&gt;Node9</title>
<g id="a_edge9_Node000001_Node000009"><a xlink:title=" ">
<path fill="none" stroke="#63b8ff" d="M95.81,-309.07C117.07,-293.14 152.8,-268.26 187,-253.13 197.47,-248.5 209.03,-244.59 220.27,-241.35"/>
<polygon fill="#63b8ff" stroke="#63b8ff" points="221.31,-244.7 230.03,-238.69 219.46,-237.95 221.31,-244.7"/>
</a>
</g>
</g>
<!-- Node13 -->
<g id="Node000013" class="node">
<title>Node13</title>
<g id="a_Node000013"><a xlink:href="classVRRenderThread.html#a0e5e7126b3e42c9d98fc14d1cd983fdf" target="_top" xlink:title=" ">
<polygon fill="white" stroke="#666666" points="367.5,-314.63 187.5,-314.63 187.5,-295.63 367.5,-295.63 367.5,-314.63"/>
<text text-anchor="middle" x="277.5" y="-302.63" font-family="Helvetica,sans-Serif" font-size="10.00">VRRenderThread::issueCommand</text>
</a>
</g>
</g>
<!-- Node1&#45;&gt;Node13 -->
<g id="edge16_Node000001_Node000013" class="edge">
<title>Node1&#45;&gt;Node13</title>
<g id="a_edge16_Node000001_Node000013"><a xlink:title=" ">
<path fill="none" stroke="#63b8ff" d="M151.26,-317.03C159.71,-316.22 168.42,-315.4 177.13,-314.57"/>
<polygon fill="#63b8ff" stroke="#63b8ff" points="177.7,-318.03 187.32,-313.6 177.04,-311.06 177.7,-318.03"/>
</a>
</g>
</g>
<!-- Node14 -->
<g id="Node000014" class="node">
<title>Node14</title>
<g id="a_Node000014"><a xlink:href="classOptionDialog.html#a5f2578ef11d7940ca5821f2fcbf79e4d" target="_top" xlink:title=" ">
<polygon fill="white" stroke="#666666" points="368,-476.63 187,-476.63 187,-457.63 368,-457.63 368,-476.63"/>
<text text-anchor="middle" x="277.5" y="-464.63" font-family="Helvetica,sans-Serif" font-size="10.00">OptionDialog::loadFromModelPart</text>
</a>
</g>
</g>
<!-- Node1&#45;&gt;Node14 -->
<g id="edge17_Node000001_Node000014" class="edge">
<title>Node1&#45;&gt;Node14</title>
<g id="a_edge17_Node000001_Node000014"><a xlink:title=" ">
<path fill="none" stroke="#63b8ff" d="M86.41,-339.47C103.7,-364.97 141.84,-415.92 187,-443.13 194.61,-447.71 203.1,-451.44 211.74,-454.46"/>
<polygon fill="#63b8ff" stroke="#63b8ff" points="210.92,-457.87 221.51,-457.58 213.05,-451.2 210.92,-457.87"/>
</a>
</g>
</g>
<!-- Node16 -->
<g id="Node000016" class="node">
<title>Node16</title>
<g id="a_Node000016"><a xlink:href="classMainWindow.html#a591d52182acedb4f591a2409e28f4142" target="_top" xlink:title=" ">
<polygon fill="white" stroke="#666666" points="366.5,-401.13 188.5,-401.13 188.5,-371.13 366.5,-371.13 366.5,-401.13"/>
<text text-anchor="start" x="196.5" y="-389.13" font-family="Helvetica,sans-Serif" font-size="10.00">MainWindow::onCurrentSelection</text>
<text text-anchor="middle" x="277.5" y="-378.13" font-family="Helvetica,sans-Serif" font-size="10.00">Changed</text>
</a>
</g>
</g>
<!-- Node1&#45;&gt;Node16 -->
<g id="edge24_Node000001_Node000016" class="edge">
<title>Node1&#45;&gt;Node16</title>
<g id="a_edge24_Node000001_Node000016"><a xlink:title=" ">
<path fill="none" stroke="#63b8ff" d="M124.91,-339.14C152.96,-347.83 188.46,-358.83 218.05,-368.01"/>
<polygon fill="#63b8ff" stroke="#63b8ff" points="217.25,-371.43 227.84,-371.04 219.32,-364.74 217.25,-371.43"/>
</a>
</g>
</g>
<!-- Node17 -->
<g id="Node000017" class="node">
<title>Node17</title>
<g id="a_Node000017"><a xlink:href="classModelPartList.html#a9e220715b6f1ba9d238a997454323634" target="_top" xlink:title=" ">
<polygon fill="white" stroke="#666666" points="345,-201.63 210,-201.63 210,-182.63 345,-182.63 345,-201.63"/>
<text text-anchor="middle" x="277.5" y="-189.63" font-family="Helvetica,sans-Serif" font-size="10.00">ModelPartList::rowCount</text>
</a>
</g>
</g>
<!-- Node1&#45;&gt;Node17 -->
<g id="edge28_Node000001_Node000017" class="edge">
<title>Node1&#45;&gt;Node17</title>
<g id="a_edge28_Node000001_Node000017"><a xlink:title=" ">
<path fill="none" stroke="#63b8ff" d="M86.67,-308.73C104.06,-283.74 142,-234.7 187,-210.13 191.21,-207.83 195.68,-205.82 200.29,-204.07"/>
<polygon fill="#63b8ff" stroke="#63b8ff" points="201.54,-207.34 209.89,-200.82 199.3,-200.71 201.54,-207.34"/>
</a>
</g>
</g>
<!-- Node19 -->
<g id="Node000019" class="node">
<title>Node19</title>
<g id="a_Node000019"><a xlink:href="classOptionDialog.html#a8cbe60aecbb7344f560f424ed537b47a" target="_top" xlink:title=" ">
<polygon fill="white" stroke="#666666" points="362,-147.63 193,-147.63 193,-128.63 362,-128.63 362,-147.63"/>
<text text-anchor="middle" x="277.5" y="-135.63" font-family="Helvetica,sans-Serif" font-size="10.00">OptionDialog::saveToModelPart</text>
</a>
</g>
</g>
<!-- Node1&#45;&gt;Node19 -->
<g id="edge31_Node000001_Node000019" class="edge">
<title>Node1&#45;&gt;Node19</title>
<g id="a_edge31_Node000001_Node000019"><a xlink:title=" ">
<path fill="none" stroke="#63b8ff" d="M83.78,-309.07C98.96,-279.15 136.8,-211.76 187,-173.13 199.35,-163.62 214.61,-156.39 229.01,-151.04"/>
<polygon fill="#63b8ff" stroke="#63b8ff" points="230.5,-154.23 238.79,-147.64 228.2,-147.62 230.5,-154.23"/>
</a>
</g>
</g>
<!-- Node26 -->
<g id="Node000026" class="node">
<title>Node26</title>
<g id="a_Node000026"><a xlink:href="classMainWindow.html#a86443ea744fda3e9bad328c2fd1c3d6b" target="_top" xlink:title=" ">
<polygon fill="white" stroke="#666666" points="352.5,-110.13 202.5,-110.13 202.5,-80.13 352.5,-80.13 352.5,-110.13"/>
<text text-anchor="start" x="210.5" y="-98.13" font-family="Helvetica,sans-Serif" font-size="10.00">MainWindow::statusUpdate</text>
<text text-anchor="middle" x="277.5" y="-87.13" font-family="Helvetica,sans-Serif" font-size="10.00">Message</text>
</a>
</g>
</g>
<!-- Node1&#45;&gt;Node26 -->
<g id="edge45_Node000001_Node000026" class="edge">
<title>Node1&#45;&gt;Node26</title>
<g id="a_edge45_Node000001_Node000026"><a xlink:title=" ">
<path fill="none" stroke="#63b8ff" d="M80.17,-309.08C90.24,-271.07 121.99,-170.55 187,-119.13 189.04,-117.51 191.18,-116.01 193.41,-114.6"/>
<polygon fill="#63b8ff" stroke="#63b8ff" points="195.27,-117.57 202.32,-109.66 191.87,-111.45 195.27,-117.57"/>
</a>
</g>
</g>
<!-- Node27 -->
<g id="Node000027" class="node">
<title>Node27</title>
<g id="a_Node000027"><a xlink:href="classMainWindow.html#aa2a5945f9c4bf90022f0a7ad3db34c49" target="_top" xlink:title=" ">
<polygon fill="white" stroke="#666666" points="354,-61.63 201,-61.63 201,-42.63 354,-42.63 354,-61.63"/>
<text text-anchor="middle" x="277.5" y="-49.63" font-family="Helvetica,sans-Serif" font-size="10.00">MainWindow::updateRender</text>
</a>
</g>
</g>
<!-- Node1&#45;&gt;Node27 -->
<g id="edge46_Node000001_Node000027" class="edge">
<title>Node1&#45;&gt;Node27</title>
<g id="a_edge46_Node000001_Node000027"><a xlink:title=" ">
<path fill="none" stroke="#63b8ff" d="M78.32,-309.04C84.49,-264.85 108.81,-134.89 187,-71.13 189.05,-69.46 191.2,-67.93 193.45,-66.52"/>
<polygon fill="#63b8ff" stroke="#63b8ff" points="195.33,-69.49 202.51,-61.7 192.04,-63.31 195.33,-69.49"/>
</a>
</g>
</g>
<!-- Node3 -->
<g id="Node000003" class="node">
<title>Node3</title>
<g id="a_Node000003"><a xlink:href="classModelPart.html#a05bc0dd06a3658d9a2c46fa717dec910" target="_top" xlink:title=" ">
<polygon fill="white" stroke="#666666" points="866,-191.63 777,-191.63 777,-172.63 866,-172.63 866,-191.63"/>
<text text-anchor="middle" x="821.5" y="-179.63" font-family="Helvetica,sans-Serif" font-size="10.00">ModelPart::row</text>
</a>
</g>
</g>
<!-- Node2&#45;&gt;Node3 -->
<g id="edge2_Node000002_Node000003" class="edge">
<title>Node2&#45;&gt;Node3</title>
<g id="a_edge2_Node000002_Node000003"><a xlink:title=" ">
<path fill="none" stroke="#63b8ff" d="M529.03,-497.35C539.86,-494.72 551.13,-491.1 561,-486.13 654.78,-438.92 675.35,-415.07 741,-333.13 774.99,-290.71 801.09,-231.53 813.16,-201.41"/>
<polygon fill="#63b8ff" stroke="#63b8ff" points="816.57,-202.3 816.95,-191.71 810.05,-199.74 816.57,-202.3"/>
</a>
</g>
</g>
<!-- Node6&#45;&gt;Node3 -->
<g id="edge6_Node000006_Node000003" class="edge">
<title>Node6&#45;&gt;Node3</title>
<g id="a_edge6_Node000006_Node000003"><a xlink:title=" ">
<path fill="none" stroke="#63b8ff" d="M682.02,-491.62C697.7,-478.63 725,-453.87 741,-427.13 786.74,-350.69 809.43,-244.87 817.25,-201.67"/>
<polygon fill="#63b8ff" stroke="#63b8ff" points="820.73,-202.11 819,-191.66 813.83,-200.91 820.73,-202.11"/>
</a>
</g>
</g>
<!-- Node10 -->
<g id="Node000010" class="node">
<title>Node10</title>
<g id="a_Node000010"><a xlink:href="classModelPart.html#af32381b69415f0aa6bdfd84435f842cc" target="_top" xlink:title=" ">
<polygon fill="white" stroke="#666666" points="716.5,-323.63 621.5,-323.63 621.5,-304.63 716.5,-304.63 716.5,-323.63"/>
<text text-anchor="middle" x="669" y="-311.63" font-family="Helvetica,sans-Serif" font-size="10.00">ModelPart::child</text>
</a>
</g>
</g>
<!-- Node9&#45;&gt;Node10 -->
<g id="edge10_Node000009_Node000010" class="edge">
<title>Node9&#45;&gt;Node10</title>
<g id="a_edge10_Node000009_Node000010"><a xlink:title=" ">
<path fill="none" stroke="#63b8ff" d="M307.68,-238.69C332.96,-246.75 370.63,-258.2 404,-266.13 474.89,-282.97 557.71,-297.15 611.42,-305.64"/>
<polygon fill="#63b8ff" stroke="#63b8ff" points="611.01,-309.11 621.43,-307.21 612.09,-302.2 611.01,-309.11"/>
</a>
</g>
</g>
<!-- Node11 -->
<g id="Node000011" class="node">
<title>Node11</title>
<g id="a_Node000011"><a xlink:href="classModelPartList.html#a95162d13f90586be9b645f02cc4694f4" target="_top" xlink:title=" ">
<polygon fill="white" stroke="#666666" points="542.5,-256.63 422.5,-256.63 422.5,-237.63 542.5,-237.63 542.5,-256.63"/>
<text text-anchor="middle" x="482.5" y="-244.63" font-family="Helvetica,sans-Serif" font-size="10.00">ModelPartList::parent</text>
</a>
</g>
</g>
<!-- Node9&#45;&gt;Node11 -->
<g id="edge12_Node000009_Node000011" class="edge">
<title>Node9&#45;&gt;Node11</title>
<g id="a_edge12_Node000009_Node000011"><a xlink:title=" ">
<path fill="none" stroke="#63b8ff" d="M335.59,-228.05C364.52,-229.77 399.45,-232.9 427.87,-236.34"/>
<polygon fill="#63b8ff" stroke="#63b8ff" points="427.67,-239.84 438.03,-237.62 428.55,-232.9 427.67,-239.84"/>
</a>
</g>
</g>
<!-- Node10&#45;&gt;Node3 -->
<g id="edge11_Node000010_Node000003" class="edge">
<title>Node10&#45;&gt;Node3</title>
<g id="a_edge11_Node000010_Node000003"><a xlink:title=" ">
<path fill="none" stroke="#63b8ff" d="M712.24,-304.53C722.26,-301.03 732.49,-296.35 741,-290.13 773.73,-266.21 798.72,-224.86 811.35,-200.86"/>
<polygon fill="#63b8ff" stroke="#63b8ff" points="814.58,-202.24 815.99,-191.74 808.34,-199.06 814.58,-202.24"/>
</a>
</g>
</g>
<!-- Node11&#45;&gt;Node3 -->
<g id="edge15_Node000011_Node000003" class="edge">
<title>Node11&#45;&gt;Node3</title>
<g id="a_edge15_Node000011_Node000003"><a xlink:title=" ">
<path fill="none" stroke="#63b8ff" d="M517.87,-256.73C568.67,-269.09 665.86,-285.69 741,-256.13 769.65,-244.86 794.1,-217.86 808.04,-199.78"/>
<polygon fill="#63b8ff" stroke="#63b8ff" points="810.87,-201.85 814.02,-191.73 805.25,-197.68 810.87,-201.85"/>
</a>
</g>
</g>
<!-- Node11&#45;&gt;Node9 -->
<g id="edge13_Node000011_Node000009" class="edge">
<title>Node11&#45;&gt;Node9</title>
<g id="a_edge13_Node000011_Node000009"><a xlink:title=" ">
<path fill="none" stroke="#63b8ff" d="M422.24,-248.08C393.81,-246.34 360.01,-243.29 332.33,-239.94"/>
<polygon fill="#63b8ff" stroke="#63b8ff" points="332.41,-236.42 322.05,-238.65 331.53,-243.37 332.41,-236.42"/>
</a>
</g>
</g>
<!-- Node12 -->
<g id="Node000012" class="node">
<title>Node12</title>
<g id="a_Node000012"><a xlink:href="classModelPart.html#a9be3859d2a298e88d850a2480b7639f7" target="_top" xlink:title=" ">
<polygon fill="white" stroke="#666666" points="731.5,-247.63 606.5,-247.63 606.5,-228.63 731.5,-228.63 731.5,-247.63"/>
<text text-anchor="middle" x="669" y="-235.63" font-family="Helvetica,sans-Serif" font-size="10.00">ModelPart::parentItem</text>
</a>
</g>
</g>
<!-- Node11&#45;&gt;Node12 -->
<g id="edge14_Node000011_Node000012" class="edge">
<title>Node11&#45;&gt;Node12</title>
<g id="a_edge14_Node000011_Node000012"><a xlink:title=" ">
<path fill="none" stroke="#63b8ff" d="M542.64,-244.24C559.64,-243.41 578.38,-242.5 596.07,-241.64"/>
<polygon fill="#63b8ff" stroke="#63b8ff" points="596.52,-245.12 606.34,-241.14 596.18,-238.13 596.52,-245.12"/>
</a>
</g>
</g>
<!-- Node14&#45;&gt;Node2 -->
<g id="edge18_Node000014_Node000002" class="edge">
<title>Node14&#45;&gt;Node2</title>
<g id="a_edge18_Node000014_Node000002"><a xlink:title=" ">
<path fill="none" stroke="#63b8ff" d="M330.78,-476.66C359.89,-481.96 396.12,-488.57 425.77,-493.97"/>
<polygon fill="#63b8ff" stroke="#63b8ff" points="425.49,-497.48 435.96,-495.83 426.75,-490.59 425.49,-497.48"/>
</a>
</g>
</g>
<!-- Node14&#45;&gt;Node4 -->
<g id="edge19_Node000014_Node000004" class="edge">
<title>Node14&#45;&gt;Node4</title>
<g id="a_edge19_Node000014_Node000004"><a xlink:title=" ">
<path fill="none" stroke="#63b8ff" d="M329.46,-457.59C357.09,-452.42 391.43,-445.99 420.48,-440.55"/>
<polygon fill="#63b8ff" stroke="#63b8ff" points="421.33,-443.95 430.52,-438.67 420.04,-437.07 421.33,-443.95"/>
</a>
</g>
</g>
<!-- Node14&#45;&gt;Node5 -->
<g id="edge20_Node000014_Node000005" class="edge">
<title>Node14&#45;&gt;Node5</title>
<g id="a_edge20_Node000014_Node000005"><a xlink:title=" ">
<path fill="none" stroke="#63b8ff" d="M297.21,-476.75C321.37,-488.88 364.95,-509.75 404,-523.13 411.37,-525.65 419.25,-527.99 427.05,-530.09"/>
<polygon fill="#63b8ff" stroke="#63b8ff" points="426.28,-533.51 436.84,-532.63 428.04,-526.73 426.28,-533.51"/>
</a>
</g>
</g>
<!-- Node14&#45;&gt;Node7 -->
<g id="edge21_Node000014_Node000007" class="edge">
<title>Node14&#45;&gt;Node7</title>
<g id="a_edge21_Node000014_Node000007"><a xlink:title=" ">
<path fill="none" stroke="#63b8ff" d="M297.71,-457.52C322.03,-445.6 365.42,-425.13 404,-411.13 413.56,-407.66 423.95,-404.38 433.92,-401.47"/>
<polygon fill="#63b8ff" stroke="#63b8ff" points="435.05,-404.79 443.71,-398.69 433.13,-398.06 435.05,-404.79"/>
</a>
</g>
</g>
<!-- Node14&#45;&gt;Node8 -->
<g id="edge22_Node000014_Node000008" class="edge">
<title>Node14&#45;&gt;Node8</title>
<g id="a_edge22_Node000014_Node000008"><a xlink:title=" ">
<path fill="none" stroke="#63b8ff" d="M296.58,-457.46C315.34,-447.01 345.1,-429.27 368,-410.13 386.1,-395 383.68,-383.11 404,-371.13 407.69,-368.95 411.62,-367.02 415.68,-365.31"/>
<polygon fill="#63b8ff" stroke="#63b8ff" points="417.19,-368.49 425.33,-361.72 414.74,-361.93 417.19,-368.49"/>
</a>
</g>
</g>
<!-- Node15 -->
<g id="Node000015" class="node">
<title>Node15</title>
<g id="a_Node000015"><a xlink:href="classOptionDialog.html#a6cacec6df5a0f100fdb66c7e3e860288" target="_top" xlink:title=" ">
<polygon fill="white" stroke="#666666" points="560,-476.63 405,-476.63 405,-457.63 560,-457.63 560,-476.63"/>
<text text-anchor="middle" x="482.5" y="-464.63" font-family="Helvetica,sans-Serif" font-size="10.00">OptionDialog::updateSwatch</text>
</a>
</g>
</g>
<!-- Node14&#45;&gt;Node15 -->
<g id="edge23_Node000014_Node000015" class="edge">
<title>Node14&#45;&gt;Node15</title>
<g id="a_edge23_Node000014_Node000015"><a xlink:title=" ">
<path fill="none" stroke="#63b8ff" d="M368.13,-467.13C376.91,-467.13 385.81,-467.13 394.56,-467.13"/>
<polygon fill="#63b8ff" stroke="#63b8ff" points="394.75,-470.63 404.75,-467.13 394.75,-463.63 394.75,-470.63"/>
</a>
</g>
</g>
<!-- Node16&#45;&gt;Node4 -->
<g id="edge25_Node000016_Node000004" class="edge">
<title>Node16&#45;&gt;Node4</title>
<g id="a_edge25_Node000016_Node000004"><a xlink:title=" ">
<path fill="none" stroke="#63b8ff" d="M349.5,-401.17C374.81,-406.53 402.91,-412.48 426.66,-417.51"/>
<polygon fill="#63b8ff" stroke="#63b8ff" points="426.04,-420.96 436.55,-419.61 427.49,-414.11 426.04,-420.96"/>
</a>
</g>
</g>
<!-- Node16&#45;&gt;Node7 -->
<g id="edge26_Node000016_Node000007" class="edge">
<title>Node16&#45;&gt;Node7</title>
<g id="a_edge26_Node000016_Node000007"><a xlink:title=" ">
<path fill="none" stroke="#63b8ff" d="M366.65,-387.43C375.67,-387.56 384.83,-387.7 393.85,-387.83"/>
<polygon fill="#63b8ff" stroke="#63b8ff" points="393.89,-391.33 403.94,-387.98 393.99,-384.34 393.89,-391.33"/>
</a>
</g>
</g>
<!-- Node16&#45;&gt;Node8 -->
<g id="edge27_Node000016_Node000008" class="edge">
<title>Node16&#45;&gt;Node8</title>
<g id="a_edge27_Node000016_Node000008"><a xlink:title=" ">
<path fill="none" stroke="#63b8ff" d="M366.65,-371.36C382.8,-368.66 399.41,-365.88 414.81,-363.3"/>
<polygon fill="#63b8ff" stroke="#63b8ff" points="415.45,-366.74 424.73,-361.64 414.29,-359.84 415.45,-366.74"/>
</a>
</g>
</g>
<!-- Node17&#45;&gt;Node11 -->
<g id="edge30_Node000017_Node000011" class="edge">
<title>Node17&#45;&gt;Node11</title>
<g id="a_edge30_Node000017_Node000011"><a xlink:title=" ">
<path fill="none" stroke="#63b8ff" d="M337.35,-201.64C347.69,-203.97 358.26,-206.78 368,-210.13 384.92,-215.94 387.21,-221.96 404,-228.13 410.79,-230.62 418.04,-232.89 425.28,-234.92"/>
<polygon fill="#63b8ff" stroke="#63b8ff" points="424.53,-238.35 435.09,-237.54 426.33,-231.58 424.53,-238.35"/>
</a>
</g>
</g>
<!-- Node18 -->
<g id="Node000018" class="node">
<title>Node18</title>
<g id="a_Node000018"><a xlink:href="classModelPart.html#aea4bb035b2b3827c0abf677fb9dc68ce" target="_top" xlink:title=" ">
<polygon fill="white" stroke="#666666" points="544,-219.63 421,-219.63 421,-200.63 544,-200.63 544,-219.63"/>
<text text-anchor="middle" x="482.5" y="-207.63" font-family="Helvetica,sans-Serif" font-size="10.00">ModelPart::childCount</text>
</a>
</g>
</g>
<!-- Node17&#45;&gt;Node18 -->
<g id="edge29_Node000017_Node000018" class="edge">
<title>Node17&#45;&gt;Node18</title>
<g id="a_edge29_Node000017_Node000018"><a xlink:title=" ">
<path fill="none" stroke="#63b8ff" d="M345.25,-198.05C366.21,-199.91 389.41,-201.96 410.64,-203.85"/>
<polygon fill="#63b8ff" stroke="#63b8ff" points="410.61,-207.36 420.88,-204.75 411.23,-200.38 410.61,-207.36"/>
</a>
</g>
</g>
<!-- Node20 -->
<g id="Node000020" class="node">
<title>Node20</title>
<g id="a_Node000020"><a xlink:href="classModelPart.html#a2baa7057c98d5dc4c9b5303ca54d083d" target="_top" xlink:title=" ">
<polygon fill="white" stroke="#666666" points="547.5,-105.63 417.5,-105.63 417.5,-86.63 547.5,-86.63 547.5,-105.63"/>
<text text-anchor="middle" x="482.5" y="-93.63" font-family="Helvetica,sans-Serif" font-size="10.00">ModelPart::setClipFilter</text>
</a>
</g>
</g>
<!-- Node19&#45;&gt;Node20 -->
<g id="edge32_Node000019_Node000020" class="edge">
<title>Node19&#45;&gt;Node20</title>
<g id="a_edge32_Node000019_Node000020"><a xlink:title=" ">
<path fill="none" stroke="#63b8ff" d="M324.56,-128.6C354.44,-122.42 393.55,-114.33 425.25,-107.77"/>
<polygon fill="#63b8ff" stroke="#63b8ff" points="426.18,-111.15 435.27,-105.69 424.77,-104.29 426.18,-111.15"/>
</a>
</g>
</g>
<!-- Node22 -->
<g id="Node000022" class="node">
<title>Node22</title>
<g id="a_Node000022"><a xlink:href="classModelPart.html#abb0819f303fea07fdc053ba750d4684d" target="_top" xlink:title=" ">
<polygon fill="white" stroke="#666666" points="728,-173.63 610,-173.63 610,-154.63 728,-154.63 728,-173.63"/>
<text text-anchor="middle" x="669" y="-161.63" font-family="Helvetica,sans-Serif" font-size="10.00">ModelPart::setColour</text>
</a>
</g>
</g>
<!-- Node19&#45;&gt;Node22 -->
<g id="edge36_Node000019_Node000022" class="edge">
<title>Node19&#45;&gt;Node22</title>
<g id="a_edge36_Node000019_Node000022"><a xlink:title=" ">
<path fill="none" stroke="#63b8ff" d="M362.06,-143.71C432.93,-148.44 533.34,-155.14 599.53,-159.56"/>
<polygon fill="#63b8ff" stroke="#63b8ff" points="599.64,-163.07 609.85,-160.25 600.1,-156.09 599.64,-163.07"/>
</a>
</g>
</g>
<!-- Node23 -->
<g id="Node000023" class="node">
<title>Node23</title>
<g id="a_Node000023"><a xlink:href="classModelPart.html#a1b0dd7d3e3953b1aa8a4a44a7aa1349b" target="_top" xlink:title=" ">
<polygon fill="white" stroke="#666666" points="724,-21.63 614,-21.63 614,-2.63 724,-2.63 724,-21.63"/>
<text text-anchor="middle" x="669" y="-9.63" font-family="Helvetica,sans-Serif" font-size="10.00">ModelPart::setData</text>
</a>
</g>
</g>
<!-- Node19&#45;&gt;Node23 -->
<g id="edge38_Node000019_Node000023" class="edge">
<title>Node19&#45;&gt;Node23</title>
<g id="a_edge38_Node000019_Node000023"><a xlink:title=" ">
<path fill="none" stroke="#63b8ff" d="M352.43,-128.48C358.01,-125.98 363.29,-122.91 368,-119.13 398.09,-94.98 372.7,-62.69 404,-40.13 461.85,1.56 546.2,3.09 603.89,-2.23"/>
<polygon fill="#63b8ff" stroke="#63b8ff" points="603.68,-5.73 613.98,-3.26 604.38,1.24 603.68,-5.73"/>
</a>
</g>
</g>
<!-- Node24 -->
<g id="Node000024" class="node">
<title>Node24</title>
<g id="a_Node000024"><a xlink:href="classModelPart.html#a0d01c433eb1019cb9d41f75ee389687c" target="_top" xlink:title=" ">
<polygon fill="white" stroke="#666666" points="553.5,-68.63 411.5,-68.63 411.5,-49.63 553.5,-49.63 553.5,-68.63"/>
<text text-anchor="middle" x="482.5" y="-56.63" font-family="Helvetica,sans-Serif" font-size="10.00">ModelPart::setShrinkFilter</text>
</a>
</g>
</g>
<!-- Node19&#45;&gt;Node24 -->
<g id="edge40_Node000019_Node000024" class="edge">
<title>Node19&#45;&gt;Node24</title>
<g id="a_edge40_Node000019_Node000024"><a xlink:title=" ">
<path fill="none" stroke="#63b8ff" d="M346.76,-128.59C354.2,-126.12 361.44,-123.02 368,-119.13 389.14,-106.58 382.98,-89.88 404,-77.13 406.83,-75.41 409.82,-73.85 412.9,-72.45"/>
<polygon fill="#63b8ff" stroke="#63b8ff" points="414.39,-75.62 422.38,-68.66 411.79,-69.12 414.39,-75.62"/>
</a>
</g>
</g>
<!-- Node25 -->
<g id="Node000025" class="node">
<title>Node25</title>
<g id="a_Node000025"><a xlink:href="classModelPart.html#a4cfdee348fd6870756ce836f67b1ce75" target="_top" xlink:title=" ">
<polygon fill="white" stroke="#666666" points="728.5,-210.63 609.5,-210.63 609.5,-191.63 728.5,-191.63 728.5,-210.63"/>
<text text-anchor="middle" x="669" y="-198.63" font-family="Helvetica,sans-Serif" font-size="10.00">ModelPart::setVisible</text>
</a>
</g>
</g>
<!-- Node19&#45;&gt;Node25 -->
<g id="edge43_Node000019_Node000025" class="edge">
<title>Node19&#45;&gt;Node25</title>
<g id="a_edge43_Node000019_Node000025"><a xlink:title=" ">
<path fill="none" stroke="#63b8ff" d="M337.66,-147.7C407.88,-159.06 524.8,-177.97 599.06,-189.98"/>
<polygon fill="#63b8ff" stroke="#63b8ff" points="598.81,-193.48 609.24,-191.63 599.93,-186.57 598.81,-193.48"/>
</a>
</g>
</g>
<!-- Node20&#45;&gt;Node3 -->
<g id="edge35_Node000020_Node000003" class="edge">
<title>Node20&#45;&gt;Node3</title>
<g id="a_edge35_Node000020_Node000003"><a xlink:title=" ">
<path fill="none" stroke="#63b8ff" d="M547.56,-103.83C600.34,-111.23 676.68,-124.4 741,-145.13 759.3,-151.03 778.9,-160.12 794.06,-167.81"/>
<polygon fill="#63b8ff" stroke="#63b8ff" points="792.83,-171.11 803.32,-172.61 796.06,-164.9 792.83,-171.11"/>
</a>
</g>
</g>
<!-- Node21 -->
<g id="Node000021" class="node">
<title>Node21</title>
<g id="a_Node000021"><a xlink:href="classModelPart.html#ad1a6f921de90d0e8d3fb710d445c9593" target="_top" xlink:title=" ">
<polygon fill="white" stroke="#666666" points="741,-97.63 597,-97.63 597,-78.63 741,-78.63 741,-97.63"/>
<text text-anchor="middle" x="669" y="-85.63" font-family="Helvetica,sans-Serif" font-size="10.00">ModelPart::rebuildPipeline</text>
</a>
</g>
</g>
<!-- Node20&#45;&gt;Node21 -->
<g id="edge33_Node000020_Node000021" class="edge">
<title>Node20&#45;&gt;Node21</title>
<g id="a_edge33_Node000020_Node000021"><a xlink:title=" ">
<path fill="none" stroke="#63b8ff" d="M547.51,-93.35C560.2,-92.8 573.68,-92.22 586.85,-91.65"/>
<polygon fill="#63b8ff" stroke="#63b8ff" points="587.01,-95.14 596.85,-91.21 586.7,-88.15 587.01,-95.14"/>
</a>
</g>
</g>
<!-- Node21&#45;&gt;Node3 -->
<g id="edge34_Node000021_Node000003" class="edge">
<title>Node21&#45;&gt;Node3</title>
<g id="a_edge34_Node000021_Node000003"><a xlink:title=" ">
<path fill="none" stroke="#63b8ff" d="M707.32,-97.68C718.55,-101.36 730.64,-106.14 741,-112.13 765.68,-126.39 789.61,-149.04 804.66,-164.69"/>
<polygon fill="#63b8ff" stroke="#63b8ff" points="802.28,-167.27 811.68,-172.16 807.38,-162.48 802.28,-167.27"/>
</a>
</g>
</g>
<!-- Node22&#45;&gt;Node3 -->
<g id="edge37_Node000022_Node000003" class="edge">
<title>Node22&#45;&gt;Node3</title>
<g id="a_edge37_Node000022_Node000003"><a xlink:title=" ">
<path fill="none" stroke="#63b8ff" d="M728.19,-171.09C740.85,-172.6 754.2,-174.2 766.69,-175.69"/>
<polygon fill="#63b8ff" stroke="#63b8ff" points="766.6,-179.21 776.94,-176.92 767.43,-172.26 766.6,-179.21"/>
</a>
</g>
</g>
<!-- Node23&#45;&gt;Node3 -->
<g id="edge39_Node000023_Node000003" class="edge">
<title>Node23&#45;&gt;Node3</title>
<g id="a_edge39_Node000023_Node000003"><a xlink:title=" ">
<path fill="none" stroke="#63b8ff" d="M715.09,-21.74C724.34,-25.19 733.53,-29.85 741,-36.13 781.91,-70.52 805.23,-131.54 815,-162.68"/>
<polygon fill="#63b8ff" stroke="#63b8ff" points="811.68,-163.78 817.9,-172.36 818.39,-161.77 811.68,-163.78"/>
</a>
</g>
</g>
<!-- Node24&#45;&gt;Node3 -->
<g id="edge42_Node000024_Node000003" class="edge">
<title>Node24&#45;&gt;Node3</title>
<g id="a_edge42_Node000024_Node000003"><a xlink:title=" ">
<path fill="none" stroke="#63b8ff" d="M527.59,-49.61C581.48,-40.39 673.8,-32.57 741,-69.13 778.76,-89.67 802.61,-136.83 813.52,-163.27"/>
<polygon fill="#63b8ff" stroke="#63b8ff" points="810.27,-164.57 817.19,-172.6 816.79,-162.01 810.27,-164.57"/>
</a>
</g>
</g>
<!-- Node24&#45;&gt;Node21 -->
<g id="edge41_Node000024_Node000021" class="edge">
<title>Node24&#45;&gt;Node21</title>
<g id="a_edge41_Node000024_Node000021"><a xlink:title=" ">
<path fill="none" stroke="#63b8ff" d="M544.17,-68.66C561.11,-71.33 579.67,-74.25 597.15,-76.99"/>
<polygon fill="#63b8ff" stroke="#63b8ff" points="596.87,-80.49 607.3,-78.59 597.96,-73.58 596.87,-80.49"/>
</a>
</g>
</g>
<!-- Node25&#45;&gt;Node3 -->
<g id="edge44_Node000025_Node000003" class="edge">
<title>Node25&#45;&gt;Node3</title>
<g id="a_edge44_Node000025_Node000003"><a xlink:title=" ">
<path fill="none" stroke="#63b8ff" d="M728.62,-193.73C741.13,-192.15 754.28,-190.49 766.6,-188.93"/>
<polygon fill="#63b8ff" stroke="#63b8ff" points="767.24,-192.38 776.73,-187.66 766.37,-185.44 767.24,-192.38"/>
</a>
</g>
</g>
</g>
</svg>

<g id="navigator" transform="translate(0 0)" fill="#404254">
  <rect fill="#f2f5e9" fill-opacity="0.5" stroke="#606060" stroke-width=".5" x="0" y="0" width="60" height="60"/>
  <use id="zoomplus" xlink:href="#zoomPlus" x="17" y="9" onmousedown="handleZoom(evt,'in')"/>
  <use id="zoomminus" xlink:href="#zoomMin" x="42" y="9" onmousedown="handleZoom(evt,'out')"/>
  <use id="reset" xlink:href="#resetDef" x="30" y="36" onmousedown="handleReset()"/>
   <use id="arrowup" xlink:href="#arrowUp" x="0" y="0" onmousedown="handlePan(0,-1)"/>
  <use id="arrowright" xlink:href="#arrowRight" x="0" y="0" onmousedown="handlePan(1,0)"/>
  <use id="arrowdown" xlink:href="#arrowDown" x="0" y="0" onmousedown="handlePan(0,1)"/>
  <use id="arrowleft" xlink:href="#arrowLeft" x="0" y="0" onmousedown="handlePan(-1,0)"/>
</g>
<svg viewBox="0 0 15 15" width="100%" height="30px" preserveAspectRatio="xMaxYMin meet">
 <g id="arrow_out" transform="scale(0.3 0.3)">
  <a xlink:href="classMainWindow_ac0f0034dd8ee8a9cb96cf81366fca941_cgraph_org.svg" target="_base">
   <rect id="button" ry="5" rx="5" y="6" x="6" height="38" width="38"
        fill="#f2f5e9" fill-opacity="0.5" stroke="#606060" stroke-width="1.0"/>
   <path id="arrow"
     d="M 11.500037,31.436501 C 11.940474,20.09759 22.043105,11.32322 32.158766,21.979434 L 37.068811,17.246167 C 37.068811,17.246167 37.088388,32 37.088388,32 L 22.160133,31.978069 C 22.160133,31.978069 26.997745,27.140456 26.997745,27.140456 C 18.528582,18.264221 13.291696,25.230495 11.500037,31.436501 z"
     style="fill:#404040;"/>
  </a>
 </g>
</svg>

<style type='text/css'>
<![CDATA[
[data-mouse-over-selected='false'] { opacity: 0.7; }
[data-mouse-over-selected='true']  { opacity: 1.0; }
]]>
</style>
<script type="application/ecmascript"><![CDATA[
document.addEventListener('DOMContentLoaded', (event) => {
  highlightEdges();
  highlightAdjacentNodes();
});
]]></script>
</svg>
