<?xml version="1.0" encoding="UTF-8" standalone="no"?>
<!DOCTYPE svg PUBLIC "-//W3C//DTD SVG 1.1//EN"
 "http://www.w3.org/Graphics/SVG/1.1/DTD/svg11.dtd">
<!-- Generated by graphviz version 2.43.0 (0)
 -->
<!-- Title: VRGlobalMenu::toggle Pages: 1 -->
<svg width="1356pt" height="243pt"
 viewBox="0.00 0.00 1356.00 243.39" xmlns="http://www.w3.org/2000/svg" xmlns:xlink="http://www.w3.org/1999/xlink">
<g id="graph0" class="graph" transform="scale(1 1) rotate(0) translate(4 239.39)">
<title>VRGlobalMenu::toggle</title>
<!-- Node1 -->
<g id="Node000001" class="node">
<title>Node1</title>
<g id="a_Node000001"><a xlink:title=" ">
<polygon fill="#999999" stroke="#666666" points="125,-149.39 0,-149.39 0,-130.39 125,-130.39 125,-149.39"/>
<text text-anchor="middle" x="62.5" y="-137.39" font-family="Helvetica,sans-Serif" font-size="10.00">VRGlobalMenu::toggle</text>
</a>
</g>
</g>
<!-- Node2 -->
<g id="Node000002" class="node">
<title>Node2</title>
<g id="a_Node000002"><a xlink:href="structVRGlobalMenu.html#a1122b559c6f158649fdce6b1ad6d29cd" target="_top" xlink:title=" ">
<polygon fill="white" stroke="#666666" points="279,-168.39 163,-168.39 163,-149.39 279,-149.39 279,-168.39"/>
<text text-anchor="middle" x="221" y="-156.39" font-family="Helvetica,sans-Serif" font-size="10.00">VRGlobalMenu::hide</text>
</a>
</g>
</g>
<!-- Node1&#45;&gt;Node2 -->
<g id="edge1_Node000001_Node000002" class="edge">
<title>Node1&#45;&gt;Node2</title>
<g id="a_edge1_Node000001_Node000002"><a xlink:title=" ">
<path fill="none" stroke="#63b8ff" d="M125.35,-147.4C134.35,-148.5 143.66,-149.63 152.76,-150.73"/>
<polygon fill="#63b8ff" stroke="#63b8ff" points="152.57,-154.23 162.92,-151.96 153.42,-147.28 152.57,-154.23"/>
</a>
</g>
</g>
<!-- Node3 -->
<g id="Node000003" class="node">
<title>Node3</title>
<g id="a_Node000003"><a xlink:href="structVRGlobalMenu.html#a1f243a37508a4ed14866ae7c34c01c80" target="_top" xlink:title=" ">
<polygon fill="white" stroke="#666666" points="281,-131.39 161,-131.39 161,-112.39 281,-112.39 281,-131.39"/>
<text text-anchor="middle" x="221" y="-119.39" font-family="Helvetica,sans-Serif" font-size="10.00">VRGlobalMenu::show</text>
</a>
</g>
</g>
<!-- Node1&#45;&gt;Node3 -->
<g id="edge2_Node000001_Node000003" class="edge">
<title>Node1&#45;&gt;Node3</title>
<g id="a_edge2_Node000001_Node000003"><a xlink:title=" ">
<path fill="none" stroke="#63b8ff" d="M125.35,-132.78C133.67,-131.82 142.26,-130.84 150.7,-129.86"/>
<polygon fill="#63b8ff" stroke="#63b8ff" points="151.36,-133.31 160.89,-128.69 150.56,-126.36 151.36,-133.31"/>
</a>
</g>
</g>
<!-- Node4 -->
<g id="Node000004" class="node">
<title>Node4</title>
<g id="a_Node000004"><a xlink:href="structVRGlobalMenu.html#a6a28b32cd1505a84cf1106be64e48cb1" target="_top" xlink:title=" ">
<polygon fill="white" stroke="#666666" points="481,-131.39 317,-131.39 317,-112.39 481,-112.39 481,-131.39"/>
<text text-anchor="middle" x="399" y="-119.39" font-family="Helvetica,sans-Serif" font-size="10.00">VRGlobalMenu::rebuildTexture</text>
</a>
</g>
</g>
<!-- Node3&#45;&gt;Node4 -->
<g id="edge3_Node000003_Node000004" class="edge">
<title>Node3&#45;&gt;Node4</title>
<g id="a_edge3_Node000003_Node000004"><a xlink:title=" ">
<path fill="none" stroke="#63b8ff" d="M281.1,-121.89C289.35,-121.89 297.99,-121.89 306.66,-121.89"/>
<polygon fill="#63b8ff" stroke="#63b8ff" points="306.85,-125.39 316.85,-121.89 306.85,-118.39 306.85,-125.39"/>
</a>
</g>
</g>
<!-- Node5 -->
<g id="Node000005" class="node">
<title>Node5</title>
<g id="a_Node000005"><a xlink:href="structVRGlobalMenu.html#a195b79c8918b59b95cdc2b7372875902" target="_top" xlink:title=" ">
<polygon fill="white" stroke="#666666" points="671.5,-235.39 517.5,-235.39 517.5,-216.39 671.5,-216.39 671.5,-235.39"/>
<text text-anchor="middle" x="594.5" y="-223.39" font-family="Helvetica,sans-Serif" font-size="10.00">VRGlobalMenu::drawSwatch</text>
</a>
</g>
</g>
<!-- Node4&#45;&gt;Node5 -->
<g id="edge4_Node000004_Node000005" class="edge">
<title>Node4&#45;&gt;Node5</title>
<g id="a_edge4_Node000004_Node000005"><a xlink:title=" ">
<path fill="none" stroke="#63b8ff" d="M410.04,-131.53C429.21,-149.38 473.05,-187.61 517,-207.89 521.34,-209.9 525.92,-211.69 530.6,-213.29"/>
<polygon fill="#63b8ff" stroke="#63b8ff" points="529.71,-216.68 540.3,-216.31 531.8,-210 529.71,-216.68"/>
</a>
</g>
</g>
<!-- Node6 -->
<g id="Node000006" class="node">
<title>Node6</title>
<g id="a_Node000006"><a xlink:href="structVRGlobalMenu.html#a725ad657da9ca015c853216666aa199e" target="_top" xlink:title=" ">
<polygon fill="white" stroke="#666666" points="669.5,-198.39 519.5,-198.39 519.5,-179.39 669.5,-179.39 669.5,-198.39"/>
<text text-anchor="middle" x="594.5" y="-186.39" font-family="Helvetica,sans-Serif" font-size="10.00">VRGlobalMenu::drawToggle</text>
</a>
</g>
</g>
<!-- Node4&#45;&gt;Node6 -->
<g id="edge5_Node000004_Node000006" class="edge">
<title>Node4&#45;&gt;Node6</title>
<g id="a_edge5_Node000004_Node000006"><a xlink:title=" ">
<path fill="none" stroke="#63b8ff" d="M420.79,-131.5C443.92,-141.94 482.57,-158.62 517,-169.89 524.5,-172.35 532.5,-174.66 540.4,-176.77"/>
<polygon fill="#63b8ff" stroke="#63b8ff" points="539.74,-180.22 550.3,-179.33 541.49,-173.44 539.74,-180.22"/>
</a>
</g>
</g>
<!-- Node7 -->
<g id="Node000007" class="node">
<title>Node7</title>
<g id="a_Node000007"><a xlink:href="structVRGlobalMenu.html#a4fff26d20af7444685a276448da15c4e" target="_top" xlink:title=" ">
<polygon fill="white" stroke="#666666" points="672,-160.89 517,-160.89 517,-130.89 672,-130.89 672,-160.89"/>
<text text-anchor="start" x="525" y="-148.89" font-family="Helvetica,sans-Serif" font-size="10.00">VRGlobalMenu::selectedPart</text>
<text text-anchor="middle" x="594.5" y="-137.89" font-family="Helvetica,sans-Serif" font-size="10.00">ClipEnabled</text>
</a>
</g>
</g>
<!-- Node4&#45;&gt;Node7 -->
<g id="edge6_Node000004_Node000007" class="edge">
<title>Node4&#45;&gt;Node7</title>
<g id="a_edge6_Node000004_Node000007"><a xlink:title=" ">
<path fill="none" stroke="#63b8ff" d="M476.75,-131.41C486.65,-132.64 496.83,-133.9 506.87,-135.15"/>
<polygon fill="#63b8ff" stroke="#63b8ff" points="506.48,-138.63 516.84,-136.39 507.35,-131.68 506.48,-138.63"/>
</a>
</g>
</g>
<!-- Node14 -->
<g id="Node000014" class="node">
<title>Node14</title>
<g id="a_Node000014"><a xlink:href="structVRGlobalMenu.html#a50d7498a6a32df721c55375d99ae3a25" target="_top" xlink:title=" ">
<polygon fill="white" stroke="#666666" points="1064,-59.39 899,-59.39 899,-40.39 1064,-40.39 1064,-59.39"/>
<text text-anchor="middle" x="981.5" y="-47.39" font-family="Helvetica,sans-Serif" font-size="10.00">VRGlobalMenu::selectedPartID</text>
</a>
</g>
</g>
<!-- Node4&#45;&gt;Node14 -->
<g id="edge15_Node000004_Node000014" class="edge">
<title>Node4&#45;&gt;Node14</title>
<g id="a_edge15_Node000004_Node000014"><a xlink:title=" ">
<path fill="none" stroke="#63b8ff" d="M407.5,-112.35C424.38,-91.75 467.77,-43.51 517,-25.89 665.39,27.19 857.6,-14.85 940.04,-37.65"/>
<polygon fill="#63b8ff" stroke="#63b8ff" points="939.2,-41.05 949.78,-40.39 941.1,-34.31 939.2,-41.05"/>
</a>
</g>
</g>
<!-- Node15 -->
<g id="Node000015" class="node">
<title>Node15</title>
<g id="a_Node000015"><a xlink:href="structVRGlobalMenu.html#a54cd870962eed90aa664d67cc55435c3" target="_top" xlink:title=" ">
<polygon fill="white" stroke="#666666" points="672,-112.89 517,-112.89 517,-82.89 672,-82.89 672,-112.89"/>
<text text-anchor="start" x="525" y="-100.89" font-family="Helvetica,sans-Serif" font-size="10.00">VRGlobalMenu::selectedPart</text>
<text text-anchor="middle" x="594.5" y="-89.89" font-family="Helvetica,sans-Serif" font-size="10.00">ShrinkEnabled</text>
</a>
</g>
</g>
<!-- Node4&#45;&gt;Node15 -->
<g id="edge16_Node000004_Node000015" class="edge">
<title>Node4&#45;&gt;Node15</title>
<g id="a_edge16_Node000004_Node000015"><a xlink:title=" ">
<path fill="none" stroke="#63b8ff" d="M476.75,-112.37C486.65,-111.15 496.83,-109.88 506.87,-108.64"/>
<polygon fill="#63b8ff" stroke="#63b8ff" points="507.35,-112.11 516.84,-107.4 506.48,-105.16 507.35,-112.11"/>
</a>
</g>
</g>
<!-- Node16 -->
<g id="Node000016" class="node">
<title>Node16</title>
<g id="a_Node000016"><a xlink:href="structVRGlobalMenu.html#a1fcaa1825ae4896ba0a9dca27cf35b03" target="_top" xlink:title=" ">
<polygon fill="white" stroke="#666666" points="672,-64.89 517,-64.89 517,-34.89 672,-34.89 672,-64.89"/>
<text text-anchor="start" x="525" y="-52.89" font-family="Helvetica,sans-Serif" font-size="10.00">VRGlobalMenu::selectedPart</text>
<text text-anchor="middle" x="594.5" y="-41.89" font-family="Helvetica,sans-Serif" font-size="10.00">Visible</text>
</a>
</g>
</g>
<!-- Node4&#45;&gt;Node16 -->
<g id="edge18_Node000004_Node000016" class="edge">
<title>Node4&#45;&gt;Node16</title>
<g id="a_edge18_Node000004_Node000016"><a xlink:title=" ">
<path fill="none" stroke="#63b8ff" d="M421.78,-112.31C445.11,-102.19 483.34,-86.05 517,-73.89 522.45,-71.92 528.15,-69.96 533.88,-68.05"/>
<polygon fill="#63b8ff" stroke="#63b8ff" points="535.09,-71.34 543.5,-64.9 532.91,-64.69 535.09,-71.34"/>
</a>
</g>
</g>
<!-- Node8 -->
<g id="Node000008" class="node">
<title>Node8</title>
<g id="a_Node000008"><a xlink:href="structVRGlobalMenu.html#a87a36bddda395b9f09ba2416b958117a" target="_top" xlink:title=" ">
<polygon fill="white" stroke="#666666" points="863,-102.39 708,-102.39 708,-83.39 863,-83.39 863,-102.39"/>
<text text-anchor="middle" x="785.5" y="-90.39" font-family="Helvetica,sans-Serif" font-size="10.00">VRGlobalMenu::selectedPart</text>
</a>
</g>
</g>
<!-- Node7&#45;&gt;Node8 -->
<g id="edge7_Node000007_Node000008" class="edge">
<title>Node7&#45;&gt;Node8</title>
<g id="a_edge7_Node000007_Node000008"><a xlink:title=" ">
<path fill="none" stroke="#63b8ff" d="M649.15,-130.85C678.12,-122.73 713.42,-112.82 740.71,-105.17"/>
<polygon fill="#63b8ff" stroke="#63b8ff" points="741.69,-108.53 750.38,-102.46 739.8,-101.79 741.69,-108.53"/>
</a>
</g>
</g>
<!-- Node9 -->
<g id="Node000009" class="node">
<title>Node9</title>
<g id="a_Node000009"><a xlink:href="classModelPartList.html#ab1d1158c9fcdb4b7d1854ec618ff18d4" target="_top" xlink:title=" ">
<polygon fill="white" stroke="#666666" points="1046.5,-102.39 916.5,-102.39 916.5,-83.39 1046.5,-83.39 1046.5,-102.39"/>
<text text-anchor="middle" x="981.5" y="-90.39" font-family="Helvetica,sans-Serif" font-size="10.00">ModelPartList::findByID</text>
</a>
</g>
</g>
<!-- Node8&#45;&gt;Node9 -->
<g id="edge8_Node000008_Node000009" class="edge">
<title>Node8&#45;&gt;Node9</title>
<g id="a_edge8_Node000008_Node000009"><a xlink:title=" ">
<path fill="none" stroke="#63b8ff" d="M863.17,-92.89C877.32,-92.89 892.07,-92.89 906.15,-92.89"/>
<polygon fill="#63b8ff" stroke="#63b8ff" points="906.26,-96.39 916.26,-92.89 906.26,-89.39 906.26,-96.39"/>
</a>
</g>
</g>
<!-- Node8&#45;&gt;Node14 -->
<g id="edge14_Node000008_Node000014" class="edge">
<title>Node8&#45;&gt;Node14</title>
<g id="a_edge14_Node000008_Node000014"><a xlink:title=" ">
<path fill="none" stroke="#63b8ff" d="M829.55,-83.35C858.44,-76.95 896.68,-68.47 927.44,-61.65"/>
<polygon fill="#63b8ff" stroke="#63b8ff" points="928.56,-64.99 937.57,-59.41 927.04,-58.16 928.56,-64.99"/>
</a>
</g>
</g>
<!-- Node10 -->
<g id="Node000010" class="node">
<title>Node10</title>
<g id="a_Node000010"><a xlink:href="classModelPart.html#af32381b69415f0aa6bdfd84435f842cc" target="_top" xlink:title=" ">
<polygon fill="white" stroke="#666666" points="1209,-65.39 1114,-65.39 1114,-46.39 1209,-46.39 1209,-65.39"/>
<text text-anchor="middle" x="1161.5" y="-53.39" font-family="Helvetica,sans-Serif" font-size="10.00">ModelPart::child</text>
</a>
</g>
</g>
<!-- Node9&#45;&gt;Node10 -->
<g id="edge9_Node000009_Node000010" class="edge">
<title>Node9&#45;&gt;Node10</title>
<g id="a_edge9_Node000009_Node000010"><a xlink:title=" ">
<path fill="none" stroke="#63b8ff" d="M1028.34,-83.36C1051.61,-78.53 1080.07,-72.61 1104.61,-67.51"/>
<polygon fill="#63b8ff" stroke="#63b8ff" points="1105.43,-70.92 1114.51,-65.45 1104,-64.06 1105.43,-70.92"/>
</a>
</g>
</g>
<!-- Node12 -->
<g id="Node000012" class="node">
<title>Node12</title>
<g id="a_Node000012"><a xlink:href="classModelPart.html#aea4bb035b2b3827c0abf677fb9dc68ce" target="_top" xlink:title=" ">
<polygon fill="white" stroke="#666666" points="1223,-102.39 1100,-102.39 1100,-83.39 1223,-83.39 1223,-102.39"/>
<text text-anchor="middle" x="1161.5" y="-90.39" font-family="Helvetica,sans-Serif" font-size="10.00">ModelPart::childCount</text>
</a>
</g>
</g>
<!-- Node9&#45;&gt;Node12 -->
<g id="edge11_Node000009_Node000012" class="edge">
<title>Node9&#45;&gt;Node12</title>
<g id="a_edge11_Node000009_Node000012"><a xlink:title=" ">
<path fill="none" stroke="#63b8ff" d="M1046.51,-92.89C1060.47,-92.89 1075.31,-92.89 1089.52,-92.89"/>
<polygon fill="#63b8ff" stroke="#63b8ff" points="1089.73,-96.39 1099.73,-92.89 1089.73,-89.39 1089.73,-96.39"/>
</a>
</g>
</g>
<!-- Node13 -->
<g id="Node000013" class="node">
<title>Node13</title>
<g id="a_Node000013"><a xlink:href="classModelPart.html#a508412880d7025d525ae018d9e1bbffc" target="_top" xlink:title=" ">
<polygon fill="white" stroke="#666666" points="1210.5,-139.39 1112.5,-139.39 1112.5,-120.39 1210.5,-120.39 1210.5,-139.39"/>
<text text-anchor="middle" x="1161.5" y="-127.39" font-family="Helvetica,sans-Serif" font-size="10.00">ModelPart::getID</text>
</a>
</g>
</g>
<!-- Node9&#45;&gt;Node13 -->
<g id="edge12_Node000009_Node000013" class="edge">
<title>Node9&#45;&gt;Node13</title>
<g id="a_edge12_Node000009_Node000013"><a xlink:title=" ">
<path fill="none" stroke="#63b8ff" d="M1028.34,-102.42C1051.61,-107.26 1080.07,-113.17 1104.61,-118.28"/>
<polygon fill="#63b8ff" stroke="#63b8ff" points="1104,-121.72 1114.51,-120.33 1105.43,-114.87 1104,-121.72"/>
</a>
</g>
</g>
<!-- Node11 -->
<g id="Node000011" class="node">
<title>Node11</title>
<g id="a_Node000011"><a xlink:href="classModelPart.html#a05bc0dd06a3658d9a2c46fa717dec910" target="_top" xlink:title=" ">
<polygon fill="white" stroke="#666666" points="1348,-102.39 1259,-102.39 1259,-83.39 1348,-83.39 1348,-102.39"/>
<text text-anchor="middle" x="1303.5" y="-90.39" font-family="Helvetica,sans-Serif" font-size="10.00">ModelPart::row</text>
</a>
</g>
</g>
<!-- Node10&#45;&gt;Node11 -->
<g id="edge10_Node000010_Node000011" class="edge">
<title>Node10&#45;&gt;Node11</title>
<g id="a_edge10_Node000010_Node000011"><a xlink:title=" ">
<path fill="none" stroke="#63b8ff" d="M1198.55,-65.42C1216.13,-70.07 1237.48,-75.71 1256.25,-80.67"/>
<polygon fill="#63b8ff" stroke="#63b8ff" points="1255.52,-84.1 1266.08,-83.27 1257.31,-77.33 1255.52,-84.1"/>
</a>
</g>
</g>
<!-- Node13&#45;&gt;Node11 -->
<g id="edge13_Node000013_Node000011" class="edge">
<title>Node13&#45;&gt;Node11</title>
<g id="a_edge13_Node000013_Node000011"><a xlink:title=" ">
<path fill="none" stroke="#63b8ff" d="M1198.55,-120.36C1216.13,-115.72 1237.48,-110.08 1256.25,-105.12"/>
<polygon fill="#63b8ff" stroke="#63b8ff" points="1257.31,-108.46 1266.08,-102.52 1255.52,-101.69 1257.31,-108.46"/>
</a>
</g>
</g>
<!-- Node15&#45;&gt;Node8 -->
<g id="edge17_Node000015_Node000008" class="edge">
<title>Node15&#45;&gt;Node8</title>
<g id="a_edge17_Node000015_Node000008"><a xlink:title=" ">
<path fill="none" stroke="#63b8ff" d="M672.1,-95.87C680.56,-95.64 689.22,-95.41 697.79,-95.19"/>
<polygon fill="#63b8ff" stroke="#63b8ff" points="697.89,-98.69 707.79,-94.92 697.7,-91.69 697.89,-98.69"/>
</a>
</g>
</g>
<!-- Node16&#45;&gt;Node8 -->
<g id="edge19_Node000016_Node000008" class="edge">
<title>Node16&#45;&gt;Node8</title>
<g id="a_edge19_Node000016_Node000008"><a xlink:title=" ">
<path fill="none" stroke="#63b8ff" d="M661.6,-64.93C684.96,-70.25 710.86,-76.14 732.85,-81.14"/>
<polygon fill="#63b8ff" stroke="#63b8ff" points="732.12,-84.57 742.65,-83.37 733.67,-77.74 732.12,-84.57"/>
</a>
</g>
</g>
<!-- Node16&#45;&gt;Node14 -->
<g id="edge20_Node000016_Node000014" class="edge">
<title>Node16&#45;&gt;Node14</title>
<g id="a_edge20_Node000016_Node000014"><a xlink:title=" ">
<path fill="none" stroke="#63b8ff" d="M672.02,-49.89C734.39,-49.89 822.65,-49.89 888.8,-49.89"/>
<polygon fill="#63b8ff" stroke="#63b8ff" points="888.8,-53.39 898.8,-49.89 888.8,-46.39 888.8,-53.39"/>
</a>
</g>
</g>
</g>
</svg>
