<?xml version="1.0" encoding="UTF-8" standalone="no"?>
<!DOCTYPE svg PUBLIC "-//W3C//DTD SVG 1.1//EN"
 "http://www.w3.org/Graphics/SVG/1.1/DTD/svg11.dtd">
<!-- Generated by graphviz version 14.1.5 (20260411.2331)
 -->
<!-- Title: MainWindow::on_toggleShrink_toggled Pages: 1 -->
<!--zoomable 193 -->

<svg id="main" version="1.1" xmlns="http://www.w3.org/2000/svg" xmlns:xlink="http://www.w3.org/1999/xlink" xml:space="preserve" onload="init(evt)">

<style type="text/css"><![CDATA[
.node, .edge {opacity: 0.7;}
.node.selected, .edge.selected {opacity: 1;}
.edge:hover path { stroke: red; }
.edge:hover polygon { stroke: red; fill: red; }
]]></style>

<defs>
  <circle id="rim" cx="0" cy="0" r="7"/>
  <circle id="rim2" cx="0" cy="0" r="3.5"/>
  <g id="zoomPlus">
    <use xlink:href="#rim" fill="#404040"><set attributeName="fill" to="#808080" begin="zoomplus.mouseover" end="zoomplus.mouseout"/></use>
    <path d="M-4,0h8M0,-4v8" fill="none" stroke="white" stroke-width="1.5" pointer-events="none"/>
  </g>
  <g id="zoomMin">
    <use xlink:href="#rim" fill="#404040"><set attributeName="fill" to="#808080" begin="zoomminus.mouseover" end="zoomminus.mouseout"/></use>
    <path d="M-4,0h8" fill="none" stroke="white" stroke-width="1.5" pointer-events="none"/>
  </g>
  <g id="arrowUp" transform="translate(30 24)">
    <use xlink:href="#rim"/>
    <path pointer-events="none" fill="none" stroke="white" stroke-width="1.5" d="M0,-3.0v7 M-2.5,-0.5L0,-3.0L2.5,-0.5"/>
  </g>
  <g id="arrowRight" transform="rotate(90) translate(36 -43)">
    <use xlink:href="#rim"/>
    <path pointer-events="none" fill="none" stroke="white" stroke-width="1.5" d="M0,-3.0v7 M-2.5,-0.5L0,-3.0L2.5,-0.5"/>
  </g>
  <g id="arrowDown" transform="rotate(180) translate(-30 -48)">
    <use xlink:href="#rim"/>
    <path pointer-events="none" fill="none" stroke="white" stroke-width="1.5" d="M0,-3.0v7 M-2.5,-0.5L0,-3.0L2.5,-0.5"/>
  </g>
  <g id="arrowLeft" transform="rotate(270) translate(-36 17)">
    <use xlink:href="#rim"/>
    <path pointer-events="none" fill="none" stroke="white" stroke-width="1.5" d="M0,-3.0v7 M-2.5,-0.5L0,-3.0L2.5,-0.5"/>
  </g>
  <g id="resetDef">
    <use xlink:href="#rim2" fill="#404040"><set attributeName="fill" to="#808080" begin="reset.mouseover" end="reset.mouseout"/></use>
  </g>
</defs>
<script type="application/ecmascript">
var viewWidth = 645;
var viewHeight = 193;
var sectionId = 'dynsection-32';
</script>
<script type="application/ecmascript" xlink:href="svg.min.js"/>
<svg id="graph" class="graph">
<g id="viewport">
<title>MainWindow::on_toggleShrink_toggled</title>
<!-- Node1 -->
<g id="Node000001" class="node">
<title>Node1</title>
<g id="a_Node000001"><a xlink:title=" ">
<polygon fill="#999999" stroke="#666666" points="148,-116.5 0,-116.5 0,-86 148,-86 148,-116.5"/>
<text xml:space="preserve" text-anchor="start" x="8" y="-103" font-family="Helvetica,sans-Serif" font-size="10.00">MainWindow::on_toggleShrink</text>
<text xml:space="preserve" text-anchor="middle" x="74" y="-91.75" font-family="Helvetica,sans-Serif" font-size="10.00">_toggled</text>
</a>
</g>
</g>
<!-- Node2 -->
<g id="Node000002" class="node">
<title>Node2</title>
<g id="a_Node000002"><a xlink:href="class_main_window.html#a3c769f260aadd2fef6ad5218df03ae74" target="_top" xlink:title="Helper: get the currently selected ModelPart, or nullptr.">
<polygon fill="white" stroke="#666666" points="316.62,-184.88 190.38,-184.88 190.38,-165.62 316.62,-165.62 316.62,-184.88"/>
<text xml:space="preserve" text-anchor="middle" x="253.5" y="-171.38" font-family="Helvetica,sans-Serif" font-size="10.00">MainWindow::currentPart</text>
</a>
</g>
</g>
<!-- Node1&#45;&gt;Node2 -->
<g id="edge1_Node000001_Node000002" class="edge">
<title>Node1&#45;&gt;Node2</title>
<g id="a_edge1_Node000001_Node000002"><a xlink:title=" ">
<path fill="none" stroke="#63b8ff" d="M101.57,-116.98C123.19,-129.26 154.79,-146.06 184,-157.25 188.39,-158.93 193,-160.51 197.66,-161.99"/>
<polygon fill="#63b8ff" stroke="#63b8ff" points="196.53,-165.3 207.11,-164.79 198.52,-158.59 196.53,-165.3"/>
</a>
</g>
</g>
<!-- Node3 -->
<g id="Node000003" class="node">
<title>Node3</title>
<g id="a_Node000003"><a xlink:href="class_model_part.html#a178655da543bd0dae2d0ed1e2ea38a56" target="_top" xlink:title=" ">
<polygon fill="white" stroke="#666666" points="296,-147.88 211,-147.88 211,-128.62 296,-128.62 296,-147.88"/>
<text xml:space="preserve" text-anchor="middle" x="253.5" y="-134.38" font-family="Helvetica,sans-Serif" font-size="10.00">ModelPart::data</text>
</a>
</g>
</g>
<!-- Node1&#45;&gt;Node3 -->
<g id="edge2_Node000001_Node000003" class="edge">
<title>Node1&#45;&gt;Node3</title>
<g id="a_edge2_Node000001_Node000003"><a xlink:title=" ">
<path fill="none" stroke="#63b8ff" d="M148.48,-116.57C165.51,-120.12 183.33,-123.83 199.3,-127.16"/>
<polygon fill="#63b8ff" stroke="#63b8ff" points="198.58,-130.59 209.08,-129.2 200.01,-123.73 198.58,-130.59"/>
</a>
</g>
</g>
<!-- Node4 -->
<g id="Node000004" class="node">
<title>Node4</title>
<g id="a_Node000004"><a xlink:href="class_model_part.html#a0d01c433eb1019cb9d41f75ee389687c" target="_top" xlink:title="Enable or disable the shrink filter.">
<polygon fill="white" stroke="#666666" points="318.12,-110.88 188.88,-110.88 188.88,-91.62 318.12,-91.62 318.12,-110.88"/>
<text xml:space="preserve" text-anchor="middle" x="253.5" y="-97.38" font-family="Helvetica,sans-Serif" font-size="10.00">ModelPart::setShrinkFilter</text>
</a>
</g>
</g>
<!-- Node1&#45;&gt;Node4 -->
<g id="edge3_Node000001_Node000004" class="edge">
<title>Node1&#45;&gt;Node4</title>
<g id="a_edge3_Node000001_Node000004"><a xlink:title=" ">
<path fill="none" stroke="#63b8ff" d="M148.48,-101.25C157.9,-101.25 167.56,-101.25 177.02,-101.25"/>
<polygon fill="#63b8ff" stroke="#63b8ff" points="176.91,-104.75 186.91,-101.25 176.91,-97.75 176.91,-104.75"/>
</a>
</g>
</g>
<!-- Node6 -->
<g id="Node000006" class="node">
<title>Node6</title>
<g id="a_Node000006"><a xlink:href="class_main_window.html#a86443ea744fda3e9bad328c2fd1c3d6b" target="_top" xlink:title=" ">
<polygon fill="white" stroke="#666666" points="321.88,-73.5 185.12,-73.5 185.12,-43 321.88,-43 321.88,-73.5"/>
<text xml:space="preserve" text-anchor="start" x="193.12" y="-60" font-family="Helvetica,sans-Serif" font-size="10.00">MainWindow::statusUpdate</text>
<text xml:space="preserve" text-anchor="middle" x="253.5" y="-48.75" font-family="Helvetica,sans-Serif" font-size="10.00">Message</text>
</a>
</g>
</g>
<!-- Node1&#45;&gt;Node6 -->
<g id="edge5_Node000001_Node000006" class="edge">
<title>Node1&#45;&gt;Node6</title>
<g id="a_edge5_Node000001_Node000006"><a xlink:title=" ">
<path fill="none" stroke="#63b8ff" d="M139.84,-85.54C151.74,-82.66 164.26,-79.63 176.46,-76.67"/>
<polygon fill="#63b8ff" stroke="#63b8ff" points="177.18,-80.1 186.07,-74.34 175.53,-73.3 177.18,-80.1"/>
</a>
</g>
</g>
<!-- Node7 -->
<g id="Node000007" class="node">
<title>Node7</title>
<g id="a_Node000007"><a xlink:href="class_main_window.html#aa2a5945f9c4bf90022f0a7ad3db34c49" target="_top" xlink:title=" ">
<polygon fill="white" stroke="#666666" points="323,-24.88 184,-24.88 184,-5.63 323,-5.63 323,-24.88"/>
<text xml:space="preserve" text-anchor="middle" x="253.5" y="-11.38" font-family="Helvetica,sans-Serif" font-size="10.00">MainWindow::updateRender</text>
</a>
</g>
</g>
<!-- Node1&#45;&gt;Node7 -->
<g id="edge6_Node000001_Node000007" class="edge">
<title>Node1&#45;&gt;Node7</title>
<g id="a_edge6_Node000001_Node000007"><a xlink:title=" ">
<path fill="none" stroke="#63b8ff" d="M96.14,-85.76C117.42,-70.79 151.62,-48.36 184,-34.25 188.58,-32.26 193.42,-30.42 198.33,-28.73"/>
<polygon fill="#63b8ff" stroke="#63b8ff" points="199.2,-32.13 207.66,-25.76 197.07,-25.46 199.2,-32.13"/>
</a>
</g>
</g>
<!-- Node5 -->
<g id="Node000005" class="node">
<title>Node5</title>
<g id="a_Node000005"><a xlink:href="class_model_part.html#ad1a6f921de90d0e8d3fb710d445c9593" target="_top" xlink:title="Rebuild the mapper/actor with the current filter settings.">
<polygon fill="white" stroke="#666666" points="493.12,-110.88 363.88,-110.88 363.88,-91.62 493.12,-91.62 493.12,-110.88"/>
<text xml:space="preserve" text-anchor="middle" x="428.5" y="-97.38" font-family="Helvetica,sans-Serif" font-size="10.00">ModelPart::rebuildPipeline</text>
</a>
</g>
</g>
<!-- Node4&#45;&gt;Node5 -->
<g id="edge4_Node000004_Node000005" class="edge">
<title>Node4&#45;&gt;Node5</title>
<g id="a_edge4_Node000004_Node000005"><a xlink:title=" ">
<path fill="none" stroke="#63b8ff" d="M318.43,-101.25C329.47,-101.25 341.05,-101.25 352.35,-101.25"/>
<polygon fill="#63b8ff" stroke="#63b8ff" points="352.03,-104.75 362.03,-101.25 352.03,-97.75 352.03,-104.75"/>
</a>
</g>
</g>
<!-- Node8 -->
<g id="Node000008" class="node">
<title>Node8</title>
<g id="a_Node000008"><a xlink:href="class_main_window.html#a3efc38e6be895f53a3f973906e4174b8" target="_top" xlink:title=" ">
<polygon fill="white" stroke="#666666" points="498,-30.5 359,-30.5 359,0 498,0 498,-30.5"/>
<text xml:space="preserve" text-anchor="start" x="367" y="-17" font-family="Helvetica,sans-Serif" font-size="10.00">MainWindow::updateRender</text>
<text xml:space="preserve" text-anchor="middle" x="428.5" y="-5.75" font-family="Helvetica,sans-Serif" font-size="10.00">FromTree</text>
</a>
</g>
</g>
<!-- Node7&#45;&gt;Node8 -->
<g id="edge7_Node000007_Node000008" class="edge">
<title>Node7&#45;&gt;Node8</title>
<g id="a_edge7_Node000007_Node000008"><a xlink:title=" ">
<path fill="none" stroke="#63b8ff" d="M323.37,-15.25C331.25,-15.25 339.33,-15.25 347.34,-15.25"/>
<polygon fill="#63b8ff" stroke="#63b8ff" points="347.07,-18.75 357.07,-15.25 347.07,-11.75 347.07,-18.75"/>
</a>
</g>
</g>
<!-- Node8&#45;&gt;Node8 -->
<g id="edge9_Node000008_Node000008" class="edge">
<title>Node8&#45;&gt;Node8</title>
<g id="a_edge9_Node000008_Node000008"><a xlink:title=" ">
<path fill="none" stroke="#63b8ff" d="M400.68,-30.99C395,-40.06 404.28,-48.5 428.5,-48.5 441.75,-48.5 450.52,-45.97 454.83,-42.2"/>
<polygon fill="#63b8ff" stroke="#63b8ff" points="458.27,-42.86 456.12,-32.49 451.33,-41.94 458.27,-42.86"/>
</a>
</g>
</g>
<!-- Node9 -->
<g id="Node000009" class="node">
<title>Node9</title>
<g id="a_Node000009"><a xlink:href="class_model_part.html#a3d845a3cb1d357a0c2f4ffb131e73116" target="_top" xlink:title=" ">
<polygon fill="white" stroke="#666666" points="637,-24.88 534,-24.88 534,-5.63 637,-5.63 637,-24.88"/>
<text xml:space="preserve" text-anchor="middle" x="585.5" y="-11.38" font-family="Helvetica,sans-Serif" font-size="10.00">ModelPart::getActor</text>
</a>
</g>
</g>
<!-- Node8&#45;&gt;Node9 -->
<g id="edge8_Node000008_Node000009" class="edge">
<title>Node8&#45;&gt;Node9</title>
<g id="a_edge8_Node000008_Node000009"><a xlink:title=" ">
<path fill="none" stroke="#63b8ff" d="M498.39,-15.25C506.43,-15.25 514.59,-15.25 522.53,-15.25"/>
<polygon fill="#63b8ff" stroke="#63b8ff" points="522.44,-18.75 532.44,-15.25 522.44,-11.75 522.44,-18.75"/>
</a>
</g>
</g>
</g>
</svg>

<g id="navigator" transform="translate(0 0)" fill="#404254">
  <rect fill="#f2f5e9" fill-opacity="0.5" stroke="#606060" stroke-width=".5" x="0" y="0" width="60" height="60"/>
  <use id="zoomplus" xlink:href="#zoomPlus" x="17" y="9" onmousedown="handleZoom(evt,'in')"/>
  <use id="zoomminus" xlink:href="#zoomMin" x="42" y="9" onmousedown="handleZoom(evt,'out')"/>
  <use id="reset" xlink:href="#resetDef" x="30" y="36" onmousedown="handleReset()"/>
   <use id="arrowup" xlink:href="#arrowUp" x="0" y="0" onmousedown="handlePan(0,-1)"/>
  <use id="arrowright" xlink:href="#arrowRight" x="0" y="0" onmousedown="handlePan(1,0)"/>
  <use id="arrowdown" xlink:href="#arrowDown" x="0" y="0" onmousedown="handlePan(0,1)"/>
  <use id="arrowleft" xlink:href="#arrowLeft" x="0" y="0" onmousedown="handlePan(-1,0)"/>
</g>
<svg viewBox="0 0 15 15" width="100%" height="30px" preserveAspectRatio="xMaxYMin meet">
 <g id="arrow_out" transform="scale(0.3 0.3)">
  <a xlink:href="class_main_window_aa898f33303bb3b0cd4b4dee5fde9fed0_cgraph_org.svg" target="_base">
   <rect id="button" ry="5" rx="5" y="6" x="6" height="38" width="38"
        fill="#f2f5e9" fill-opacity="0.5" stroke="#606060" stroke-width="1.0"/>
   <path id="arrow"
     d="M 11.500037,31.436501 C 11.940474,20.09759 22.043105,11.32322 32.158766,21.979434 L 37.068811,17.246167 C 37.068811,17.246167 37.088388,32 37.088388,32 L 22.160133,31.978069 C 22.160133,31.978069 26.997745,27.140456 26.997745,27.140456 C 18.528582,18.264221 13.291696,25.230495 11.500037,31.436501 z"
     style="fill:#404040;"/>
  </a>
 </g>
</svg>

<style type='text/css'>
<![CDATA[
[data-mouse-over-selected='false'] { opacity: 0.7; }
[data-mouse-over-selected='true']  { opacity: 1.0; }
]]>
</style>
<script type="application/ecmascript"><![CDATA[
document.addEventListener('DOMContentLoaded', (event) => {
  highlightEdges();
  highlightAdjacentNodes();
});
]]></script>
</svg>
