<?xml version="1.0" encoding="UTF-8" standalone="no"?>
<!DOCTYPE svg PUBLIC "-//W3C//DTD SVG 1.1//EN"
 "http://www.w3.org/Graphics/SVG/1.1/DTD/svg11.dtd">
<!-- Generated by graphviz version 14.1.5 (20260411.2331)
 -->
<!-- Title: MainWindow::handleButton2 Pages: 1 -->
<svg width="662pt" height="353pt"
 viewBox="0.00 0.00 662.00 353.00" xmlns="http://www.w3.org/2000/svg" xmlns:xlink="http://www.w3.org/1999/xlink">
<g id="graph0" class="graph" transform="scale(1 1) rotate(0) translate(4 348.88)">
<title>MainWindow::handleButton2</title>
<!-- Node1 -->
<g id="Node000001" class="node">
<title>Node1</title>
<g id="a_Node000001"><a xlink:title="Opens OptionDialog for the selected tree item; saves and re&#45;renders on accept.">
<polygon fill="#999999" stroke="#666666" points="140.5,-140.88 0,-140.88 0,-121.62 140.5,-121.62 140.5,-140.88"/>
<text xml:space="preserve" text-anchor="middle" x="70.25" y="-127.38" font-family="Helvetica,sans-Serif" font-size="10.00">MainWindow::handleButton2</text>
</a>
</g>
</g>
<!-- Node2 -->
<g id="Node000002" class="node">
<title>Node2</title>
<g id="a_Node000002"><a xlink:href="class_model_part.html#a178655da543bd0dae2d0ed1e2ea38a56" target="_top" xlink:title="Returns the display data for the given column.">
<polygon fill="white" stroke="#666666" points="487.5,-344.88 402.5,-344.88 402.5,-325.62 487.5,-325.62 487.5,-344.88"/>
<text xml:space="preserve" text-anchor="middle" x="445" y="-331.38" font-family="Helvetica,sans-Serif" font-size="10.00">ModelPart::data</text>
</a>
</g>
</g>
<!-- Node1&#45;&gt;Node2 -->
<g id="edge1_Node000001_Node000002" class="edge">
<title>Node1&#45;&gt;Node2</title>
<g id="a_edge1_Node000001_Node000002"><a xlink:title=" ">
<path fill="none" stroke="#63b8ff" d="M76.39,-141.13C89.56,-165.46 127.02,-228.67 176.5,-261.25 242.58,-304.76 333.93,-322.9 390.96,-330.31"/>
<polygon fill="#63b8ff" stroke="#63b8ff" points="390.38,-333.77 400.73,-331.51 391.23,-326.82 390.38,-333.77"/>
</a>
</g>
</g>
<!-- Node3 -->
<g id="Node000003" class="node">
<title>Node3</title>
<g id="a_Node000003"><a xlink:href="class_option_dialog.html#a5f2578ef11d7940ca5821f2fcbf79e4d" target="_top" xlink:title="Populates all dialog fields from the given ModelPart.">
<polygon fill="white" stroke="#666666" points="339.5,-251.88 176.5,-251.88 176.5,-232.62 339.5,-232.62 339.5,-251.88"/>
<text xml:space="preserve" text-anchor="middle" x="258" y="-238.38" font-family="Helvetica,sans-Serif" font-size="10.00">OptionDialog::loadFromModelPart</text>
</a>
</g>
</g>
<!-- Node1&#45;&gt;Node3 -->
<g id="edge2_Node000001_Node000003" class="edge">
<title>Node1&#45;&gt;Node3</title>
<g id="a_edge2_Node000001_Node000003"><a xlink:title=" ">
<path fill="none" stroke="#63b8ff" d="M88.06,-141.3C120.44,-160.65 191.69,-203.22 230.51,-226.42"/>
<polygon fill="#63b8ff" stroke="#63b8ff" points="228.41,-229.24 238.79,-231.37 232,-223.24 228.41,-229.24"/>
</a>
</g>
</g>
<!-- Node8 -->
<g id="Node000008" class="node">
<title>Node8</title>
<g id="a_Node000008"><a xlink:href="class_option_dialog.html#a8cbe60aecbb7344f560f424ed537b47a" target="_top" xlink:title="Writes the dialog&#39;s current field values back to the given ModelPart.">
<polygon fill="white" stroke="#666666" points="335,-140.88 181,-140.88 181,-121.62 335,-121.62 335,-140.88"/>
<text xml:space="preserve" text-anchor="middle" x="258" y="-127.38" font-family="Helvetica,sans-Serif" font-size="10.00">OptionDialog::saveToModelPart</text>
</a>
</g>
</g>
<!-- Node1&#45;&gt;Node8 -->
<g id="edge8_Node000001_Node000008" class="edge">
<title>Node1&#45;&gt;Node8</title>
<g id="a_edge8_Node000001_Node000008"><a xlink:title=" ">
<path fill="none" stroke="#63b8ff" d="M140.94,-131.25C150.17,-131.25 159.71,-131.25 169.19,-131.25"/>
<polygon fill="#63b8ff" stroke="#63b8ff" points="169.17,-134.75 179.17,-131.25 169.17,-127.75 169.17,-134.75"/>
</a>
</g>
</g>
<!-- Node12 -->
<g id="Node000012" class="node">
<title>Node12</title>
<g id="a_Node000012"><a xlink:href="class_main_window.html#a86443ea744fda3e9bad328c2fd1c3d6b" target="_top" xlink:title="Emitted to display a message in the main window&#39;s status bar.">
<polygon fill="white" stroke="#666666" points="326.38,-103.5 189.62,-103.5 189.62,-73 326.38,-73 326.38,-103.5"/>
<text xml:space="preserve" text-anchor="start" x="197.62" y="-90" font-family="Helvetica,sans-Serif" font-size="10.00">MainWindow::statusUpdate</text>
<text xml:space="preserve" text-anchor="middle" x="258" y="-78.75" font-family="Helvetica,sans-Serif" font-size="10.00">Message</text>
</a>
</g>
</g>
<!-- Node1&#45;&gt;Node12 -->
<g id="edge12_Node000001_Node000012" class="edge">
<title>Node1&#45;&gt;Node12</title>
<g id="a_edge12_Node000001_Node000012"><a xlink:title=" ">
<path fill="none" stroke="#63b8ff" d="M114.8,-121.17C133.79,-116.77 156.65,-111.48 178.44,-106.44"/>
<polygon fill="#63b8ff" stroke="#63b8ff" points="178.94,-109.91 187.89,-104.25 177.36,-103.09 178.94,-109.91"/>
</a>
</g>
</g>
<!-- Node13 -->
<g id="Node000013" class="node">
<title>Node13</title>
<g id="a_Node000013"><a xlink:href="class_main_window.html#aa2a5945f9c4bf90022f0a7ad3db34c49" target="_top" xlink:title="Clears the renderer and re&#45;adds actors for every part in the tree.">
<polygon fill="white" stroke="#666666" points="327.5,-48.88 188.5,-48.88 188.5,-29.62 327.5,-29.62 327.5,-48.88"/>
<text xml:space="preserve" text-anchor="middle" x="258" y="-35.38" font-family="Helvetica,sans-Serif" font-size="10.00">MainWindow::updateRender</text>
</a>
</g>
</g>
<!-- Node1&#45;&gt;Node13 -->
<g id="edge13_Node000001_Node000013" class="edge">
<title>Node1&#45;&gt;Node13</title>
<g id="a_edge13_Node000001_Node000013"><a xlink:title=" ">
<path fill="none" stroke="#63b8ff" d="M84.54,-121.14C103.88,-106.81 141.32,-80.55 176.5,-64.25 185.96,-59.87 196.39,-55.99 206.51,-52.67"/>
<polygon fill="#63b8ff" stroke="#63b8ff" points="207.37,-56.07 215.87,-49.75 205.28,-49.39 207.37,-56.07"/>
</a>
</g>
</g>
<!-- Node3&#45;&gt;Node2 -->
<g id="edge3_Node000003_Node000002" class="edge">
<title>Node3&#45;&gt;Node2</title>
<g id="a_edge3_Node000003_Node000002"><a xlink:title=" ">
<path fill="none" stroke="#63b8ff" d="M271.51,-252.22C292.07,-268.14 334.77,-299.33 375.5,-317.25 380.64,-319.51 386.13,-321.54 391.68,-323.35"/>
<polygon fill="#63b8ff" stroke="#63b8ff" points="390.32,-326.59 400.9,-326.11 392.33,-319.89 390.32,-326.59"/>
</a>
</g>
</g>
<!-- Node4 -->
<g id="Node000004" class="node">
<title>Node4</title>
<g id="a_Node000004"><a xlink:href="class_model_part.html#afdec3f90829f83e3c1397eb83d1a2647" target="_top" xlink:title="Returns the stored blue colour component.">
<polygon fill="white" stroke="#666666" points="502.5,-307.88 387.5,-307.88 387.5,-288.62 502.5,-288.62 502.5,-307.88"/>
<text xml:space="preserve" text-anchor="middle" x="445" y="-294.38" font-family="Helvetica,sans-Serif" font-size="10.00">ModelPart::getColourB</text>
</a>
</g>
</g>
<!-- Node3&#45;&gt;Node4 -->
<g id="edge4_Node000003_Node000004" class="edge">
<title>Node3&#45;&gt;Node4</title>
<g id="a_edge4_Node000003_Node000004"><a xlink:title=" ">
<path fill="none" stroke="#63b8ff" d="M288.06,-252.25C311.54,-260.2 345.5,-271.42 375.5,-280.25 381.25,-281.94 387.3,-283.64 393.31,-285.29"/>
<polygon fill="#63b8ff" stroke="#63b8ff" points="392.02,-288.56 402.59,-287.78 393.84,-281.8 392.02,-288.56"/>
</a>
</g>
</g>
<!-- Node5 -->
<g id="Node000005" class="node">
<title>Node5</title>
<g id="a_Node000005"><a xlink:href="class_model_part.html#a1f6ab9393ed09e5779e045b004bcb178" target="_top" xlink:title="Returns the stored green colour component.">
<polygon fill="white" stroke="#666666" points="502.88,-270.88 387.12,-270.88 387.12,-251.62 502.88,-251.62 502.88,-270.88"/>
<text xml:space="preserve" text-anchor="middle" x="445" y="-257.38" font-family="Helvetica,sans-Serif" font-size="10.00">ModelPart::getColourG</text>
</a>
</g>
</g>
<!-- Node3&#45;&gt;Node5 -->
<g id="edge5_Node000003_Node000005" class="edge">
<title>Node3&#45;&gt;Node5</title>
<g id="a_edge5_Node000003_Node000005"><a xlink:title=" ">
<path fill="none" stroke="#63b8ff" d="M339.87,-250.56C351.69,-251.77 363.76,-253.01 375.3,-254.19"/>
<polygon fill="#63b8ff" stroke="#63b8ff" points="374.82,-257.66 385.13,-255.2 375.54,-250.7 374.82,-257.66"/>
</a>
</g>
</g>
<!-- Node6 -->
<g id="Node000006" class="node">
<title>Node6</title>
<g id="a_Node000006"><a xlink:href="class_model_part.html#a736954418020fca30162468feb3adea3" target="_top" xlink:title="Returns the stored red colour component.">
<polygon fill="white" stroke="#666666" points="502.88,-233.88 387.12,-233.88 387.12,-214.62 502.88,-214.62 502.88,-233.88"/>
<text xml:space="preserve" text-anchor="middle" x="445" y="-220.38" font-family="Helvetica,sans-Serif" font-size="10.00">ModelPart::getColourR</text>
</a>
</g>
</g>
<!-- Node3&#45;&gt;Node6 -->
<g id="edge6_Node000003_Node000006" class="edge">
<title>Node3&#45;&gt;Node6</title>
<g id="a_edge6_Node000003_Node000006"><a xlink:title=" ">
<path fill="none" stroke="#63b8ff" d="M339.87,-234.38C351.69,-233.23 363.76,-232.06 375.3,-230.93"/>
<polygon fill="#63b8ff" stroke="#63b8ff" points="375.51,-234.43 385.13,-229.98 374.83,-227.46 375.51,-234.43"/>
</a>
</g>
</g>
<!-- Node7 -->
<g id="Node000007" class="node">
<title>Node7</title>
<g id="a_Node000007"><a xlink:href="class_model_part.html#a3bd31780c389deda3a6f28211eff719f" target="_top" xlink:title="Returns the current visibility state.">
<polygon fill="white" stroke="#666666" points="499.5,-196.88 390.5,-196.88 390.5,-177.62 499.5,-177.62 499.5,-196.88"/>
<text xml:space="preserve" text-anchor="middle" x="445" y="-183.38" font-family="Helvetica,sans-Serif" font-size="10.00">ModelPart::getVisible</text>
</a>
</g>
</g>
<!-- Node3&#45;&gt;Node7 -->
<g id="edge7_Node000003_Node000007" class="edge">
<title>Node3&#45;&gt;Node7</title>
<g id="a_edge7_Node000003_Node000007"><a xlink:title=" ">
<path fill="none" stroke="#63b8ff" d="M289.05,-232.25C312.5,-224.55 345.95,-213.82 375.5,-205.25 381.33,-203.56 387.46,-201.85 393.56,-200.19"/>
<polygon fill="#63b8ff" stroke="#63b8ff" points="394.21,-203.64 402.96,-197.68 392.4,-196.88 394.21,-203.64"/>
</a>
</g>
</g>
<!-- Node9 -->
<g id="Node000009" class="node">
<title>Node9</title>
<g id="a_Node000009"><a xlink:href="class_model_part.html#aff9c4aa487b20ad057fca3dae43cc31b" target="_top" xlink:title="Stores the RGB colour for this part.">
<polygon fill="white" stroke="#666666" points="499.12,-159.88 390.88,-159.88 390.88,-140.62 499.12,-140.62 499.12,-159.88"/>
<text xml:space="preserve" text-anchor="middle" x="445" y="-146.38" font-family="Helvetica,sans-Serif" font-size="10.00">ModelPart::setColour</text>
</a>
</g>
</g>
<!-- Node8&#45;&gt;Node9 -->
<g id="edge9_Node000008_Node000009" class="edge">
<title>Node8&#45;&gt;Node9</title>
<g id="a_edge9_Node000008_Node000009"><a xlink:title=" ">
<path fill="none" stroke="#63b8ff" d="M335.31,-139.09C349.92,-140.59 365.09,-142.15 379.29,-143.6"/>
<polygon fill="#63b8ff" stroke="#63b8ff" points="378.63,-147.05 388.93,-144.59 379.34,-140.09 378.63,-147.05"/>
</a>
</g>
</g>
<!-- Node10 -->
<g id="Node000010" class="node">
<title>Node10</title>
<g id="a_Node000010"><a xlink:href="class_model_part.html#a1b0dd7d3e3953b1aa8a4a44a7aa1349b" target="_top" xlink:title="Replaces the stored value at the given column.">
<polygon fill="white" stroke="#666666" points="495.38,-122.88 394.62,-122.88 394.62,-103.62 495.38,-103.62 495.38,-122.88"/>
<text xml:space="preserve" text-anchor="middle" x="445" y="-109.38" font-family="Helvetica,sans-Serif" font-size="10.00">ModelPart::setData</text>
</a>
</g>
</g>
<!-- Node8&#45;&gt;Node10 -->
<g id="edge10_Node000008_Node000010" class="edge">
<title>Node8&#45;&gt;Node10</title>
<g id="a_edge10_Node000008_Node000010"><a xlink:title=" ">
<path fill="none" stroke="#63b8ff" d="M335.31,-123.82C351.18,-122.28 367.7,-120.67 382.92,-119.19"/>
<polygon fill="#63b8ff" stroke="#63b8ff" points="383.17,-122.69 392.78,-118.23 382.49,-115.72 383.17,-122.69"/>
</a>
</g>
</g>
<!-- Node11 -->
<g id="Node000011" class="node">
<title>Node11</title>
<g id="a_Node000011"><a xlink:href="class_model_part.html#a4cfdee348fd6870756ce836f67b1ce75" target="_top" xlink:title="Sets the visibility of this part.">
<polygon fill="white" stroke="#666666" points="499.5,-85.88 390.5,-85.88 390.5,-66.62 499.5,-66.62 499.5,-85.88"/>
<text xml:space="preserve" text-anchor="middle" x="445" y="-72.38" font-family="Helvetica,sans-Serif" font-size="10.00">ModelPart::setVisible</text>
</a>
</g>
</g>
<!-- Node8&#45;&gt;Node11 -->
<g id="edge11_Node000008_Node000011" class="edge">
<title>Node8&#45;&gt;Node11</title>
<g id="a_edge11_Node000008_Node000011"><a xlink:title=" ">
<path fill="none" stroke="#63b8ff" d="M309.77,-121.16C319.75,-118.65 330.05,-115.68 339.5,-112.25 356.32,-106.15 358.76,-100.56 375.5,-94.25 379.9,-92.59 384.52,-91.03 389.18,-89.57"/>
<polygon fill="#63b8ff" stroke="#63b8ff" points="390.04,-92.96 398.64,-86.77 388.06,-86.25 390.04,-92.96"/>
</a>
</g>
</g>
<!-- Node14 -->
<g id="Node000014" class="node">
<title>Node14</title>
<g id="a_Node000014"><a xlink:href="class_main_window.html#a3efc38e6be895f53a3f973906e4174b8" target="_top" xlink:title="Recursively adds actors to the renderer starting from index.">
<polygon fill="white" stroke="#666666" points="514.5,-30.5 375.5,-30.5 375.5,0 514.5,0 514.5,-30.5"/>
<text xml:space="preserve" text-anchor="start" x="383.5" y="-17" font-family="Helvetica,sans-Serif" font-size="10.00">MainWindow::updateRender</text>
<text xml:space="preserve" text-anchor="middle" x="445" y="-5.75" font-family="Helvetica,sans-Serif" font-size="10.00">FromTree</text>
</a>
</g>
</g>
<!-- Node13&#45;&gt;Node14 -->
<g id="edge14_Node000013_Node000014" class="edge">
<title>Node13&#45;&gt;Node14</title>
<g id="a_edge14_Node000013_Node000014"><a xlink:title=" ">
<path fill="none" stroke="#63b8ff" d="M327.89,-30.31C339.56,-28.8 351.78,-27.21 363.72,-25.66"/>
<polygon fill="#63b8ff" stroke="#63b8ff" points="364.09,-29.15 373.55,-24.39 363.19,-22.2 364.09,-29.15"/>
</a>
</g>
</g>
<!-- Node14&#45;&gt;Node14 -->
<g id="edge16_Node000014_Node000014" class="edge">
<title>Node14&#45;&gt;Node14</title>
<g id="a_edge16_Node000014_Node000014"><a xlink:title=" ">
<path fill="none" stroke="#63b8ff" d="M417.18,-30.99C411.5,-40.06 420.78,-48.5 445,-48.5 458.25,-48.5 467.02,-45.97 471.33,-42.2"/>
<polygon fill="#63b8ff" stroke="#63b8ff" points="474.77,-42.86 472.62,-32.49 467.83,-41.94 474.77,-42.86"/>
</a>
</g>
</g>
<!-- Node15 -->
<g id="Node000015" class="node">
<title>Node15</title>
<g id="a_Node000015"><a xlink:href="class_model_part.html#a3d845a3cb1d357a0c2f4ffb131e73116" target="_top" xlink:title="Returns the VTK actor for this part.">
<polygon fill="white" stroke="#666666" points="653.5,-24.88 550.5,-24.88 550.5,-5.63 653.5,-5.63 653.5,-24.88"/>
<text xml:space="preserve" text-anchor="middle" x="602" y="-11.38" font-family="Helvetica,sans-Serif" font-size="10.00">ModelPart::getActor</text>
</a>
</g>
</g>
<!-- Node14&#45;&gt;Node15 -->
<g id="edge15_Node000014_Node000015" class="edge">
<title>Node14&#45;&gt;Node15</title>
<g id="a_edge15_Node000014_Node000015"><a xlink:title=" ">
<path fill="none" stroke="#63b8ff" d="M514.89,-15.25C522.93,-15.25 531.09,-15.25 539.03,-15.25"/>
<polygon fill="#63b8ff" stroke="#63b8ff" points="538.94,-18.75 548.94,-15.25 538.94,-11.75 538.94,-18.75"/>
</a>
</g>
</g>
</g>
</svg>
